<svg width="199" height="183" viewBox="0 0 199 183" fill="none" xmlns="http://www.w3.org/2000/svg">
<g filter="url(#filter0_d_25_17)">
<path d="M122.166 74.5208C123.019 75.786 122.862 77.4639 121.695 79.5547C120.418 81.8648 118.526 83.777 116.231 85.0798C113.847 86.4119 111.154 87.092 108.424 87.0516H88.0327L96.1085 72.6297H116.493C119.427 72.6297 121.305 73.2623 122.166 74.5208Z" fill="#18D6C5"/>
<path d="M144.004 55.913L135.168 71.3175C135.065 70.0573 134.633 68.8461 133.916 67.8045C132.005 64.9735 128.059 63.558 122.079 63.558H90.8188L77.615 87.0517H52.8493C51.689 87.0532 50.5487 86.7495 49.5429 86.171C48.537 85.5926 47.701 84.7597 47.1187 83.7561C46.5365 82.7525 46.2284 81.6133 46.2255 80.453C46.2226 79.2927 46.5249 78.152 47.1021 77.1455L63.0651 49.3245C63.6462 48.3154 64.4825 47.477 65.4901 46.8934C66.4978 46.3099 67.6412 46.0017 68.8057 46H138.257C139.418 45.9999 140.558 46.3047 141.563 46.884C142.569 47.4633 143.405 48.2967 143.987 49.3007C144.569 50.3046 144.877 51.444 144.88 52.6045C144.883 53.765 144.581 54.9059 144.004 55.913Z" fill="#18D6C5"/>
<path d="M93.8404 112.194H73.9068L83.1333 95.8005H105.342C111.376 96.3075 113.009 99.0241 110.241 103.95C107.163 109.442 101.696 112.19 93.8404 112.194Z" fill="#18D6C5"/>
<path d="M152.087 105.713L136.13 133.528C135.551 134.539 134.716 135.378 133.708 135.962C132.699 136.546 131.555 136.853 130.39 136.852H60.925C59.7653 136.852 58.6258 136.548 57.6209 135.969C56.616 135.39 55.7809 134.557 55.1995 133.554C54.618 132.55 54.3105 131.411 54.3079 130.252C54.3053 129.092 54.6076 127.952 55.1845 126.946L58.4417 121.259H89.1901C95.804 121.366 102.336 119.784 108.168 116.663C113.754 113.607 117.92 109.637 120.665 104.751C122.684 101.124 123.458 98.1222 122.913 95.7735H146.346C147.511 95.7697 148.656 96.0736 149.666 96.6542C150.675 97.2349 151.514 98.0718 152.096 99.0804C152.679 100.089 152.984 101.233 152.983 102.398C152.981 103.563 152.672 104.706 152.087 105.713Z" fill="#18D6C5"/>
</g>
<defs>
<filter id="filter0_d_25_17" x="0.725464" y="0.5" width="197.757" height="181.852" filterUnits="userSpaceOnUse" color-interpolation-filters="sRGB">
<feFlood flood-opacity="0" result="BackgroundImageFix"/>
<feColorMatrix in="SourceAlpha" type="matrix" values="0 0 0 0 0 0 0 0 0 0 0 0 0 0 0 0 0 0 127 0" result="hardAlpha"/>
<feOffset/>
<feGaussianBlur stdDeviation="22.75"/>
<feComposite in2="hardAlpha" operator="out"/>
<feColorMatrix type="matrix" values="0 0 0 0 0.0941176 0 0 0 0 0.839216 0 0 0 0 0.772549 0 0 0 0.46 0"/>
<feBlend mode="normal" in2="BackgroundImageFix" result="effect1_dropShadow_25_17"/>
<feBlend mode="normal" in="SourceGraphic" in2="effect1_dropShadow_25_17" result="shape"/>
</filter>
</defs>
</svg>
