<svg width="97" height="79" viewBox="0 0 97 79" fill="none" xmlns="http://www.w3.org/2000/svg">
<g filter="url(#filter0_b_25_26)">
<rect width="71.3643" height="42.2643" rx="5.54286" fill="#18C4C5"/>
<rect x="0.5" y="0.5" width="70.3643" height="41.2643" rx="5.04286" stroke="white"/>
</g>
<path d="M7.92378 4.98142H8.83558V10.976H12.2888V11.7714H7.92378V4.98142ZM15.3011 11.8684C14.9713 11.8684 14.6577 11.8167 14.3602 11.7132C14.0627 11.6033 13.8008 11.4416 13.5745 11.2282C13.3482 11.0084 13.1671 10.7335 13.0313 10.4037C12.8955 10.0739 12.8276 9.68916 12.8276 9.24942V9.05542C12.8276 8.64156 12.8955 8.27619 13.0313 7.95932C13.1671 7.64246 13.3482 7.38056 13.5745 7.17362C13.8008 6.96022 14.0627 6.80179 14.3602 6.69832C14.6577 6.58839 14.9713 6.53342 15.3011 6.53342C15.6309 6.53342 15.9445 6.58839 16.242 6.69832C16.5395 6.80179 16.8014 6.96022 17.0277 7.17362C17.254 7.38056 17.4351 7.64246 17.5709 7.95932C17.7067 8.27619 17.7746 8.64156 17.7746 9.05542V9.24942C17.7746 9.68916 17.7067 10.0739 17.5709 10.4037C17.4351 10.7335 17.254 11.0084 17.0277 11.2282C16.8014 11.4416 16.5395 11.6033 16.242 11.7132C15.9445 11.8167 15.6309 11.8684 15.3011 11.8684ZM15.3011 11.0924C15.4951 11.0924 15.6891 11.0601 15.8831 10.9954C16.0771 10.9243 16.2485 10.8176 16.3972 10.6753C16.5459 10.5266 16.6656 10.3358 16.7561 10.103C16.8531 9.87022 16.9016 9.58569 16.9016 9.24942V9.05542C16.9016 8.74502 16.8531 8.47989 16.7561 8.26002C16.6656 8.04016 16.5459 7.85909 16.3972 7.71682C16.2485 7.57456 16.0771 7.47109 15.8831 7.40642C15.6891 7.34176 15.4951 7.30942 15.3011 7.30942C15.1071 7.30942 14.9131 7.34176 14.7191 7.40642C14.5251 7.47109 14.3537 7.57456 14.205 7.71682C14.0563 7.85909 13.9334 8.04016 13.8364 8.26002C13.7459 8.47989 13.7006 8.74502 13.7006 9.05542V9.24942C13.7006 9.58569 13.7459 9.87022 13.8364 10.103C13.9334 10.3358 14.0563 10.5266 14.205 10.6753C14.3537 10.8176 14.5251 10.9243 14.7191 10.9954C14.9131 11.0601 15.1071 11.0924 15.3011 11.0924ZM19.4728 13.8084C19.3758 13.8084 19.2788 13.7987 19.1818 13.7793V13.0033C19.2788 13.0227 19.3758 13.0324 19.4728 13.0324C19.5698 13.0324 19.6539 13.0163 19.725 12.9839C19.7962 12.9516 19.8641 12.8902 19.9287 12.7996C19.9934 12.7091 20.0613 12.5798 20.1324 12.4116C20.21 12.25 20.2973 12.0366 20.3943 11.7714L18.2118 6.63042H19.1624L20.8308 10.8014L22.344 6.63042H23.2558L21.3158 11.7714C21.18 12.1336 21.0507 12.444 20.9278 12.7026C20.805 12.9613 20.6724 13.1715 20.5301 13.3331C20.3943 13.5013 20.2424 13.6209 20.0742 13.692C19.9061 13.7696 19.7056 13.8084 19.4728 13.8084ZM25.3927 11.8684C25.1082 11.8684 24.856 11.8296 24.6361 11.752C24.4227 11.668 24.2417 11.5548 24.0929 11.4125C23.9442 11.2703 23.831 11.1021 23.7534 10.9081C23.6758 10.7141 23.637 10.5007 23.637 10.2679C23.637 9.75706 23.7858 9.38846 24.0832 9.16212C24.3872 8.93579 24.8204 8.82262 25.383 8.82262H27.0514V8.47342C27.0514 8.03369 26.9512 7.72976 26.7507 7.56162C26.5567 7.39349 26.2625 7.30942 25.868 7.30942C25.4994 7.30942 25.2311 7.38056 25.0629 7.52282C24.8948 7.65862 24.801 7.81382 24.7816 7.98842H23.928C23.941 7.78149 23.9959 7.59072 24.0929 7.41612C24.1964 7.23506 24.3322 7.07986 24.5003 6.95052C24.6749 6.82119 24.8819 6.72096 25.1211 6.64982C25.3604 6.57222 25.6255 6.53342 25.9165 6.53342C26.5244 6.53342 27.0062 6.67892 27.3618 6.96992C27.724 7.25446 27.905 7.72329 27.905 8.37642V10.4619C27.905 10.7335 27.905 10.9728 27.905 11.1797C27.9115 11.3802 27.9277 11.5774 27.9535 11.7714H27.2066C27.1872 11.6227 27.1743 11.4837 27.1678 11.3543C27.1614 11.2185 27.1581 11.0666 27.1581 10.8984C27.0223 11.17 26.8025 11.3996 26.4985 11.5871C26.1946 11.7747 25.826 11.8684 25.3927 11.8684ZM25.577 11.0924C25.7775 11.0924 25.965 11.0666 26.1396 11.0148C26.3207 10.9566 26.4791 10.8758 26.6149 10.7723C26.7507 10.6624 26.8574 10.5298 26.935 10.3746C27.0126 10.2194 27.0514 10.0384 27.0514 9.83142V9.48222H25.5285C25.2117 9.48222 24.9627 9.54689 24.7816 9.67622C24.6006 9.79909 24.51 9.99632 24.51 10.2679C24.51 10.5072 24.5941 10.7044 24.7622 10.8596C24.9368 11.0148 25.2084 11.0924 25.577 11.0924ZM30.9647 11.8199C30.428 11.8199 30.0432 11.6906 29.8104 11.4319C29.5776 11.1733 29.4612 10.7529 29.4612 10.1709V4.98142H30.3148V10.1709C30.3148 10.5072 30.3698 10.7368 30.4797 10.8596C30.5896 10.9825 30.7836 11.0439 31.0617 11.0439C31.1328 11.0439 31.1943 11.0439 31.246 11.0439C31.2977 11.0375 31.3495 11.031 31.4012 11.0245V11.7811C31.3495 11.7941 31.2751 11.8038 31.1781 11.8102C31.0876 11.8167 31.0164 11.8199 30.9647 11.8199ZM34.2218 11.8199C33.6721 11.8199 33.2744 11.6971 33.0287 11.4513C32.7894 11.1991 32.6698 10.8208 32.6698 10.3164V7.38702H31.8938V6.63042H32.6698V5.46642H33.5234V6.63042H34.9008V7.38702H33.5234V10.2194C33.5234 10.5104 33.5848 10.7206 33.7077 10.8499C33.8305 10.9793 34.0666 11.0439 34.4158 11.0439C34.6098 11.0439 34.8038 11.0342 34.9978 11.0148V11.7714C34.8749 11.7844 34.752 11.7941 34.6292 11.8005C34.5063 11.8135 34.3705 11.8199 34.2218 11.8199ZM37.0825 13.8084C36.9855 13.8084 36.8885 13.7987 36.7915 13.7793V13.0033C36.8885 13.0227 36.9855 13.0324 37.0825 13.0324C37.1795 13.0324 37.2636 13.0163 37.3347 12.9839C37.4058 12.9516 37.4737 12.8902 37.5384 12.7996C37.6031 12.7091 37.671 12.5798 37.7421 12.4116C37.8197 12.25 37.907 12.0366 38.004 11.7714L35.8215 6.63042H36.7721L38.4405 10.8014L39.9537 6.63042H40.8655L38.9255 11.7714C38.7897 12.1336 38.6604 12.444 38.5375 12.7026C38.4146 12.9613 38.2821 13.1715 38.1398 13.3331C38.004 13.5013 37.852 13.6209 37.6839 13.692C37.5158 13.7696 37.3153 13.8084 37.0825 13.8084ZM46.2448 11.8684C45.915 11.8684 45.6079 11.8167 45.3233 11.7132C45.0388 11.6033 44.7931 11.4416 44.5861 11.2282C44.3792 11.0084 44.2143 10.7335 44.0914 10.4037C43.975 10.0739 43.9168 9.68916 43.9168 9.24942V9.05542C43.9168 8.64156 43.9815 8.27619 44.1108 7.95932C44.2402 7.64246 44.4115 7.38056 44.6249 7.17362C44.8383 6.96022 45.0841 6.80179 45.3621 6.69832C45.6467 6.58839 45.9409 6.53342 46.2448 6.53342C46.5488 6.53342 46.8204 6.57546 47.0596 6.65952C47.3054 6.74359 47.5155 6.85999 47.6901 7.00872C47.8712 7.15746 48.0167 7.33206 48.1266 7.53252C48.243 7.73299 48.3271 7.94962 48.3788 8.18242H47.5058C47.4541 8.05956 47.3927 7.94639 47.3215 7.84292C47.2569 7.73299 47.1728 7.63922 47.0693 7.56162C46.9723 7.48402 46.8559 7.42259 46.7201 7.37732C46.5843 7.33206 46.4259 7.30942 46.2448 7.30942C46.0573 7.30942 45.8762 7.34499 45.7016 7.41612C45.527 7.48079 45.3718 7.58426 45.236 7.72652C45.1002 7.86232 44.9903 8.04016 44.9062 8.26002C44.8286 8.47989 44.7898 8.74502 44.7898 9.05542V9.24942C44.7898 9.57922 44.8286 9.86376 44.9062 10.103C44.9903 10.3358 45.1002 10.5266 45.236 10.6753C45.3718 10.8176 45.527 10.9243 45.7016 10.9954C45.8762 11.0601 46.0573 11.0924 46.2448 11.0924C46.5617 11.0924 46.8268 11.0148 47.0402 10.8596C47.2601 10.7044 47.4153 10.491 47.5058 10.2194H48.3788C48.256 10.7303 48.0038 11.1345 47.6222 11.4319C47.2407 11.7229 46.7816 11.8684 46.2448 11.8684ZM51.0068 11.8684C50.7223 11.8684 50.4701 11.8296 50.2502 11.752C50.0368 11.668 49.8557 11.5548 49.707 11.4125C49.5583 11.2703 49.4451 11.1021 49.3675 10.9081C49.2899 10.7141 49.2511 10.5007 49.2511 10.2679C49.2511 9.75706 49.3998 9.38846 49.6973 9.16212C50.0012 8.93579 50.4345 8.82262 50.9971 8.82262H52.6655V8.47342C52.6655 8.03369 52.5653 7.72976 52.3648 7.56162C52.1708 7.39349 51.8766 7.30942 51.4821 7.30942C51.1135 7.30942 50.8451 7.38056 50.677 7.52282C50.5089 7.65862 50.4151 7.81382 50.3957 7.98842H49.5421C49.555 7.78149 49.61 7.59072 49.707 7.41612C49.8105 7.23506 49.9463 7.07986 50.1144 6.95052C50.289 6.82119 50.4959 6.72096 50.7352 6.64982C50.9745 6.57222 51.2396 6.53342 51.5306 6.53342C52.1385 6.53342 52.6202 6.67892 52.9759 6.96992C53.338 7.25446 53.5191 7.72329 53.5191 8.37642V10.4619C53.5191 10.7335 53.5191 10.9728 53.5191 11.1797C53.5256 11.3802 53.5417 11.5774 53.5676 11.7714H52.8207C52.8013 11.6227 52.7884 11.4837 52.7819 11.3543C52.7754 11.2185 52.7722 11.0666 52.7722 10.8984C52.6364 11.17 52.4165 11.3996 52.1126 11.5871C51.8087 11.7747 51.4401 11.8684 51.0068 11.8684ZM51.1911 11.0924C51.3916 11.0924 51.5791 11.0666 51.7537 11.0148C51.9348 10.9566 52.0932 10.8758 52.229 10.7723C52.3648 10.6624 52.4715 10.5298 52.5491 10.3746C52.6267 10.2194 52.6655 10.0384 52.6655 9.83142V9.48222H51.1426C50.8257 9.48222 50.5768 9.54689 50.3957 9.67622C50.2146 9.79909 50.1241 9.99632 50.1241 10.2679C50.1241 10.5072 50.2082 10.7044 50.3763 10.8596C50.5509 11.0148 50.8225 11.0924 51.1911 11.0924ZM55.0268 6.63042H55.8222V7.60042C55.9321 7.29649 56.1132 7.04429 56.3654 6.84382C56.624 6.63689 56.9377 6.53342 57.3063 6.53342C57.4356 6.53342 57.5391 6.53989 57.6167 6.55282C57.7007 6.56576 57.7751 6.58192 57.8398 6.60132V7.39672C57.7557 7.36439 57.6716 7.34176 57.5876 7.32882C57.51 7.31589 57.4 7.30942 57.2578 7.30942C57.0638 7.30942 56.8827 7.34499 56.7146 7.41612C56.5464 7.48726 56.4009 7.58749 56.2781 7.71682C56.1552 7.83969 56.0582 7.99166 55.9871 8.17272C55.9159 8.35379 55.8804 8.55102 55.8804 8.76442V11.7714H55.0268V6.63042ZM60.5061 11.8684C60.1893 11.8684 59.8983 11.8135 59.6331 11.7035C59.3745 11.5936 59.1514 11.4319 58.9638 11.2185C58.7763 10.9987 58.6308 10.7271 58.5273 10.4037C58.4239 10.0739 58.3721 9.68916 58.3721 9.24942V9.05542C58.3721 8.64802 58.4239 8.28912 58.5273 7.97872C58.6373 7.66186 58.786 7.39672 58.9735 7.18332C59.1611 6.96992 59.3842 6.80826 59.6428 6.69832C59.908 6.58839 60.1957 6.53342 60.5061 6.53342C60.92 6.53342 61.2789 6.62396 61.5828 6.80502C61.8932 6.98609 62.1228 7.23506 62.2715 7.55192V4.98142H63.1251V11.7714H62.3297V10.8014C62.2004 11.1183 61.9741 11.377 61.6507 11.5774C61.3274 11.7714 60.9459 11.8684 60.5061 11.8684ZM60.7001 11.1118C60.9329 11.1118 61.1463 11.073 61.3403 10.9954C61.5343 10.9178 61.6992 10.8111 61.835 10.6753C61.9708 10.5395 62.0775 10.3746 62.1551 10.1806C62.2327 9.98662 62.2715 9.77322 62.2715 9.54042V8.76442C62.2715 8.55749 62.2327 8.36349 62.1551 8.18242C62.0775 8.00136 61.9708 7.84616 61.835 7.71682C61.6992 7.58102 61.5343 7.47756 61.3403 7.40642C61.1463 7.32882 60.9329 7.29002 60.7001 7.29002C60.4932 7.29002 60.2992 7.32882 60.1181 7.40642C59.9371 7.48402 59.7786 7.60042 59.6428 7.75562C59.5135 7.90436 59.41 8.08866 59.3324 8.30852C59.2613 8.52839 59.2257 8.77736 59.2257 9.05542V9.24942C59.2257 9.55336 59.2613 9.82172 59.3324 10.0545C59.41 10.2873 59.5135 10.4813 59.6428 10.6365C59.7786 10.7917 59.9371 10.9114 60.1181 10.9954C60.2992 11.073 60.4932 11.1118 60.7001 11.1118Z" fill="white"/>
<g filter="url(#filter1_b_25_26)">
<rect x="11.7786" y="18.2642" width="71.3643" height="42.2643" rx="5.54286" fill="#18C7C5"/>
<rect x="12.2786" y="18.7642" width="70.3643" height="41.2643" rx="5.04286" stroke="white"/>
</g>
<path d="M19.7023 23.2457H20.6141V29.2403H24.0673V30.0357H19.7023V23.2457ZM27.0797 30.1327C26.7499 30.1327 26.4362 30.081 26.1388 29.9775C25.8413 29.8676 25.5794 29.7059 25.3531 29.4925C25.1267 29.2727 24.9457 28.9978 24.8099 28.668C24.6741 28.3382 24.6062 27.9535 24.6062 27.5137V27.3197C24.6062 26.9059 24.6741 26.5405 24.8099 26.2236C24.9457 25.9068 25.1267 25.6449 25.3531 25.4379C25.5794 25.2245 25.8413 25.0661 26.1388 24.9626C26.4362 24.8527 26.7499 24.7977 27.0797 24.7977C27.4095 24.7977 27.7231 24.8527 28.0206 24.9626C28.318 25.0661 28.5799 25.2245 28.8063 25.4379C29.0326 25.6449 29.2137 25.9068 29.3495 26.2236C29.4853 26.5405 29.5532 26.9059 29.5532 27.3197V27.5137C29.5532 27.9535 29.4853 28.3382 29.3495 28.668C29.2137 28.9978 29.0326 29.2727 28.8063 29.4925C28.5799 29.7059 28.318 29.8676 28.0206 29.9775C27.7231 30.081 27.4095 30.1327 27.0797 30.1327ZM27.0797 29.3567C27.2737 29.3567 27.4677 29.3244 27.6617 29.2597C27.8557 29.1886 28.027 29.0819 28.1758 28.9396C28.3245 28.7909 28.4441 28.6001 28.5347 28.3673C28.6317 28.1345 28.6802 27.85 28.6802 27.5137V27.3197C28.6802 27.0093 28.6317 26.7442 28.5347 26.5243C28.4441 26.3045 28.3245 26.1234 28.1758 25.9811C28.027 25.8389 27.8557 25.7354 27.6617 25.6707C27.4677 25.6061 27.2737 25.5737 27.0797 25.5737C26.8857 25.5737 26.6917 25.6061 26.4977 25.6707C26.3037 25.7354 26.1323 25.8389 25.9836 25.9811C25.8348 26.1234 25.712 26.3045 25.615 26.5243C25.5244 26.7442 25.4792 27.0093 25.4792 27.3197V27.5137C25.4792 27.85 25.5244 28.1345 25.615 28.3673C25.712 28.6001 25.8348 28.7909 25.9836 28.9396C26.1323 29.0819 26.3037 29.1886 26.4977 29.2597C26.6917 29.3244 26.8857 29.3567 27.0797 29.3567ZM31.2514 32.0727C31.1544 32.0727 31.0574 32.063 30.9604 32.0436V31.2676C31.0574 31.287 31.1544 31.2967 31.2514 31.2967C31.3484 31.2967 31.4325 31.2806 31.5036 31.2482C31.5747 31.2159 31.6426 31.1545 31.7073 31.0639C31.772 30.9734 31.8399 30.8441 31.911 30.6759C31.9886 30.5143 32.0759 30.3009 32.1729 30.0357L29.9904 24.8947H30.941L32.6094 29.0657L34.1226 24.8947H35.0344L33.0944 30.0357C32.9586 30.3979 32.8293 30.7083 32.7064 30.9669C32.5835 31.2256 32.451 31.4358 32.3087 31.5974C32.1729 31.7656 32.0209 31.8852 31.8528 31.9563C31.6847 32.0339 31.4842 32.0727 31.2514 32.0727ZM37.1713 30.1327C36.8868 30.1327 36.6346 30.0939 36.4147 30.0163C36.2013 29.9323 36.0202 29.8191 35.8715 29.6768C35.7228 29.5346 35.6096 29.3664 35.532 29.1724C35.4544 28.9784 35.4156 28.765 35.4156 28.5322C35.4156 28.0214 35.5643 27.6528 35.8618 27.4264C36.1657 27.2001 36.599 27.0869 37.1616 27.0869H38.83V26.7377C38.83 26.298 38.7298 25.9941 38.5293 25.8259C38.3353 25.6578 38.0411 25.5737 37.6466 25.5737C37.278 25.5737 37.0096 25.6449 36.8415 25.7871C36.6734 25.9229 36.5796 26.0781 36.5602 26.2527H35.7066C35.7195 26.0458 35.7745 25.855 35.8715 25.6804C35.975 25.4994 36.1108 25.3442 36.2789 25.2148C36.4535 25.0855 36.6604 24.9853 36.8997 24.9141C37.139 24.8365 37.4041 24.7977 37.6951 24.7977C38.303 24.7977 38.7847 24.9432 39.1404 25.2342C39.5025 25.5188 39.6836 25.9876 39.6836 26.6407V28.7262C39.6836 28.9978 39.6836 29.2371 39.6836 29.444C39.6901 29.6445 39.7062 29.8417 39.7321 30.0357H38.9852C38.9658 29.887 38.9529 29.748 38.9464 29.6186C38.9399 29.4828 38.9367 29.3309 38.9367 29.1627C38.8009 29.4343 38.581 29.6639 38.2771 29.8514C37.9732 30.039 37.6046 30.1327 37.1713 30.1327ZM37.3556 29.3567C37.5561 29.3567 37.7436 29.3309 37.9182 29.2791C38.0993 29.2209 38.2577 29.1401 38.3935 29.0366C38.5293 28.9267 38.636 28.7941 38.7136 28.6389C38.7912 28.4837 38.83 28.3027 38.83 28.0957V27.7465H37.3071C36.9902 27.7465 36.7413 27.8112 36.5602 27.9405C36.3791 28.0634 36.2886 28.2606 36.2886 28.5322C36.2886 28.7715 36.3727 28.9687 36.5408 29.1239C36.7154 29.2791 36.987 29.3567 37.3556 29.3567ZM42.7433 30.0842C42.2065 30.0842 41.8218 29.9549 41.589 29.6962C41.3562 29.4376 41.2398 29.0172 41.2398 28.4352V23.2457H42.0934V28.4352C42.0934 28.7715 42.1483 29.0011 42.2583 29.1239C42.3682 29.2468 42.5622 29.3082 42.8403 29.3082C42.9114 29.3082 42.9728 29.3082 43.0246 29.3082C43.0763 29.3018 43.128 29.2953 43.1798 29.2888V30.0454C43.128 30.0584 43.0537 30.0681 42.9567 30.0745C42.8661 30.081 42.795 30.0842 42.7433 30.0842ZM46.0003 30.0842C45.4507 30.0842 45.053 29.9614 44.8072 29.7156C44.568 29.4634 44.4483 29.0851 44.4483 28.5807V25.6513H43.6723V24.8947H44.4483V23.7307H45.3019V24.8947H46.6793V25.6513H45.3019V28.4837C45.3019 28.7747 45.3634 28.9849 45.4862 29.1142C45.6091 29.2436 45.8451 29.3082 46.1943 29.3082C46.3883 29.3082 46.5823 29.2985 46.7763 29.2791V30.0357C46.6535 30.0487 46.5306 30.0584 46.4077 30.0648C46.2849 30.0778 46.1491 30.0842 46.0003 30.0842ZM48.8611 32.0727C48.7641 32.0727 48.6671 32.063 48.5701 32.0436V31.2676C48.6671 31.287 48.7641 31.2967 48.8611 31.2967C48.9581 31.2967 49.0421 31.2806 49.1133 31.2482C49.1844 31.2159 49.2523 31.1545 49.317 31.0639C49.3816 30.9734 49.4495 30.8441 49.5207 30.6759C49.5983 30.5143 49.6856 30.3009 49.7826 30.0357L47.6001 24.8947H48.5507L50.2191 29.0657L51.7323 24.8947H52.6441L50.7041 30.0357C50.5683 30.3979 50.4389 30.7083 50.3161 30.9669C50.1932 31.2256 50.0606 31.4358 49.9184 31.5974C49.7826 31.7656 49.6306 31.8852 49.4625 31.9563C49.2943 32.0339 49.0939 32.0727 48.8611 32.0727ZM58.0234 30.1327C57.6936 30.1327 57.3864 30.081 57.1019 29.9775C56.8174 29.8676 56.5716 29.7059 56.3647 29.4925C56.1578 29.2727 55.9929 28.9978 55.87 28.668C55.7536 28.3382 55.6954 27.9535 55.6954 27.5137V27.3197C55.6954 26.9059 55.7601 26.5405 55.8894 26.2236C56.0187 25.9068 56.1901 25.6449 56.4035 25.4379C56.6169 25.2245 56.8626 25.0661 57.1407 24.9626C57.4252 24.8527 57.7195 24.7977 58.0234 24.7977C58.3273 24.7977 58.5989 24.8398 58.8382 24.9238C59.0839 25.0079 59.2941 25.1243 59.4687 25.273C59.6498 25.4218 59.7953 25.5964 59.9052 25.7968C60.0216 25.9973 60.1057 26.2139 60.1574 26.4467H59.2844C59.2327 26.3239 59.1712 26.2107 59.1001 26.1072C59.0354 25.9973 58.9514 25.9035 58.8479 25.8259C58.7509 25.7483 58.6345 25.6869 58.4987 25.6416C58.3629 25.5964 58.2045 25.5737 58.0234 25.5737C57.8359 25.5737 57.6548 25.6093 57.4802 25.6804C57.3056 25.7451 57.1504 25.8486 57.0146 25.9908C56.8788 26.1266 56.7689 26.3045 56.6848 26.5243C56.6072 26.7442 56.5684 27.0093 56.5684 27.3197V27.5137C56.5684 27.8435 56.6072 28.1281 56.6848 28.3673C56.7689 28.6001 56.8788 28.7909 57.0146 28.9396C57.1504 29.0819 57.3056 29.1886 57.4802 29.2597C57.6548 29.3244 57.8359 29.3567 58.0234 29.3567C58.3403 29.3567 58.6054 29.2791 58.8188 29.1239C59.0387 28.9687 59.1939 28.7553 59.2844 28.4837H60.1574C60.0345 28.9946 59.7823 29.3988 59.4008 29.6962C59.0193 29.9872 58.5601 30.1327 58.0234 30.1327ZM62.7854 30.1327C62.5008 30.1327 62.2486 30.0939 62.0288 30.0163C61.8154 29.9323 61.6343 29.8191 61.4856 29.6768C61.3368 29.5346 61.2237 29.3664 61.1461 29.1724C61.0685 28.9784 61.0297 28.765 61.0297 28.5322C61.0297 28.0214 61.1784 27.6528 61.4759 27.4264C61.7798 27.2001 62.2131 27.0869 62.7757 27.0869H64.4441V26.7377C64.4441 26.298 64.3438 25.9941 64.1434 25.8259C63.9494 25.6578 63.6551 25.5737 63.2607 25.5737C62.8921 25.5737 62.6237 25.6449 62.4556 25.7871C62.2874 25.9229 62.1937 26.0781 62.1743 26.2527H61.3207C61.3336 26.0458 61.3886 25.855 61.4856 25.6804C61.589 25.4994 61.7248 25.3442 61.893 25.2148C62.0676 25.0855 62.2745 24.9853 62.5138 24.9141C62.753 24.8365 63.0182 24.7977 63.3092 24.7977C63.917 24.7977 64.3988 24.9432 64.7545 25.2342C65.1166 25.5188 65.2977 25.9876 65.2977 26.6407V28.7262C65.2977 28.9978 65.2977 29.2371 65.2977 29.444C65.3041 29.6445 65.3203 29.8417 65.3462 30.0357H64.5993C64.5799 29.887 64.5669 29.748 64.5605 29.6186C64.554 29.4828 64.5508 29.3309 64.5508 29.1627C64.415 29.4343 64.1951 29.6639 63.8912 29.8514C63.5872 30.039 63.2186 30.1327 62.7854 30.1327ZM62.9697 29.3567C63.1701 29.3567 63.3577 29.3309 63.5323 29.2791C63.7133 29.2209 63.8718 29.1401 64.0076 29.0366C64.1434 28.9267 64.2501 28.7941 64.3277 28.6389C64.4053 28.4837 64.4441 28.3027 64.4441 28.0957V27.7465H62.9212C62.6043 27.7465 62.3553 27.8112 62.1743 27.9405C61.9932 28.0634 61.9027 28.2606 61.9027 28.5322C61.9027 28.7715 61.9867 28.9687 62.1549 29.1239C62.3295 29.2791 62.6011 29.3567 62.9697 29.3567ZM66.8053 24.8947H67.6007V25.8647C67.7107 25.5608 67.8917 25.3086 68.1439 25.1081C68.4026 24.9012 68.7162 24.7977 69.0848 24.7977C69.2142 24.7977 69.3176 24.8042 69.3952 24.8171C69.4793 24.8301 69.5537 24.8462 69.6183 24.8656V25.661C69.5343 25.6287 69.4502 25.6061 69.3661 25.5931C69.2885 25.5802 69.1786 25.5737 69.0363 25.5737C68.8423 25.5737 68.6613 25.6093 68.4931 25.6804C68.325 25.7516 68.1795 25.8518 68.0566 25.9811C67.9338 26.104 67.8368 26.256 67.7656 26.437C67.6945 26.6181 67.6589 26.8153 67.6589 27.0287V30.0357H66.8053V24.8947ZM72.2847 30.1327C71.9678 30.1327 71.6768 30.0778 71.4117 29.9678C71.153 29.8579 70.9299 29.6962 70.7424 29.4828C70.5549 29.263 70.4094 28.9914 70.3059 28.668C70.2024 28.3382 70.1507 27.9535 70.1507 27.5137V27.3197C70.1507 26.9123 70.2024 26.5534 70.3059 26.243C70.4158 25.9262 70.5646 25.661 70.7521 25.4476C70.9396 25.2342 71.1627 25.0726 71.4214 24.9626C71.6865 24.8527 71.9743 24.7977 72.2847 24.7977C72.6986 24.7977 73.0575 24.8883 73.3614 25.0693C73.6718 25.2504 73.9014 25.4994 74.0501 25.8162V23.2457H74.9037V30.0357H74.1083V29.0657C73.979 29.3826 73.7526 29.6413 73.4293 29.8417C73.106 30.0357 72.7244 30.1327 72.2847 30.1327ZM72.4787 29.3761C72.7115 29.3761 72.9249 29.3373 73.1189 29.2597C73.3129 29.1821 73.4778 29.0754 73.6136 28.9396C73.7494 28.8038 73.8561 28.6389 73.9337 28.4449C74.0113 28.2509 74.0501 28.0375 74.0501 27.8047V27.0287C74.0501 26.8218 74.0113 26.6278 73.9337 26.4467C73.8561 26.2657 73.7494 26.1105 73.6136 25.9811C73.4778 25.8453 73.3129 25.7419 73.1189 25.6707C72.9249 25.5931 72.7115 25.5543 72.4787 25.5543C72.2718 25.5543 72.0778 25.5931 71.8967 25.6707C71.7156 25.7483 71.5572 25.8647 71.4214 26.0199C71.2921 26.1687 71.1886 26.353 71.111 26.5728C71.0399 26.7927 71.0043 27.0417 71.0043 27.3197V27.5137C71.0043 27.8177 71.0399 28.086 71.111 28.3188C71.1886 28.5516 71.2921 28.7456 71.4214 28.9008C71.5572 29.056 71.7156 29.1757 71.8967 29.2597C72.0778 29.3373 72.2718 29.3761 72.4787 29.3761Z" fill="white"/>
<g filter="url(#filter2_b_25_26)">
<rect x="25.6357" y="36.5283" width="71.3643" height="42.2643" rx="5.54286" fill="#18CCC5" fill-opacity="0.44"/>
<rect x="26.1357" y="37.0283" width="70.3643" height="41.2643" rx="5.04286" stroke="white"/>
</g>
<path d="M33.5595 41.5093H34.4713V47.5039H37.9245V48.2993H33.5595V41.5093ZM40.9368 48.3963C40.607 48.3963 40.2933 48.3446 39.9959 48.2411C39.6984 48.1312 39.4365 47.9695 39.2102 47.7561C38.9838 47.5362 38.8028 47.2614 38.667 46.9316C38.5312 46.6018 38.4633 46.217 38.4633 45.7773V45.5833C38.4633 45.1694 38.5312 44.8041 38.667 44.4872C38.8028 44.1703 38.9838 43.9084 39.2102 43.7015C39.4365 43.4881 39.6984 43.3297 39.9959 43.2262C40.2933 43.1163 40.607 43.0613 40.9368 43.0613C41.2666 43.0613 41.5802 43.1163 41.8777 43.2262C42.1751 43.3297 42.437 43.4881 42.6634 43.7015C42.8897 43.9084 43.0708 44.1703 43.2066 44.4872C43.3424 44.8041 43.4103 45.1694 43.4103 45.5833V45.7773C43.4103 46.217 43.3424 46.6018 43.2066 46.9316C43.0708 47.2614 42.8897 47.5362 42.6634 47.7561C42.437 47.9695 42.1751 48.1312 41.8777 48.2411C41.5802 48.3446 41.2666 48.3963 40.9368 48.3963ZM40.9368 47.6203C41.1308 47.6203 41.3248 47.588 41.5188 47.5233C41.7128 47.4522 41.8841 47.3455 42.0329 47.2032C42.1816 47.0545 42.3012 46.8637 42.3918 46.6309C42.4888 46.3981 42.5373 46.1136 42.5373 45.7773V45.5833C42.5373 45.2729 42.4888 45.0078 42.3918 44.7879C42.3012 44.568 42.1816 44.387 42.0329 44.2447C41.8841 44.1024 41.7128 43.999 41.5188 43.9343C41.3248 43.8696 41.1308 43.8373 40.9368 43.8373C40.7428 43.8373 40.5488 43.8696 40.3548 43.9343C40.1608 43.999 39.9894 44.1024 39.8407 44.2447C39.6919 44.387 39.5691 44.568 39.4721 44.7879C39.3815 45.0078 39.3363 45.2729 39.3363 45.5833V45.7773C39.3363 46.1136 39.3815 46.3981 39.4721 46.6309C39.5691 46.8637 39.6919 47.0545 39.8407 47.2032C39.9894 47.3455 40.1608 47.4522 40.3548 47.5233C40.5488 47.588 40.7428 47.6203 40.9368 47.6203ZM45.1085 50.3363C45.0115 50.3363 44.9145 50.3266 44.8175 50.3072V49.5312C44.9145 49.5506 45.0115 49.5603 45.1085 49.5603C45.2055 49.5603 45.2896 49.5441 45.3607 49.5118C45.4319 49.4795 45.4998 49.418 45.5644 49.3275C45.6291 49.237 45.697 49.1076 45.7681 48.9395C45.8457 48.7778 45.933 48.5644 46.03 48.2993L43.8475 43.1583H44.7981L46.4665 47.3293L47.9797 43.1583H48.8915L46.9515 48.2993C46.8157 48.6614 46.6864 48.9718 46.5635 49.2305C46.4407 49.4892 46.3081 49.6993 46.1658 49.861C46.03 50.0291 45.8781 50.1488 45.7099 50.2199C45.5418 50.2975 45.3413 50.3363 45.1085 50.3363ZM51.0284 48.3963C50.7439 48.3963 50.4917 48.3575 50.2718 48.2799C50.0584 48.1958 49.8773 48.0827 49.7286 47.9404C49.5799 47.7981 49.4667 47.63 49.3891 47.436C49.3115 47.242 49.2727 47.0286 49.2727 46.7958C49.2727 46.2849 49.4214 45.9163 49.7189 45.69C50.0228 45.4637 50.4561 45.3505 51.0187 45.3505H52.6871V45.0013C52.6871 44.5616 52.5869 44.2576 52.3864 44.0895C52.1924 43.9214 51.8982 43.8373 51.5037 43.8373C51.1351 43.8373 50.8667 43.9084 50.6986 44.0507C50.5305 44.1865 50.4367 44.3417 50.4173 44.5163H49.5637C49.5766 44.3094 49.6316 44.1186 49.7286 43.944C49.8321 43.7629 49.9679 43.6077 50.136 43.4784C50.3106 43.3491 50.5175 43.2488 50.7568 43.1777C50.9961 43.1001 51.2612 43.0613 51.5522 43.0613C52.1601 43.0613 52.6418 43.2068 52.9975 43.4978C53.3596 43.7823 53.5407 44.2512 53.5407 44.9043V46.9898C53.5407 47.2614 53.5407 47.5007 53.5407 47.7076C53.5472 47.9081 53.5633 48.1053 53.5892 48.2993H52.8423C52.8229 48.1506 52.81 48.0115 52.8035 47.8822C52.797 47.7464 52.7938 47.5944 52.7938 47.4263C52.658 47.6979 52.4381 47.9275 52.1342 48.115C51.8303 48.3025 51.4617 48.3963 51.0284 48.3963ZM51.2127 47.6203C51.4132 47.6203 51.6007 47.5944 51.7753 47.5427C51.9564 47.4845 52.1148 47.4037 52.2506 47.3002C52.3864 47.1903 52.4931 47.0577 52.5707 46.9025C52.6483 46.7473 52.6871 46.5662 52.6871 46.3593V46.0101H51.1642C50.8473 46.0101 50.5984 46.0748 50.4173 46.2041C50.2362 46.327 50.1457 46.5242 50.1457 46.7958C50.1457 47.0351 50.2298 47.2323 50.3979 47.3875C50.5725 47.5427 50.8441 47.6203 51.2127 47.6203ZM56.6004 48.3478C56.0636 48.3478 55.6789 48.2185 55.4461 47.9598C55.2133 47.7011 55.0969 47.2808 55.0969 46.6988V41.5093H55.9505V46.6988C55.9505 47.0351 56.0054 47.2646 56.1154 47.3875C56.2253 47.5104 56.4193 47.5718 56.6974 47.5718C56.7685 47.5718 56.8299 47.5718 56.8817 47.5718C56.9334 47.5653 56.9851 47.5589 57.0369 47.5524V48.309C56.9851 48.3219 56.9108 48.3316 56.8138 48.3381C56.7232 48.3446 56.6521 48.3478 56.6004 48.3478ZM59.8575 48.3478C59.3078 48.3478 58.9101 48.2249 58.6644 47.9792C58.4251 47.727 58.3055 47.3487 58.3055 46.8443V43.9149H57.5295V43.1583H58.3055V41.9943H59.1591V43.1583H60.5365V43.9149H59.1591V46.7473C59.1591 47.0383 59.2205 47.2485 59.3434 47.3778C59.4662 47.5071 59.7023 47.5718 60.0515 47.5718C60.2455 47.5718 60.4395 47.5621 60.6335 47.5427V48.2993C60.5106 48.3122 60.3877 48.3219 60.2649 48.3284C60.142 48.3413 60.0062 48.3478 59.8575 48.3478ZM62.7182 50.3363C62.6212 50.3363 62.5242 50.3266 62.4272 50.3072V49.5312C62.5242 49.5506 62.6212 49.5603 62.7182 49.5603C62.8152 49.5603 62.8993 49.5441 62.9704 49.5118C63.0415 49.4795 63.1094 49.418 63.1741 49.3275C63.2388 49.237 63.3067 49.1076 63.3778 48.9395C63.4554 48.7778 63.5427 48.5644 63.6397 48.2993L61.4572 43.1583H62.4078L64.0762 47.3293L65.5894 43.1583H66.5012L64.5612 48.2993C64.4254 48.6614 64.2961 48.9718 64.1732 49.2305C64.0503 49.4892 63.9178 49.6993 63.7755 49.861C63.6397 50.0291 63.4877 50.1488 63.3196 50.2199C63.1515 50.2975 62.951 50.3363 62.7182 50.3363ZM71.8805 48.3963C71.5507 48.3963 71.2436 48.3446 70.959 48.2411C70.6745 48.1312 70.4288 47.9695 70.2218 47.7561C70.0149 47.5362 69.85 47.2614 69.7271 46.9316C69.6107 46.6018 69.5525 46.217 69.5525 45.7773V45.5833C69.5525 45.1694 69.6172 44.8041 69.7465 44.4872C69.8759 44.1703 70.0472 43.9084 70.2606 43.7015C70.474 43.4881 70.7198 43.3297 70.9978 43.2262C71.2824 43.1163 71.5766 43.0613 71.8805 43.0613C72.1845 43.0613 72.4561 43.1033 72.6953 43.1874C72.9411 43.2715 73.1512 43.3879 73.3258 43.5366C73.5069 43.6853 73.6524 43.8599 73.7623 44.0604C73.8787 44.2609 73.9628 44.4775 74.0145 44.7103H73.1415C73.0898 44.5874 73.0284 44.4743 72.9572 44.3708C72.8926 44.2609 72.8085 44.1671 72.705 44.0895C72.608 44.0119 72.4916 43.9505 72.3558 43.9052C72.22 43.8599 72.0616 43.8373 71.8805 43.8373C71.693 43.8373 71.5119 43.8729 71.3373 43.944C71.1627 44.0087 71.0075 44.1121 70.8717 44.2544C70.7359 44.3902 70.626 44.568 70.5419 44.7879C70.4643 45.0078 70.4255 45.2729 70.4255 45.5833V45.7773C70.4255 46.1071 70.4643 46.3916 70.5419 46.6309C70.626 46.8637 70.7359 47.0545 70.8717 47.2032C71.0075 47.3455 71.1627 47.4522 71.3373 47.5233C71.5119 47.588 71.693 47.6203 71.8805 47.6203C72.1974 47.6203 72.4625 47.5427 72.6759 47.3875C72.8958 47.2323 73.051 47.0189 73.1415 46.7473H74.0145C73.8917 47.2582 73.6395 47.6623 73.2579 47.9598C72.8764 48.2508 72.4173 48.3963 71.8805 48.3963ZM76.6425 48.3963C76.3579 48.3963 76.1057 48.3575 75.8859 48.2799C75.6725 48.1958 75.4914 48.0827 75.3427 47.9404C75.1939 47.7981 75.0808 47.63 75.0032 47.436C74.9256 47.242 74.8868 47.0286 74.8868 46.7958C74.8868 46.2849 75.0355 45.9163 75.333 45.69C75.6369 45.4637 76.0702 45.3505 76.6328 45.3505H78.3012V45.0013C78.3012 44.5616 78.2009 44.2576 78.0005 44.0895C77.8065 43.9214 77.5122 43.8373 77.1178 43.8373C76.7492 43.8373 76.4808 43.9084 76.3127 44.0507C76.1445 44.1865 76.0508 44.3417 76.0314 44.5163H75.1778C75.1907 44.3094 75.2457 44.1186 75.3427 43.944C75.4461 43.7629 75.5819 43.6077 75.7501 43.4784C75.9247 43.3491 76.1316 43.2488 76.3709 43.1777C76.6101 43.1001 76.8753 43.0613 77.1663 43.0613C77.7741 43.0613 78.2559 43.2068 78.6116 43.4978C78.9737 43.7823 79.1548 44.2512 79.1548 44.9043V46.9898C79.1548 47.2614 79.1548 47.5007 79.1548 47.7076C79.1612 47.9081 79.1774 48.1053 79.2033 48.2993H78.4564C78.437 48.1506 78.424 48.0115 78.4176 47.8822C78.4111 47.7464 78.4079 47.5944 78.4079 47.4263C78.2721 47.6979 78.0522 47.9275 77.7483 48.115C77.4443 48.3025 77.0757 48.3963 76.6425 48.3963ZM76.8268 47.6203C77.0272 47.6203 77.2148 47.5944 77.3894 47.5427C77.5704 47.4845 77.7289 47.4037 77.8647 47.3002C78.0005 47.1903 78.1072 47.0577 78.1848 46.9025C78.2624 46.7473 78.3012 46.5662 78.3012 46.3593V46.0101H76.7783C76.4614 46.0101 76.2124 46.0748 76.0314 46.2041C75.8503 46.327 75.7598 46.5242 75.7598 46.7958C75.7598 47.0351 75.8438 47.2323 76.012 47.3875C76.1866 47.5427 76.4582 47.6203 76.8268 47.6203ZM80.6624 43.1583H81.4578V44.1283C81.5678 43.8244 81.7488 43.5722 82.001 43.3717C82.2597 43.1648 82.5733 43.0613 82.9419 43.0613C83.0713 43.0613 83.1747 43.0678 83.2523 43.0807C83.3364 43.0936 83.4108 43.1098 83.4754 43.1292V43.9246C83.3914 43.8923 83.3073 43.8696 83.2232 43.8567C83.1456 43.8438 83.0357 43.8373 82.8934 43.8373C82.6994 43.8373 82.5184 43.8729 82.3502 43.944C82.1821 44.0151 82.0366 44.1154 81.9137 44.2447C81.7909 44.3676 81.6939 44.5195 81.6227 44.7006C81.5516 44.8817 81.516 45.0789 81.516 45.2923V48.2993H80.6624V43.1583ZM86.1418 48.3963C85.8249 48.3963 85.5339 48.3413 85.2688 48.2314C85.0101 48.1215 84.787 47.9598 84.5995 47.7464C84.412 47.5265 84.2665 47.2549 84.163 46.9316C84.0595 46.6018 84.0078 46.217 84.0078 45.7773V45.5833C84.0078 45.1759 84.0595 44.817 84.163 44.5066C84.2729 44.1897 84.4217 43.9246 84.6092 43.7112C84.7967 43.4978 85.0198 43.3361 85.2785 43.2262C85.5436 43.1163 85.8314 43.0613 86.1418 43.0613C86.5557 43.0613 86.9146 43.1518 87.2185 43.3329C87.5289 43.514 87.7585 43.7629 87.9072 44.0798V41.5093H88.7608V48.2993H87.9654V47.3293C87.8361 47.6462 87.6097 47.9048 87.2864 48.1053C86.9631 48.2993 86.5815 48.3963 86.1418 48.3963ZM86.3358 47.6397C86.5686 47.6397 86.782 47.6009 86.976 47.5233C87.17 47.4457 87.3349 47.339 87.4707 47.2032C87.6065 47.0674 87.7132 46.9025 87.7908 46.7085C87.8684 46.5145 87.9072 46.3011 87.9072 46.0683V45.2923C87.9072 45.0854 87.8684 44.8914 87.7908 44.7103C87.7132 44.5292 87.6065 44.374 87.4707 44.2447C87.3349 44.1089 87.17 44.0054 86.976 43.9343C86.782 43.8567 86.5686 43.8179 86.3358 43.8179C86.1289 43.8179 85.9349 43.8567 85.7538 43.9343C85.5727 44.0119 85.4143 44.1283 85.2785 44.2835C85.1492 44.4322 85.0457 44.6165 84.9681 44.8364C84.897 45.0563 84.8614 45.3052 84.8614 45.5833V45.7773C84.8614 46.0812 84.897 46.3496 84.9681 46.5824C85.0457 46.8152 85.1492 47.0092 85.2785 47.1644C85.4143 47.3196 85.5727 47.4392 85.7538 47.5233C85.9349 47.6009 86.1289 47.6397 86.3358 47.6397Z" fill="white"/>
<defs>
<filter id="filter0_b_25_26" x="-21.4786" y="-21.4786" width="114.321" height="85.2214" filterUnits="userSpaceOnUse" color-interpolation-filters="sRGB">
<feFlood flood-opacity="0" result="BackgroundImageFix"/>
<feGaussianBlur in="BackgroundImageFix" stdDeviation="10.7393"/>
<feComposite in2="SourceAlpha" operator="in" result="effect1_backgroundBlur_25_26"/>
<feBlend mode="normal" in="SourceGraphic" in2="effect1_backgroundBlur_25_26" result="shape"/>
</filter>
<filter id="filter1_b_25_26" x="-9.70001" y="-3.21441" width="114.321" height="85.2214" filterUnits="userSpaceOnUse" color-interpolation-filters="sRGB">
<feFlood flood-opacity="0" result="BackgroundImageFix"/>
<feGaussianBlur in="BackgroundImageFix" stdDeviation="10.7393"/>
<feComposite in2="SourceAlpha" operator="in" result="effect1_backgroundBlur_25_26"/>
<feBlend mode="normal" in="SourceGraphic" in2="effect1_backgroundBlur_25_26" result="shape"/>
</filter>
<filter id="filter2_b_25_26" x="4.15717" y="15.0497" width="114.321" height="85.2214" filterUnits="userSpaceOnUse" color-interpolation-filters="sRGB">
<feFlood flood-opacity="0" result="BackgroundImageFix"/>
<feGaussianBlur in="BackgroundImageFix" stdDeviation="10.7393"/>
<feComposite in2="SourceAlpha" operator="in" result="effect1_backgroundBlur_25_26"/>
<feBlend mode="normal" in="SourceGraphic" in2="effect1_backgroundBlur_25_26" result="shape"/>
</filter>
</defs>
</svg>
