<svg width="102" height="102" viewBox="0 0 102 102" fill="none" xmlns="http://www.w3.org/2000/svg">
<path d="M90.852 20.8596L91.9616 19.75H90.3924H81.6C80.8707 19.75 80.1712 19.4603 79.6555 18.9445C79.1397 18.4288 78.85 17.7293 78.85 17C78.85 16.2707 79.1397 15.5712 79.6555 15.0555C80.1712 14.5397 80.8707 14.25 81.6 14.25H98.6C99.3293 14.25 100.029 14.5397 100.545 15.0555C101.06 15.5712 101.35 16.2707 101.35 17V34C101.35 34.7294 101.06 35.4288 100.545 35.9445C100.029 36.4603 99.3293 36.75 98.6 36.75C97.8707 36.75 97.1712 36.4603 96.6555 35.9445C96.1397 35.4288 95.85 34.7294 95.85 34V25.2076V23.6384L94.7404 24.748L63.1443 56.3441C62.6286 56.8597 61.9292 57.1493 61.2 57.1493C60.4708 57.1493 59.7715 56.8597 59.2558 56.3442C59.2558 56.3442 59.2558 56.3441 59.2557 56.3441L41.2596 38.348L40.8 37.8884L40.3404 38.348L6.34038 72.348L6.15 72.5384V72.8076V95.2V95.85H6.8H17H17.65V95.2V71.4C17.65 70.6707 17.9397 69.9712 18.4555 69.4555C18.9712 68.9397 19.6707 68.65 20.4 68.65C21.1293 68.65 21.8288 68.9397 22.3445 69.4555C22.8603 69.9712 23.15 70.6707 23.15 71.4V95.2V95.85H23.8H37.4H38.05V95.2V54.4C38.05 53.6707 38.3397 52.9712 38.8555 52.4555C39.3712 51.9397 40.0707 51.65 40.8 51.65C41.5293 51.65 42.2288 51.9397 42.7445 52.4555C43.2603 52.9712 43.55 53.6707 43.55 54.4V95.2V95.85H44.2H57.8H58.45V95.2V71.4C58.45 70.6707 58.7397 69.9712 59.2555 69.4555C59.7712 68.9397 60.4707 68.65 61.2 68.65C61.9293 68.65 62.6288 68.9397 63.1445 69.4555C63.6603 69.9712 63.95 70.6707 63.95 71.4V95.2V95.85H64.6H78.2H78.85V95.2V54.4C78.85 53.6707 79.1397 52.9712 79.6555 52.4555C80.1712 51.9397 80.8707 51.65 81.6 51.65C82.3294 51.65 83.0288 51.9397 83.5445 52.4555C84.0603 52.9712 84.35 53.6707 84.35 54.4V95.2V95.85H85H98.6C99.3294 95.85 100.029 96.1397 100.545 96.6555C101.06 97.1712 101.35 97.8707 101.35 98.6C101.35 99.3294 101.06 100.029 100.545 100.545C100.029 101.06 99.3294 101.35 98.6 101.35H3.4C2.67065 101.35 1.97118 101.06 1.45546 100.545C0.939732 100.029 0.65 99.3294 0.65 98.6V3.4C0.65 2.67065 0.939731 1.97118 1.45546 1.45546C1.97118 0.939731 2.67065 0.65 3.4 0.65C4.12935 0.65 4.82882 0.939731 5.34454 1.45546C5.86027 1.97118 6.15 2.67065 6.15 3.4V63.1924V64.7616L7.25962 63.652L38.8558 32.0559C38.8558 32.0559 38.8558 32.0558 38.8558 32.0558C39.3715 31.5403 40.0708 31.2507 40.8 31.2507C41.5292 31.2507 42.2285 31.5403 42.7442 32.0558C42.7442 32.0558 42.7442 32.0559 42.7443 32.0559L60.7404 50.052L61.2 50.5116L61.6596 50.052L90.852 20.8596Z" fill="#18D6C5" stroke="#131415" stroke-width="1.3"/>
</svg>
