<svg width="105" height="102" viewBox="0 0 105 102" fill="none" xmlns="http://www.w3.org/2000/svg">
<path d="M46.6009 86.5755C45.3202 86.5755 44.0114 86.0408 42.9841 85.0134L19.0593 61.1027C17.3142 59.3576 16.9905 56.7681 18.2993 54.9667L20.2414 52.3068L36.4399 30.0286L39.4516 25.877C45.9958 16.87 54.9042 9.76291 65.22 5.34386C75.5218 0.924808 87.1183 -0.806221 98.771 0.347798L100.319 0.502604C102.036 0.671485 103.415 2.05068 103.584 3.76763L103.809 6.04753C104.949 17.4751 103.246 28.8464 98.9118 38.9511C94.5631 49.0699 87.6108 57.8095 78.7868 64.2129L49.1201 85.7734C48.3742 86.3082 47.4875 86.5755 46.6009 86.5755ZM21.7332 57.4295C21.7191 57.514 21.7473 57.8236 22.0569 58.1191L45.9676 82.0298C46.2632 82.3254 46.5728 82.3676 46.6572 82.3535L49.303 80.4255L76.3099 60.8071C93.0713 48.6196 101.783 28.3117 99.6154 6.46973L99.4325 4.66833L98.3629 4.55575C76.0425 2.33215 55.3124 11.2265 42.8715 28.3398L39.8598 32.4915L21.7332 57.4295Z" fill="#18D6C5"/>
<path d="M58.7603 102C58.5633 102 58.3803 101.986 58.1833 101.944C57.1841 101.747 56.3538 101.085 55.9597 100.142L48.5993 82.9446C48.2053 82.0439 48.5008 80.9884 49.303 80.4114L71.5812 64.227C72.116 63.8329 72.8196 63.7203 73.4529 63.9174C74.0862 64.1144 74.5929 64.607 74.8181 65.2403L78.252 75.2746C79.5608 79.1307 78.5616 83.4653 75.6765 86.3504L60.9135 101.113C60.3365 101.69 59.5625 102 58.7603 102ZM53.145 82.8461L59.1544 96.9054L72.693 83.3668C74.4381 81.6217 75.0573 78.99 74.2551 76.6538L71.7501 69.3356L53.145 82.8461Z" fill="#18D6C5"/>
<path d="M21.9584 55.6563C21.6769 55.6563 21.3954 55.6 21.128 55.4874L3.93034 48.127C3.0015 47.7329 2.32597 46.8885 2.12895 45.8893C1.93192 44.8901 2.25561 43.8768 2.97335 43.1591L17.7364 28.3961C20.6073 25.5251 24.956 24.5118 28.8121 25.8347L38.8465 29.2686C39.4798 29.4797 39.9723 29.9864 40.1694 30.6338C40.3664 31.2671 40.2538 31.9707 39.8597 32.5055L23.6613 54.7837C23.2531 55.3326 22.6058 55.6563 21.9584 55.6563ZM7.1813 44.9183L21.2406 50.9276L34.7652 32.3226L27.447 29.8175C25.1108 29.0153 22.465 29.6346 20.7199 31.3797L7.1813 44.9183Z" fill="#18D6C5"/>
<path d="M33.3016 89.925C32.5275 89.925 31.7535 89.6295 31.1624 89.0384L15.1046 72.9947C13.9225 71.8126 13.9225 69.8845 15.1046 68.7023L22.3665 61.4405C22.7606 61.0464 23.2954 60.8212 23.8583 60.8212C24.4212 60.8212 24.956 61.0464 25.3501 61.4405L42.7026 78.793C43.0966 79.187 43.3218 79.7218 43.3218 80.2847C43.3218 80.8477 43.0966 81.3825 42.7026 81.7765L35.4407 89.0384C34.8637 89.6295 34.0897 89.925 33.3016 89.925ZM18.9326 70.8415L33.3016 85.2104L38.2272 80.2847L23.8724 65.9017L18.9326 70.8415Z" fill="#18D6C5"/>
<path d="M62.3068 52.9964C56.1145 52.9964 51.0762 47.9581 51.0762 41.7658C51.0762 35.5735 56.1145 30.5352 62.3068 30.5352C68.4991 30.5352 73.5374 35.5735 73.5374 41.7658C73.5374 47.9581 68.4991 52.9964 62.3068 52.9964ZM62.3068 34.7572C58.4366 34.7572 55.2982 37.9097 55.2982 41.7658C55.2982 45.6219 58.4507 48.7743 62.3068 48.7743C66.1629 48.7743 69.3154 45.6219 69.3154 41.7658C69.3154 37.9097 66.177 34.7572 62.3068 34.7572Z" fill="#18D6C5"/>
<path d="M12.3098 79.7137L0 92.0235L2.98539 95.0089L15.2952 82.6991L12.3098 79.7137Z" fill="#18D6C5"/>
<path d="M21.3711 88.7797L13.4498 96.7009L16.4352 99.6863L24.3565 91.7651L21.3711 88.7797Z" fill="#18D6C5"/>
</svg>
