<svg width="102" height="102" viewBox="0 0 102 102" fill="none" xmlns="http://www.w3.org/2000/svg">
<path d="M51 102C22.8969 102 0 79.1297 0 51C0 22.8703 22.8969 0 51 0C79.1031 0 102 22.8703 102 51C102 79.1297 79.1297 102 51 102ZM51 3.74531C24.9422 3.74531 3.71875 24.9422 3.71875 51.0266C3.71875 77.1109 24.9156 98.3078 51 98.3078C77.0844 98.3078 98.2812 77.1109 98.2812 51.0266C98.2812 24.9422 77.0844 3.74531 51 3.74531Z" fill="#18D6C5"/>
<path d="M35.9656 75.9953C35.5938 75.9953 35.1953 75.8625 34.8766 75.65C34.3188 75.225 34.0266 74.5344 34.1328 73.8437L36.8422 58.0656L25.3672 46.8828C24.8625 46.3781 24.6766 45.6609 24.8891 44.9703C25.1016 44.3062 25.6859 43.8016 26.3766 43.6953L42.2344 41.3844L49.3266 27.0141C49.9641 25.7391 52.0359 25.7391 52.6469 27.0141L59.7391 41.3844L75.5969 43.6953C76.2875 43.8016 76.8719 44.2797 77.0844 44.9703C77.2969 45.6609 77.1109 46.3781 76.6063 46.8828L65.1313 58.0656L67.8406 73.8437C67.9469 74.5344 67.6812 75.2516 67.0969 75.65C66.5125 76.075 65.7688 76.1281 65.1313 75.7828L50.9469 68.3187L36.7625 75.7828C36.4969 75.9156 36.2047 75.9953 35.9125 75.9953H35.9656ZM51 64.3875C51.2922 64.3875 51.5844 64.4672 51.85 64.6L63.5641 70.7625L61.3328 57.7203C61.2266 57.1094 61.4391 56.4984 61.8641 56.0734L71.3469 46.8297L58.2516 44.9172C57.6406 44.8375 57.1359 44.4391 56.8437 43.9078L51 32.0344L45.1562 43.9078C44.8906 44.4656 44.3594 44.8375 43.7484 44.9172L30.6531 46.8297L40.1359 56.0734C40.5609 56.4984 40.7734 57.1094 40.6672 57.7203L38.4359 70.7625L50.15 64.6C50.4156 64.4672 50.7078 64.3875 51 64.3875Z" fill="#18D6C5"/>
<path d="M51 93.3672C27.6516 93.3672 8.63284 74.3484 8.63284 51C8.63284 27.6516 27.6516 8.63281 51 8.63281C74.3485 8.63281 93.3672 27.6516 93.3672 51C93.3672 74.3484 74.3485 93.3672 51 93.3672ZM51 12.3516C29.6969 12.3516 12.3516 29.6969 12.3516 51C12.3516 72.3031 29.6969 89.6484 51 89.6484C72.3032 89.6484 89.6485 72.3031 89.6485 51C89.6485 29.6969 72.3032 12.3516 51 12.3516Z" fill="#18D6C5"/>
</svg>
