<svg width="9" height="80" viewBox="0 0 9 80" fill="none" xmlns="http://www.w3.org/2000/svg">
<path d="M4.14644 79.3536C4.34171 79.5488 4.65829 79.5488 4.85355 79.3536L8.03553 76.1716C8.23079 75.9763 8.23079 75.6597 8.03553 75.4645C7.84027 75.2692 7.52369 75.2692 7.32842 75.4645L4.5 78.2929L1.67157 75.4645C1.47631 75.2692 1.15973 75.2692 0.964463 75.4645C0.769201 75.6597 0.769201 75.9763 0.964463 76.1716L4.14644 79.3536ZM4 -2.21359e-08L4 79L5 79L5 2.21359e-08L4 -2.21359e-08Z" fill="url(#paint0_linear_558_474)"/>
<defs>
<linearGradient id="paint0_linear_558_474" x1="3.5" y1="-2.21359e-08" x2="3.5" y2="79" gradientUnits="userSpaceOnUse">
<stop stop-color="#18D6C5"/>
<stop offset="1" stop-color="#18A7C5"/>
</linearGradient>
</defs>
</svg>
