<svg width="58" height="78" viewBox="0 0 58 78" fill="none" xmlns="http://www.w3.org/2000/svg">
<path d="M47.6823 28.0583C47.1451 27.5783 46.3246 27.6253 45.8458 28.1599C45.367 28.6959 45.4127 29.5176 45.9474 29.9964C51.4607 34.9268 54.6218 41.9946 54.6218 49.3875C54.6218 56.5862 51.7477 63.2831 46.5304 68.2427C41.3143 73.2009 34.4573 75.7436 27.2561 75.3638C13.9181 74.6881 3.09472 63.6972 2.61719 50.3413C2.34032 42.5826 5.49385 35.1681 11.2713 29.999C11.806 29.5202 11.8517 28.6984 11.3729 28.1625C10.8941 27.6278 10.0724 27.5821 9.53641 28.0609C3.18236 33.7469 -0.287413 41.9019 0.0186687 50.4353C0.543199 65.1272 12.4499 77.2181 27.124 77.9623C27.627 77.9877 28.1286 78.0004 28.6278 78.0004C36.0055 78.0004 42.9501 75.2355 48.3224 70.1287C54.0617 64.6713 57.2229 57.3063 57.2229 49.3875C57.2229 41.2554 53.7455 33.4814 47.6823 28.0583Z" fill="#18D6C5"/>
<path d="M38.5319 39.4681C37.9077 38.844 36.8966 38.844 36.2724 39.4681L18.4681 57.2724C17.844 57.8966 17.844 58.9077 18.4681 59.5319C18.7802 59.844 19.189 60 19.5979 60C20.0067 60 20.4155 59.844 20.7276 59.5319L38.5319 41.7276C39.156 41.1034 39.156 40.0923 38.5319 39.4681Z" fill="#18D6C5"/>
<path d="M23.9992 47C27.3084 47 30 44.3084 30 41.0008C30 37.6916 27.3084 35 23.9992 35C20.6916 35 18 37.6916 18 41.0008C18 44.3084 20.6916 47 23.9992 47ZM23.9992 38.1699C25.5609 38.1699 26.8301 39.4391 26.8301 41.0008C26.8301 42.5609 25.5609 43.8301 23.9992 43.8301C22.4391 43.8301 21.1699 42.5609 21.1699 41.0008C21.1699 39.4391 22.4391 38.1699 23.9992 38.1699Z" fill="#18D6C5"/>
<path d="M39 57.9992C39 54.6916 36.3084 52 33.0008 52C29.6916 52 27 54.6916 27 57.9992C27 61.3084 29.6916 64 33.0008 64C36.3084 64 39 61.3084 39 57.9992ZM33.0008 60.8301C31.4391 60.8301 30.1699 59.5609 30.1699 57.9992C30.1699 56.4391 31.4391 55.1699 33.0008 55.1699C34.5609 55.1699 35.8301 56.4391 35.8301 57.9992C35.8301 59.5609 34.5609 60.8301 33.0008 60.8301Z" fill="#18D6C5"/>
<path d="M15.7771 19.4749H14.3054C13.5866 19.4749 13.0049 20.0566 13.0049 20.7754V27.2781C13.0049 27.9969 13.5866 28.5786 14.3054 28.5786H42.917C43.6359 28.5786 44.2176 27.9969 44.2176 27.2781V20.7754C44.2176 20.0566 43.6359 19.4749 42.917 19.4749H41.4454L47.9401 8.42931C48.2017 7.98352 48.175 7.4247 47.8702 7.00559C47.5667 6.58774 47.0498 6.39215 46.5379 6.50011L35.6003 8.91447L29.6743 0.51818C29.1866 -0.172727 28.0359 -0.172727 27.5482 0.51818L21.6222 8.91447L10.6845 6.50011C10.1739 6.38961 9.65576 6.58647 9.35222 7.00559C9.0474 7.4247 9.02073 7.98352 9.28236 8.42931L15.7771 19.4749ZM41.6165 25.9776H15.6059V22.076H18.0508H39.1717H41.6165V25.9776ZM21.9054 11.6413C22.4223 11.753 22.9468 11.5485 23.2491 11.1205L28.6112 3.52311L33.9734 11.1205C34.2756 11.5485 34.8002 11.753 35.3171 11.6413L44.1846 9.68285L38.4274 19.4749H18.795L13.0379 9.68285L21.9054 11.6413Z" fill="#18D6C5"/>
</svg>
