<svg width="78" height="78" viewBox="0 0 78 78" fill="none" xmlns="http://www.w3.org/2000/svg">
<mask id="path-1-inside-1_711_905" fill="white">
<path fill-rule="evenodd" clip-rule="evenodd" d="M12.1862 24.3725C9.77604 24.3725 7.41995 23.6578 5.41593 22.3187C3.41192 20.9797 1.84998 19.0765 0.927628 16.8497C0.00528085 14.623 -0.236048 12.1727 0.23416 9.80883C0.704369 7.44493 1.865 5.27355 3.56927 3.56927C5.27355 1.865 7.44493 0.704369 9.80883 0.23416C12.1727 -0.236048 14.623 0.00528084 16.8497 0.927628C19.0765 1.84998 20.9797 3.41192 22.3187 5.41593C23.6578 7.41995 24.3725 9.77603 24.3725 12.1862C24.3725 14.858 23.4951 17.4393 21.8999 19.5449L25.1302 22.7752C27.9046 20.3718 31.263 18.7242 34.8802 18.0062C38.9921 17.19 43.2537 17.6115 47.126 19.2176C49.2229 20.0873 51.1546 21.2832 52.8546 22.7507L56.083 19.5223C55.468 18.7066 54.9548 17.8125 54.5589 16.8589C53.6345 14.6324 53.3913 12.1818 53.86 9.81699C54.3287 7.45221 55.4883 5.27959 57.192 3.57398C58.8958 1.86837 61.0671 0.706424 63.4314 0.235136C65.7956 -0.236152 68.2466 0.0043978 70.4741 0.926353C72.7016 1.84831 74.6056 3.41024 75.9452 5.41455C77.2849 7.41885 77.9999 9.77546 77.9999 12.1862C77.9964 15.4148 76.7132 18.5104 74.4315 20.7946C72.1497 23.0789 69.0556 24.3654 65.827 24.3725C63.4162 24.3751 61.0588 23.6626 59.0531 22.3252C58.7645 22.1328 58.4851 21.9287 58.2154 21.7136L55.0189 24.9101C55.5991 25.5794 56.139 26.2868 56.6343 27.029C58.9614 30.5159 60.2021 34.6147 60.1995 38.8068C60.1931 43.9117 58.3462 48.8248 55.0272 52.6589L58.4623 56.0941C59.9255 54.9873 61.6259 54.2207 63.4395 53.8605C65.8047 53.3907 68.256 53.6331 70.4833 54.5571C72.7106 55.4811 74.6137 57.0451 75.9517 59.0512C77.2897 61.0572 78.0025 63.4152 77.9999 65.8265C77.9964 69.0539 76.7128 72.1481 74.4307 74.4302C72.16 76.7009 69.0853 77.983 65.8754 77.9993L65.827 77.9995L65.7775 77.9994C63.3834 77.9923 61.044 77.2801 59.0517 75.9512C57.0456 74.6132 55.4816 72.7101 54.5576 70.4828C53.6336 68.2555 53.3912 65.8042 53.861 63.439C54.2404 61.5288 55.0707 59.7441 56.2744 58.2299L52.8648 54.8203C49.0282 58.1385 44.1128 59.9832 39.0066 59.9864C34.8145 59.9864 30.7165 58.7431 27.2311 56.4138C26.4901 55.9186 25.7839 55.3791 25.1158 54.7992L21.7076 58.2074C21.9249 58.4794 22.131 58.7613 22.3252 59.0526C23.6626 61.0583 24.3751 63.4157 24.3725 65.8265C24.3725 67.4262 24.0572 69.0102 23.4446 70.488C22.9694 71.6343 22.3226 72.6992 21.5281 73.6469C21.4751 73.7428 21.4118 73.8329 21.3392 73.9157C20.1877 75.2032 18.7769 76.2327 17.1995 76.9366C15.622 77.6404 13.9136 78.0028 12.1862 78C11.931 77.9998 11.6762 77.9916 11.4221 77.9755C9.28004 77.8409 7.20649 77.1424 5.41455 75.9448C3.41024 74.6051 1.84831 72.7011 0.926353 70.4736C0.0043978 68.2461 -0.236152 65.7951 0.235136 63.4309C0.706424 61.0666 1.86837 58.8953 3.57398 57.1915C5.27959 55.4878 7.45221 54.3282 9.81699 53.8595C12.1818 53.3908 14.6324 53.634 16.8589 54.5584C17.8095 54.953 18.701 55.4643 19.5146 56.0767L22.9573 52.634C21.4899 50.9324 20.2945 48.999 19.4257 46.9006C17.822 43.0273 17.4031 38.7654 18.2219 34.6541C18.9401 31.0478 20.5823 27.6995 22.976 24.9314L19.7885 21.7439C18.9955 22.3686 18.1262 22.8946 17.1994 23.3081C15.7849 23.9393 14.265 24.2959 12.7206 24.3608C12.543 24.3686 12.3648 24.3725 12.1862 24.3725ZM26.3513 51.7652C26.3008 51.6938 26.2441 51.6267 26.1818 51.5647C26.1219 51.5041 26.057 51.4489 25.9881 51.3994C25.9728 51.3836 25.9576 51.3677 25.9423 51.3518C26.2015 49.7976 26.8948 48.3484 27.9423 47.1714C28.9782 46.0075 30.3187 45.1567 31.812 44.7147C32.0116 45.0882 32.2384 45.4459 32.4902 45.785C33.0954 46.6626 33.8742 47.4125 34.7832 47.9859C35.8304 48.6466 37.0148 49.0504 38.2402 49.1696C38.4938 49.2033 38.7495 49.2257 39.0066 49.2366C39.2712 49.2257 39.5342 49.2025 39.7951 49.1674C41.0126 49.0456 42.1891 48.6426 43.2301 47.9859C44.1219 47.4233 44.8886 46.6906 45.4888 45.8342C45.7549 45.4807 45.9936 45.1066 46.2024 44.7151C47.6953 45.1572 49.0353 46.0078 50.0709 47.1714C51.1184 48.3484 51.8118 49.7976 52.0709 51.3518C50.3821 53.1145 48.354 54.5171 46.1088 55.4753C43.8636 56.4336 41.4477 56.9275 39.0066 56.9275C36.5655 56.9275 34.1496 56.4336 31.9044 55.4753C29.8377 54.5933 27.9549 53.3346 26.3513 51.7652ZM18.2888 59.0405C17.5202 58.3493 16.6388 57.7929 15.6818 57.3961C14.5737 56.9366 13.3859 56.7001 12.1862 56.7001V56.7134C10.3812 56.7134 8.61672 57.2487 7.11589 58.2515C5.61507 59.2543 4.44532 60.6797 3.75457 62.3473C3.06381 64.0149 2.88308 65.8499 3.23522 67.6203C3.3674 68.2847 3.57241 68.9289 3.84446 69.5419C4.05459 69.2294 4.29104 68.933 4.55226 68.6563C5.2165 67.9528 6.01677 67.4017 6.89756 67.0323C6.83998 66.6695 6.81107 66.3019 6.81153 65.9328C6.81153 62.4871 9.21951 59.6934 12.133 59.6934C15.0466 59.6934 17.521 62.4871 17.521 65.9328C17.5204 66.2934 17.4921 66.6525 17.4369 67.0072C18.3376 67.3708 19.1572 67.9235 19.8369 68.6353C20.097 68.9078 20.333 69.1997 20.5431 69.5076C21.0483 68.3566 21.3126 67.1082 21.3126 65.8398C21.3144 64.6402 21.0796 63.452 20.6217 62.3432C20.1843 61.2838 19.5514 60.3168 18.7566 59.4924C18.7493 59.4879 18.7421 59.4833 18.7349 59.4787C18.5567 59.3643 18.4051 59.2148 18.2888 59.0405ZM39.0066 20.6738C43.7702 20.6807 48.3385 22.5591 51.7285 25.9009C51.7777 25.9578 51.8312 26.0112 51.8884 26.0605C55.2452 29.4529 57.1326 34.0317 57.1396 38.8068C57.1396 42.205 56.1848 45.5309 54.3896 48.4074C53.8643 47.1271 53.1064 45.9443 52.1446 44.9228C50.8058 43.5011 49.1313 42.455 47.2881 41.872C47.528 40.9378 47.6516 39.9751 47.6541 39.006C47.6541 33.3652 43.7694 28.7754 39.0066 28.7754C34.2439 28.7754 30.3592 33.3652 30.3592 39.006C30.3617 39.9751 30.4852 40.9376 30.7251 41.8718C28.8838 42.454 27.2108 43.4983 25.8725 44.9177C24.9086 45.9399 24.1492 47.1242 23.623 48.4063C22.4689 46.5568 21.6517 44.5046 21.222 42.3444C20.5223 38.8269 20.8814 35.181 22.2539 31.8676C23.1177 29.7822 24.3584 27.8876 25.9029 26.2729C25.9271 26.2585 25.951 26.2436 25.9744 26.2279C26.1687 26.0982 26.3301 25.9268 26.4475 25.7272C27.2121 24.993 28.043 24.324 28.9324 23.7297C31.9144 21.7372 35.4202 20.6738 39.0066 20.6738ZM59.5429 18.6371C59.6038 18.7275 59.6551 18.8243 59.6956 18.926C61.39 20.4053 63.5654 21.2234 65.8203 21.2234C68.1596 21.2234 70.4132 20.343 72.133 18.7574C71.9843 18.2058 71.7151 17.6942 71.3447 17.2593C70.9816 16.8331 70.5301 16.491 70.0217 16.2569C69.8551 16.4973 69.6689 16.7239 69.4648 16.934C69.1033 17.3306 68.6781 17.6668 68.2049 17.9279C67.5209 18.3053 66.7575 18.5141 65.9781 18.5381C65.9278 18.5412 65.8774 18.5436 65.827 18.5453C65.7721 18.5436 65.7174 18.541 65.6627 18.5376C64.8879 18.5118 64.1292 18.3032 63.4491 17.9279C63.0643 17.7156 62.7112 17.4536 62.3983 17.1499C62.107 16.8829 61.8468 16.5848 61.6223 16.2615C61.1165 16.4955 60.6668 16.8356 60.3039 17.259C59.9586 17.6619 59.6997 18.131 59.5429 18.6371ZM18.2392 18.9937C16.5564 20.4303 14.4132 21.2234 12.1929 21.2234C9.8536 21.2234 7.60003 20.343 5.88023 18.7574C6.03364 18.2002 6.31066 17.6848 6.6907 17.2495C7.05359 16.8339 7.50148 16.5014 8.00375 16.2744C8.34256 16.7594 8.7617 17.1871 9.24614 17.5378C9.32947 17.5981 9.41436 17.6558 9.50069 17.711C9.61623 17.7884 9.73526 17.861 9.85751 17.9286C10.5195 18.2946 11.2562 18.5022 12.0099 18.5364C12.0685 18.5404 12.1273 18.5433 12.1862 18.5453C12.2201 18.5443 12.2539 18.5429 12.2877 18.5412C13.0996 18.5321 13.8969 18.3218 14.608 17.9286C15.2563 17.5702 15.8141 17.0702 16.2405 16.4673C16.2957 16.3955 16.349 16.3223 16.4004 16.2477C16.9111 16.4867 17.3637 16.834 17.7268 17.2655C18.053 17.6533 18.2998 18.1006 18.4539 18.5821C18.3747 18.69 18.3099 18.808 18.2612 18.9333C18.2534 18.9533 18.2461 18.9734 18.2392 18.9937ZM21.3126 12.2129C21.3126 13.4797 21.0489 14.7266 20.545 15.8764C20.3347 15.5675 20.0985 15.2747 19.838 15.0013C19.1638 14.2936 18.3515 13.7424 17.4586 13.377C17.5058 13.0273 17.5268 12.6737 17.521 12.3192C17.521 8.8735 15.0465 6.06641 12.133 6.06641C9.2195 6.06641 6.81152 8.8735 6.81152 12.3192C6.81164 12.68 6.83961 13.0395 6.89479 13.3943C6.01438 13.7655 5.21468 14.3178 4.551 15.0223C4.28948 15.2999 4.05281 15.5972 3.84255 15.9106C3.57146 15.2989 3.36709 14.6562 3.23523 13.9933C2.88309 12.223 3.06382 10.388 3.75457 8.72034C4.44533 7.05271 5.61508 5.62737 7.1159 4.62455C8.61673 3.62173 10.3812 3.08648 12.1862 3.08648C14.6067 3.08648 16.928 4.048 18.6396 5.75953C20.3511 7.47106 21.3126 9.79239 21.3126 12.2129ZM14.2393 13.7065C14.4097 13.2595 14.4986 12.7851 14.5011 12.3059C14.5144 10.5764 13.4501 9.11297 12.1862 9.11297C10.9357 9.11297 9.87139 10.5764 9.87139 12.3059C9.87201 12.8366 9.98065 13.3617 10.1907 13.8491C10.3146 14.2828 10.5763 14.6643 10.9364 14.9359C11.2605 15.1803 11.6482 15.3238 12.0513 15.3501C12.0917 15.3524 12.1323 15.3536 12.1729 15.3536C12.6239 15.3536 13.0627 15.2067 13.4227 14.9351C13.7828 14.6635 14.0446 14.282 14.1685 13.8483C14.1897 13.7997 14.2134 13.7524 14.2393 13.7065ZM12.1862 72.1723L12.15 72.1709C11.349 72.1574 10.563 71.9486 9.86035 71.5621C9.63869 71.4402 9.42752 71.3018 9.22847 71.1484C8.75661 70.8031 8.3475 70.3844 8.01517 69.9108C7.50722 70.1364 7.05438 70.4702 6.68852 70.8893C6.30826 71.3249 6.03189 71.8411 5.88026 72.3991C7.60007 73.9848 9.85364 74.8651 12.1929 74.8651C14.5321 74.8651 16.7857 73.9848 18.5055 72.3991C18.3606 71.8497 18.0958 71.3393 17.73 70.9045C17.3643 70.4698 16.9067 70.1215 16.3902 69.8847C15.9461 70.5853 15.3321 71.1623 14.6053 71.5621C13.8784 71.962 13.0623 72.1716 12.2328 72.1716L12.2038 72.1715L12.1862 72.1723ZM14.1685 67.49C14.191 67.4357 14.2165 67.383 14.2449 67.3321C14.4132 66.8852 14.5002 66.4113 14.5011 65.9328C14.5144 64.2033 13.4501 62.7532 12.1862 62.7532C10.9357 62.7532 9.87139 64.2033 9.87139 65.9328C9.87242 66.4678 9.981 66.9972 10.1907 67.4894C10.2431 67.6728 10.3202 67.8469 10.4189 68.0073C10.555 68.2179 10.7288 68.4035 10.9331 68.5542C11.2922 68.8191 11.7267 68.962 12.1729 68.962C12.6192 68.962 13.0537 68.8191 13.4128 68.5542C13.7719 68.2893 14.0367 67.9164 14.1685 67.49ZM62.1785 70.5585C61.9791 70.353 61.7969 70.1319 61.6334 69.8975C61.1215 70.1293 60.6666 70.4706 60.3007 70.8975C59.9278 71.3326 59.6569 71.8454 59.5077 72.3986C61.2275 73.9843 63.4811 74.8647 65.8203 74.8647C68.1596 74.8647 70.4132 73.9843 72.133 72.3986C71.9861 71.8463 71.7175 71.3339 71.3469 70.8988C70.9762 70.4637 70.513 70.1171 69.9911 69.8842C69.5453 70.5848 68.93 71.1615 68.2021 71.5611C67.4848 71.9548 66.681 72.164 65.8631 72.17L65.827 72.1723C65.8042 72.1715 65.7815 72.1707 65.7587 72.1696C64.9519 72.1585 64.1598 71.9497 63.4519 71.5611C62.9734 71.2984 62.5435 70.9591 62.1785 70.5585ZM60.439 65.9328C60.4385 66.3039 60.4677 66.6736 60.526 67.0383C59.6518 67.408 58.8578 67.9572 58.1985 68.6571C57.9295 68.9427 57.6869 69.2492 57.4724 69.5727C57.1919 68.947 56.9814 68.2885 56.8471 67.6088C56.4969 65.8363 56.6806 63.9998 57.3751 62.3319C57.7937 61.3265 58.3865 60.4096 59.1209 59.6208C59.1749 59.5946 59.2275 59.5651 59.2784 59.5324C59.5011 59.3894 59.6823 59.1915 59.805 58.9589C60.1023 58.6998 60.4172 58.4594 60.748 58.2395C62.2526 57.2393 64.0203 56.7082 65.827 56.7134V56.7001C68.2418 56.7107 70.5542 57.6764 72.2592 59.3864C73.9643 61.0964 74.9233 63.4117 74.9268 65.8265C74.9286 67.1102 74.6597 68.3738 74.1444 69.5369C73.9358 69.2265 73.7012 68.9321 73.4422 68.6571C72.753 67.9255 71.9167 67.3586 70.9955 66.9892C71.0506 66.6406 71.0796 66.2874 71.082 65.9328C71.082 62.4871 68.6607 59.6934 65.7605 59.6934C62.8603 59.6934 60.439 62.4871 60.439 65.9328ZM63.4988 65.9328C63.4998 66.4578 63.6044 66.9772 63.8064 67.4615L63.8155 67.4831L63.8181 67.4894L63.8191 67.4928C63.9512 67.9178 64.2156 68.2895 64.5738 68.5537C64.9329 68.8186 65.3674 68.9615 65.8137 68.9615C66.2599 68.9615 66.6944 68.8186 67.0535 68.5537C67.412 68.2893 67.6765 67.9173 67.8085 67.4919L67.8092 67.4894L67.8125 67.482L67.8175 67.4703C68.0264 66.9844 68.1367 66.4618 68.1418 65.9328C68.1552 64.2033 67.0775 62.7532 65.827 62.7532C64.4966 62.7532 63.4988 64.2033 63.4988 65.9328ZM60.5233 13.4009C60.4674 13.0439 60.4391 12.6822 60.439 12.3192C60.439 8.8735 62.8602 6.06641 65.7605 6.06641C68.6607 6.06641 71.082 8.8735 71.082 12.3192C71.0956 12.6722 71.0827 13.0248 71.0438 13.3743C71.9432 13.7455 72.7599 14.305 73.4356 15.0223C73.6971 15.2999 73.9338 15.5972 74.1441 15.9107C74.6615 14.7432 74.9305 13.4747 74.9268 12.1862C74.9163 9.77606 73.9542 7.4676 72.2499 5.76333C70.5456 4.05907 68.2372 3.09697 65.827 3.08647C64.0197 3.08121 62.2515 3.61266 60.7467 4.61345C59.2418 5.61424 58.0679 7.03932 57.3738 8.70802C56.6798 10.3767 56.4968 12.2139 56.8481 13.9868C56.9822 14.6633 57.1917 15.3188 57.4706 15.9418C57.6852 15.6173 57.928 15.31 58.1973 15.0235C58.856 14.3226 59.6495 13.7722 60.5233 13.4009ZM63.8096 13.8291C63.6051 13.3473 63.4994 12.8294 63.4988 12.3059C63.4988 10.5764 64.4966 9.11297 65.827 9.11297C67.0775 9.11297 68.1551 10.5764 68.1418 12.3059C68.1349 12.8305 68.0246 13.3486 67.8173 13.8304L67.8092 13.8483C67.6854 14.282 67.4236 14.6635 67.0635 14.9351C66.7034 15.2067 66.2647 15.3536 65.8137 15.3536C65.3627 15.3536 64.9239 15.2067 64.5638 14.9351C64.2038 14.6635 63.942 14.282 63.8181 13.8483L63.8096 13.8291ZM35.9871 45.0164C36.8445 45.6846 37.8788 46.0866 38.9618 46.1733L39.0066 46.1767C40.1043 46.0987 41.1541 45.6968 42.0232 45.0218C42.7837 44.4313 43.376 43.6549 43.7449 42.7705C43.7975 42.6442 43.8457 42.5157 43.8891 42.3851L43.8891 42.3851L43.8936 42.3746C44.3504 41.31 44.5887 40.1645 44.5942 39.006C44.5942 35.0149 42.0931 31.8353 39.0066 31.8353C35.9335 31.8353 33.4191 35.0548 33.4191 39.006C33.4231 40.1642 33.663 41.3094 34.1242 42.3718C34.4694 43.4185 35.1178 44.3389 35.9871 45.0164Z"/>
</mask>
<path fill-rule="evenodd" clip-rule="evenodd" d="M12.1862 24.3725C9.77604 24.3725 7.41995 23.6578 5.41593 22.3187C3.41192 20.9797 1.84998 19.0765 0.927628 16.8497C0.00528085 14.623 -0.236048 12.1727 0.23416 9.80883C0.704369 7.44493 1.865 5.27355 3.56927 3.56927C5.27355 1.865 7.44493 0.704369 9.80883 0.23416C12.1727 -0.236048 14.623 0.00528084 16.8497 0.927628C19.0765 1.84998 20.9797 3.41192 22.3187 5.41593C23.6578 7.41995 24.3725 9.77603 24.3725 12.1862C24.3725 14.858 23.4951 17.4393 21.8999 19.5449L25.1302 22.7752C27.9046 20.3718 31.263 18.7242 34.8802 18.0062C38.9921 17.19 43.2537 17.6115 47.126 19.2176C49.2229 20.0873 51.1546 21.2832 52.8546 22.7507L56.083 19.5223C55.468 18.7066 54.9548 17.8125 54.5589 16.8589C53.6345 14.6324 53.3913 12.1818 53.86 9.81699C54.3287 7.45221 55.4883 5.27959 57.192 3.57398C58.8958 1.86837 61.0671 0.706424 63.4314 0.235136C65.7956 -0.236152 68.2466 0.0043978 70.4741 0.926353C72.7016 1.84831 74.6056 3.41024 75.9452 5.41455C77.2849 7.41885 77.9999 9.77546 77.9999 12.1862C77.9964 15.4148 76.7132 18.5104 74.4315 20.7946C72.1497 23.0789 69.0556 24.3654 65.827 24.3725C63.4162 24.3751 61.0588 23.6626 59.0531 22.3252C58.7645 22.1328 58.4851 21.9287 58.2154 21.7136L55.0189 24.9101C55.5991 25.5794 56.139 26.2868 56.6343 27.029C58.9614 30.5159 60.2021 34.6147 60.1995 38.8068C60.1931 43.9117 58.3462 48.8248 55.0272 52.6589L58.4623 56.0941C59.9255 54.9873 61.6259 54.2207 63.4395 53.8605C65.8047 53.3907 68.256 53.6331 70.4833 54.5571C72.7106 55.4811 74.6137 57.0451 75.9517 59.0512C77.2897 61.0572 78.0025 63.4152 77.9999 65.8265C77.9964 69.0539 76.7128 72.1481 74.4307 74.4302C72.16 76.7009 69.0853 77.983 65.8754 77.9993L65.827 77.9995L65.7775 77.9994C63.3834 77.9923 61.044 77.2801 59.0517 75.9512C57.0456 74.6132 55.4816 72.7101 54.5576 70.4828C53.6336 68.2555 53.3912 65.8042 53.861 63.439C54.2404 61.5288 55.0707 59.7441 56.2744 58.2299L52.8648 54.8203C49.0282 58.1385 44.1128 59.9832 39.0066 59.9864C34.8145 59.9864 30.7165 58.7431 27.2311 56.4138C26.4901 55.9186 25.7839 55.3791 25.1158 54.7992L21.7076 58.2074C21.9249 58.4794 22.131 58.7613 22.3252 59.0526C23.6626 61.0583 24.3751 63.4157 24.3725 65.8265C24.3725 67.4262 24.0572 69.0102 23.4446 70.488C22.9694 71.6343 22.3226 72.6992 21.5281 73.6469C21.4751 73.7428 21.4118 73.8329 21.3392 73.9157C20.1877 75.2032 18.7769 76.2327 17.1995 76.9366C15.622 77.6404 13.9136 78.0028 12.1862 78C11.931 77.9998 11.6762 77.9916 11.4221 77.9755C9.28004 77.8409 7.20649 77.1424 5.41455 75.9448C3.41024 74.6051 1.84831 72.7011 0.926353 70.4736C0.0043978 68.2461 -0.236152 65.7951 0.235136 63.4309C0.706424 61.0666 1.86837 58.8953 3.57398 57.1915C5.27959 55.4878 7.45221 54.3282 9.81699 53.8595C12.1818 53.3908 14.6324 53.634 16.8589 54.5584C17.8095 54.953 18.701 55.4643 19.5146 56.0767L22.9573 52.634C21.4899 50.9324 20.2945 48.999 19.4257 46.9006C17.822 43.0273 17.4031 38.7654 18.2219 34.6541C18.9401 31.0478 20.5823 27.6995 22.976 24.9314L19.7885 21.7439C18.9955 22.3686 18.1262 22.8946 17.1994 23.3081C15.7849 23.9393 14.265 24.2959 12.7206 24.3608C12.543 24.3686 12.3648 24.3725 12.1862 24.3725ZM26.3513 51.7652C26.3008 51.6938 26.2441 51.6267 26.1818 51.5647C26.1219 51.5041 26.057 51.4489 25.9881 51.3994C25.9728 51.3836 25.9576 51.3677 25.9423 51.3518C26.2015 49.7976 26.8948 48.3484 27.9423 47.1714C28.9782 46.0075 30.3187 45.1567 31.812 44.7147C32.0116 45.0882 32.2384 45.4459 32.4902 45.785C33.0954 46.6626 33.8742 47.4125 34.7832 47.9859C35.8304 48.6466 37.0148 49.0504 38.2402 49.1696C38.4938 49.2033 38.7495 49.2257 39.0066 49.2366C39.2712 49.2257 39.5342 49.2025 39.7951 49.1674C41.0126 49.0456 42.1891 48.6426 43.2301 47.9859C44.1219 47.4233 44.8886 46.6906 45.4888 45.8342C45.7549 45.4807 45.9936 45.1066 46.2024 44.7151C47.6953 45.1572 49.0353 46.0078 50.0709 47.1714C51.1184 48.3484 51.8118 49.7976 52.0709 51.3518C50.3821 53.1145 48.354 54.5171 46.1088 55.4753C43.8636 56.4336 41.4477 56.9275 39.0066 56.9275C36.5655 56.9275 34.1496 56.4336 31.9044 55.4753C29.8377 54.5933 27.9549 53.3346 26.3513 51.7652ZM18.2888 59.0405C17.5202 58.3493 16.6388 57.7929 15.6818 57.3961C14.5737 56.9366 13.3859 56.7001 12.1862 56.7001V56.7134C10.3812 56.7134 8.61672 57.2487 7.11589 58.2515C5.61507 59.2543 4.44532 60.6797 3.75457 62.3473C3.06381 64.0149 2.88308 65.8499 3.23522 67.6203C3.3674 68.2847 3.57241 68.9289 3.84446 69.5419C4.05459 69.2294 4.29104 68.933 4.55226 68.6563C5.2165 67.9528 6.01677 67.4017 6.89756 67.0323C6.83998 66.6695 6.81107 66.3019 6.81153 65.9328C6.81153 62.4871 9.21951 59.6934 12.133 59.6934C15.0466 59.6934 17.521 62.4871 17.521 65.9328C17.5204 66.2934 17.4921 66.6525 17.4369 67.0072C18.3376 67.3708 19.1572 67.9235 19.8369 68.6353C20.097 68.9078 20.333 69.1997 20.5431 69.5076C21.0483 68.3566 21.3126 67.1082 21.3126 65.8398C21.3144 64.6402 21.0796 63.452 20.6217 62.3432C20.1843 61.2838 19.5514 60.3168 18.7566 59.4924C18.7493 59.4879 18.7421 59.4833 18.7349 59.4787C18.5567 59.3643 18.4051 59.2148 18.2888 59.0405ZM39.0066 20.6738C43.7702 20.6807 48.3385 22.5591 51.7285 25.9009C51.7777 25.9578 51.8312 26.0112 51.8884 26.0605C55.2452 29.4529 57.1326 34.0317 57.1396 38.8068C57.1396 42.205 56.1848 45.5309 54.3896 48.4074C53.8643 47.1271 53.1064 45.9443 52.1446 44.9228C50.8058 43.5011 49.1313 42.455 47.2881 41.872C47.528 40.9378 47.6516 39.9751 47.6541 39.006C47.6541 33.3652 43.7694 28.7754 39.0066 28.7754C34.2439 28.7754 30.3592 33.3652 30.3592 39.006C30.3617 39.9751 30.4852 40.9376 30.7251 41.8718C28.8838 42.454 27.2108 43.4983 25.8725 44.9177C24.9086 45.9399 24.1492 47.1242 23.623 48.4063C22.4689 46.5568 21.6517 44.5046 21.222 42.3444C20.5223 38.8269 20.8814 35.181 22.2539 31.8676C23.1177 29.7822 24.3584 27.8876 25.9029 26.2729C25.9271 26.2585 25.951 26.2436 25.9744 26.2279C26.1687 26.0982 26.3301 25.9268 26.4475 25.7272C27.2121 24.993 28.043 24.324 28.9324 23.7297C31.9144 21.7372 35.4202 20.6738 39.0066 20.6738ZM59.5429 18.6371C59.6038 18.7275 59.6551 18.8243 59.6956 18.926C61.39 20.4053 63.5654 21.2234 65.8203 21.2234C68.1596 21.2234 70.4132 20.343 72.133 18.7574C71.9843 18.2058 71.7151 17.6942 71.3447 17.2593C70.9816 16.8331 70.5301 16.491 70.0217 16.2569C69.8551 16.4973 69.6689 16.7239 69.4648 16.934C69.1033 17.3306 68.6781 17.6668 68.2049 17.9279C67.5209 18.3053 66.7575 18.5141 65.9781 18.5381C65.9278 18.5412 65.8774 18.5436 65.827 18.5453C65.7721 18.5436 65.7174 18.541 65.6627 18.5376C64.8879 18.5118 64.1292 18.3032 63.4491 17.9279C63.0643 17.7156 62.7112 17.4536 62.3983 17.1499C62.107 16.8829 61.8468 16.5848 61.6223 16.2615C61.1165 16.4955 60.6668 16.8356 60.3039 17.259C59.9586 17.6619 59.6997 18.131 59.5429 18.6371ZM18.2392 18.9937C16.5564 20.4303 14.4132 21.2234 12.1929 21.2234C9.8536 21.2234 7.60003 20.343 5.88023 18.7574C6.03364 18.2002 6.31066 17.6848 6.6907 17.2495C7.05359 16.8339 7.50148 16.5014 8.00375 16.2744C8.34256 16.7594 8.7617 17.1871 9.24614 17.5378C9.32947 17.5981 9.41436 17.6558 9.50069 17.711C9.61623 17.7884 9.73526 17.861 9.85751 17.9286C10.5195 18.2946 11.2562 18.5022 12.0099 18.5364C12.0685 18.5404 12.1273 18.5433 12.1862 18.5453C12.2201 18.5443 12.2539 18.5429 12.2877 18.5412C13.0996 18.5321 13.8969 18.3218 14.608 17.9286C15.2563 17.5702 15.8141 17.0702 16.2405 16.4673C16.2957 16.3955 16.349 16.3223 16.4004 16.2477C16.9111 16.4867 17.3637 16.834 17.7268 17.2655C18.053 17.6533 18.2998 18.1006 18.4539 18.5821C18.3747 18.69 18.3099 18.808 18.2612 18.9333C18.2534 18.9533 18.2461 18.9734 18.2392 18.9937ZM21.3126 12.2129C21.3126 13.4797 21.0489 14.7266 20.545 15.8764C20.3347 15.5675 20.0985 15.2747 19.838 15.0013C19.1638 14.2936 18.3515 13.7424 17.4586 13.377C17.5058 13.0273 17.5268 12.6737 17.521 12.3192C17.521 8.8735 15.0465 6.06641 12.133 6.06641C9.2195 6.06641 6.81152 8.8735 6.81152 12.3192C6.81164 12.68 6.83961 13.0395 6.89479 13.3943C6.01438 13.7655 5.21468 14.3178 4.551 15.0223C4.28948 15.2999 4.05281 15.5972 3.84255 15.9106C3.57146 15.2989 3.36709 14.6562 3.23523 13.9933C2.88309 12.223 3.06382 10.388 3.75457 8.72034C4.44533 7.05271 5.61508 5.62737 7.1159 4.62455C8.61673 3.62173 10.3812 3.08648 12.1862 3.08648C14.6067 3.08648 16.928 4.048 18.6396 5.75953C20.3511 7.47106 21.3126 9.79239 21.3126 12.2129ZM14.2393 13.7065C14.4097 13.2595 14.4986 12.7851 14.5011 12.3059C14.5144 10.5764 13.4501 9.11297 12.1862 9.11297C10.9357 9.11297 9.87139 10.5764 9.87139 12.3059C9.87201 12.8366 9.98065 13.3617 10.1907 13.8491C10.3146 14.2828 10.5763 14.6643 10.9364 14.9359C11.2605 15.1803 11.6482 15.3238 12.0513 15.3501C12.0917 15.3524 12.1323 15.3536 12.1729 15.3536C12.6239 15.3536 13.0627 15.2067 13.4227 14.9351C13.7828 14.6635 14.0446 14.282 14.1685 13.8483C14.1897 13.7997 14.2134 13.7524 14.2393 13.7065ZM12.1862 72.1723L12.15 72.1709C11.349 72.1574 10.563 71.9486 9.86035 71.5621C9.63869 71.4402 9.42752 71.3018 9.22847 71.1484C8.75661 70.8031 8.3475 70.3844 8.01517 69.9108C7.50722 70.1364 7.05438 70.4702 6.68852 70.8893C6.30826 71.3249 6.03189 71.8411 5.88026 72.3991C7.60007 73.9848 9.85364 74.8651 12.1929 74.8651C14.5321 74.8651 16.7857 73.9848 18.5055 72.3991C18.3606 71.8497 18.0958 71.3393 17.73 70.9045C17.3643 70.4698 16.9067 70.1215 16.3902 69.8847C15.9461 70.5853 15.3321 71.1623 14.6053 71.5621C13.8784 71.962 13.0623 72.1716 12.2328 72.1716L12.2038 72.1715L12.1862 72.1723ZM14.1685 67.49C14.191 67.4357 14.2165 67.383 14.2449 67.3321C14.4132 66.8852 14.5002 66.4113 14.5011 65.9328C14.5144 64.2033 13.4501 62.7532 12.1862 62.7532C10.9357 62.7532 9.87139 64.2033 9.87139 65.9328C9.87242 66.4678 9.981 66.9972 10.1907 67.4894C10.2431 67.6728 10.3202 67.8469 10.4189 68.0073C10.555 68.2179 10.7288 68.4035 10.9331 68.5542C11.2922 68.8191 11.7267 68.962 12.1729 68.962C12.6192 68.962 13.0537 68.8191 13.4128 68.5542C13.7719 68.2893 14.0367 67.9164 14.1685 67.49ZM62.1785 70.5585C61.9791 70.353 61.7969 70.1319 61.6334 69.8975C61.1215 70.1293 60.6666 70.4706 60.3007 70.8975C59.9278 71.3326 59.6569 71.8454 59.5077 72.3986C61.2275 73.9843 63.4811 74.8647 65.8203 74.8647C68.1596 74.8647 70.4132 73.9843 72.133 72.3986C71.9861 71.8463 71.7175 71.3339 71.3469 70.8988C70.9762 70.4637 70.513 70.1171 69.9911 69.8842C69.5453 70.5848 68.93 71.1615 68.2021 71.5611C67.4848 71.9548 66.681 72.164 65.8631 72.17L65.827 72.1723C65.8042 72.1715 65.7815 72.1707 65.7587 72.1696C64.9519 72.1585 64.1598 71.9497 63.4519 71.5611C62.9734 71.2984 62.5435 70.9591 62.1785 70.5585ZM60.439 65.9328C60.4385 66.3039 60.4677 66.6736 60.526 67.0383C59.6518 67.408 58.8578 67.9572 58.1985 68.6571C57.9295 68.9427 57.6869 69.2492 57.4724 69.5727C57.1919 68.947 56.9814 68.2885 56.8471 67.6088C56.4969 65.8363 56.6806 63.9998 57.3751 62.3319C57.7937 61.3265 58.3865 60.4096 59.1209 59.6208C59.1749 59.5946 59.2275 59.5651 59.2784 59.5324C59.5011 59.3894 59.6823 59.1915 59.805 58.9589C60.1023 58.6998 60.4172 58.4594 60.748 58.2395C62.2526 57.2393 64.0203 56.7082 65.827 56.7134V56.7001C68.2418 56.7107 70.5542 57.6764 72.2592 59.3864C73.9643 61.0964 74.9233 63.4117 74.9268 65.8265C74.9286 67.1102 74.6597 68.3738 74.1444 69.5369C73.9358 69.2265 73.7012 68.9321 73.4422 68.6571C72.753 67.9255 71.9167 67.3586 70.9955 66.9892C71.0506 66.6406 71.0796 66.2874 71.082 65.9328C71.082 62.4871 68.6607 59.6934 65.7605 59.6934C62.8603 59.6934 60.439 62.4871 60.439 65.9328ZM63.4988 65.9328C63.4998 66.4578 63.6044 66.9772 63.8064 67.4615L63.8155 67.4831L63.8181 67.4894L63.8191 67.4928C63.9512 67.9178 64.2156 68.2895 64.5738 68.5537C64.9329 68.8186 65.3674 68.9615 65.8137 68.9615C66.2599 68.9615 66.6944 68.8186 67.0535 68.5537C67.412 68.2893 67.6765 67.9173 67.8085 67.4919L67.8092 67.4894L67.8125 67.482L67.8175 67.4703C68.0264 66.9844 68.1367 66.4618 68.1418 65.9328C68.1552 64.2033 67.0775 62.7532 65.827 62.7532C64.4966 62.7532 63.4988 64.2033 63.4988 65.9328ZM60.5233 13.4009C60.4674 13.0439 60.4391 12.6822 60.439 12.3192C60.439 8.8735 62.8602 6.06641 65.7605 6.06641C68.6607 6.06641 71.082 8.8735 71.082 12.3192C71.0956 12.6722 71.0827 13.0248 71.0438 13.3743C71.9432 13.7455 72.7599 14.305 73.4356 15.0223C73.6971 15.2999 73.9338 15.5972 74.1441 15.9107C74.6615 14.7432 74.9305 13.4747 74.9268 12.1862C74.9163 9.77606 73.9542 7.4676 72.2499 5.76333C70.5456 4.05907 68.2372 3.09697 65.827 3.08647C64.0197 3.08121 62.2515 3.61266 60.7467 4.61345C59.2418 5.61424 58.0679 7.03932 57.3738 8.70802C56.6798 10.3767 56.4968 12.2139 56.8481 13.9868C56.9822 14.6633 57.1917 15.3188 57.4706 15.9418C57.6852 15.6173 57.928 15.31 58.1973 15.0235C58.856 14.3226 59.6495 13.7722 60.5233 13.4009ZM63.8096 13.8291C63.6051 13.3473 63.4994 12.8294 63.4988 12.3059C63.4988 10.5764 64.4966 9.11297 65.827 9.11297C67.0775 9.11297 68.1551 10.5764 68.1418 12.3059C68.1349 12.8305 68.0246 13.3486 67.8173 13.8304L67.8092 13.8483C67.6854 14.282 67.4236 14.6635 67.0635 14.9351C66.7034 15.2067 66.2647 15.3536 65.8137 15.3536C65.3627 15.3536 64.9239 15.2067 64.5638 14.9351C64.2038 14.6635 63.942 14.282 63.8181 13.8483L63.8096 13.8291ZM35.9871 45.0164C36.8445 45.6846 37.8788 46.0866 38.9618 46.1733L39.0066 46.1767C40.1043 46.0987 41.1541 45.6968 42.0232 45.0218C42.7837 44.4313 43.376 43.6549 43.7449 42.7705C43.7975 42.6442 43.8457 42.5157 43.8891 42.3851L43.8891 42.3851L43.8936 42.3746C44.3504 41.31 44.5887 40.1645 44.5942 39.006C44.5942 35.0149 42.0931 31.8353 39.0066 31.8353C35.9335 31.8353 33.4191 35.0548 33.4191 39.006C33.4231 40.1642 33.663 41.3094 34.1242 42.3718C34.4694 43.4185 35.1178 44.3389 35.9871 45.0164Z" fill="#18D6C5"/>
<path d="M5.41593 22.3187L5.13815 22.7345L5.41593 22.3187ZM0.927628 16.8497L0.465689 17.0411H0.465689L0.927628 16.8497ZM0.23416 9.80883L0.724553 9.90637H0.724553L0.23416 9.80883ZM3.56927 3.56927L3.21572 3.21572L3.56927 3.56927ZM9.80883 0.23416L9.90637 0.724553V0.724553L9.80883 0.23416ZM16.8497 0.927628L17.0411 0.465689V0.465689L16.8497 0.927628ZM22.3187 5.41593L22.7345 5.13815L22.3187 5.41593ZM21.8999 19.5449L21.5014 19.243L21.2382 19.5903L21.5464 19.8985L21.8999 19.5449ZM25.1302 22.7752L24.7767 23.1288L25.1058 23.4579L25.4576 23.1531L25.1302 22.7752ZM34.8802 18.0062L34.9776 18.4966L34.8802 18.0062ZM47.126 19.2176L47.3176 18.7558L47.126 19.2176ZM52.8546 22.7507L52.5279 23.1292L52.8796 23.4328L53.2082 23.1042L52.8546 22.7507ZM56.083 19.5223L56.4365 19.8759L56.7439 19.5684L56.4822 19.2213L56.083 19.5223ZM54.5589 16.8589L54.0971 17.0507V17.0507L54.5589 16.8589ZM53.86 9.81699L53.3695 9.71978V9.71978L53.86 9.81699ZM57.192 3.57398L56.8383 3.22062V3.22062L57.192 3.57398ZM63.4314 0.235136L63.5291 0.725488L63.4314 0.235136ZM70.4741 0.926353L70.6653 0.464361V0.464361L70.4741 0.926353ZM77.9999 12.1862L78.4999 12.1868V12.1862H77.9999ZM74.4315 20.7946L74.7852 21.148L74.4315 20.7946ZM65.827 24.3725L65.8275 24.8725L65.8281 24.8725L65.827 24.3725ZM59.0531 22.3252L59.3304 21.9092L59.0531 22.3252ZM58.2154 21.7136L58.5271 21.3227L58.1778 21.0441L57.8618 21.3601L58.2154 21.7136ZM55.0189 24.9101L54.6653 24.5566L54.336 24.8859L54.6411 25.2377L55.0189 24.9101ZM56.6343 27.029L57.0502 26.7515H57.0502L56.6343 27.029ZM60.1995 38.8068L60.6995 38.8074V38.8071L60.1995 38.8068ZM55.0272 52.6589L54.6491 52.3317L54.3446 52.6835L54.6736 53.0125L55.0272 52.6589ZM58.4623 56.0941L58.1087 56.4476L58.4166 56.7555L58.7639 56.4928L58.4623 56.0941ZM63.4395 53.8605L63.3421 53.37L63.4395 53.8605ZM70.4833 54.5571L70.6749 54.0953V54.0953L70.4833 54.5571ZM77.9999 65.8265L78.4999 65.827L77.9999 65.8265ZM65.8754 77.9993L65.8779 78.4993H65.878L65.8754 77.9993ZM65.827 77.9995L65.8254 78.4995L65.8294 78.4995L65.827 77.9995ZM65.7775 77.9994L65.7792 77.4994H65.779L65.7775 77.9994ZM59.0517 75.9512L58.7742 76.3672L59.0517 75.9512ZM54.5576 70.4828L54.0958 70.6744V70.6744L54.5576 70.4828ZM53.861 63.439L54.3514 63.5364L53.861 63.439ZM56.2744 58.2299L56.6658 58.541L56.9434 58.1918L56.628 57.8763L56.2744 58.2299ZM52.8648 54.8203L53.2184 54.4668L52.8895 54.1379L52.5378 54.4421L52.8648 54.8203ZM39.0066 59.9864V60.4864H39.0069L39.0066 59.9864ZM27.2311 56.4138L26.9533 56.8295H26.9533L27.2311 56.4138ZM25.1158 54.7992L25.4435 54.4216L25.0917 54.1162L24.7622 54.4457L25.1158 54.7992ZM21.7076 58.2074L21.3541 57.8538L21.0378 58.17L21.3169 58.5195L21.7076 58.2074ZM22.3252 59.0526L22.7412 58.7752L22.3252 59.0526ZM24.3725 65.8265L23.8725 65.826V65.8265H24.3725ZM23.4446 70.488L22.9827 70.2965L23.4446 70.488ZM21.5281 73.6469L21.1449 73.3257L21.1138 73.3628L21.0904 73.4051L21.5281 73.6469ZM21.3392 73.9157L21.7119 74.2491L21.7151 74.2454L21.3392 73.9157ZM17.1995 76.9366L16.9957 76.48H16.9957L17.1995 76.9366ZM12.1862 78L12.1871 77.5H12.1866L12.1862 78ZM11.4221 77.9755L11.4538 77.4765L11.4535 77.4764L11.4221 77.9755ZM5.41455 75.9448L5.1367 76.3605L5.41455 75.9448ZM0.926353 70.4736L0.464361 70.6648H0.464361L0.926353 70.4736ZM0.235136 63.4309L0.725488 63.5286L0.235136 63.4309ZM3.57398 57.1915L3.22062 56.8378H3.22062L3.57398 57.1915ZM9.81699 53.8595L9.71978 53.369H9.71978L9.81699 53.8595ZM16.8589 54.5584L17.0507 54.0966L16.8589 54.5584ZM19.5146 56.0767L19.2139 56.4762L19.561 56.7374L19.8682 56.4302L19.5146 56.0767ZM22.9573 52.634L23.3109 52.9875L23.6393 52.6591L23.336 52.3074L22.9573 52.634ZM19.4257 46.9006L19.8876 46.7093L19.4257 46.9006ZM18.2219 34.6541L17.7316 34.5564H17.7316L18.2219 34.6541ZM22.976 24.9314L23.3542 25.2585L23.6584 24.9067L23.3295 24.5779L22.976 24.9314ZM19.7885 21.7439L20.1421 21.3904L19.828 21.0763L19.4791 21.3512L19.7885 21.7439ZM17.1994 23.3081L17.4032 23.7647L17.1994 23.3081ZM12.7206 24.3608L12.6996 23.8612L12.6987 23.8613L12.7206 24.3608ZM26.1818 51.5647L25.8266 51.9165L25.8291 51.919L26.1818 51.5647ZM26.3513 51.7652L25.9432 52.054L25.9693 52.0909L26.0016 52.1225L26.3513 51.7652ZM25.9881 51.3994L25.6283 51.7466L25.6598 51.7793L25.6967 51.8057L25.9881 51.3994ZM25.9423 51.3518L25.4491 51.2696L25.4079 51.5168L25.5813 51.6977L25.9423 51.3518ZM27.9423 47.1714L27.5688 46.839V46.839L27.9423 47.1714ZM31.812 44.7147L32.253 44.4791L32.0609 44.1196L31.6701 44.2353L31.812 44.7147ZM32.4902 45.785L32.9018 45.5011L32.8968 45.4939L32.8916 45.4868L32.4902 45.785ZM34.7832 47.9859L35.0499 47.5631L34.7832 47.9859ZM38.2402 49.1696L38.3061 48.674L38.2974 48.6728L38.2886 48.672L38.2402 49.1696ZM39.0066 49.2366L38.9855 49.7361L39.0064 49.737L39.0272 49.7361L39.0066 49.2366ZM39.7951 49.1674L39.7453 48.6699L39.7368 48.6708L39.7284 48.6719L39.7951 49.1674ZM43.2301 47.9859L42.9633 47.5631L43.2301 47.9859ZM45.4888 45.8342L45.0893 45.5335L45.0842 45.5403L45.0794 45.5472L45.4888 45.8342ZM46.2024 44.7151L46.3444 44.2356L45.9532 44.1198L45.7612 44.4798L46.2024 44.7151ZM50.0709 47.1714L50.4444 46.839L50.0709 47.1714ZM52.0709 51.3518L52.4319 51.6977L52.6053 51.5168L52.5641 51.2696L52.0709 51.3518ZM31.9044 55.4753L32.1007 55.0155L31.9044 55.4753ZM15.6818 57.3961L15.4903 57.858H15.4903L15.6818 57.3961ZM18.2888 59.0405L18.7047 58.7629L18.6698 58.7107L18.6231 58.6687L18.2888 59.0405ZM12.1862 56.7001V56.2001H11.6862V56.7001H12.1862ZM12.1862 56.7134V57.2134H12.6862V56.7134H12.1862ZM7.11589 58.2515L7.39368 58.6672L7.11589 58.2515ZM3.75457 62.3473L3.29263 62.1559L3.75457 62.3473ZM3.23522 67.6203L2.74483 67.7178L3.23522 67.6203ZM3.84446 69.5419L3.38744 69.7447L3.7545 70.5718L4.25939 69.8209L3.84446 69.5419ZM4.55226 68.6563L4.18869 68.3131L4.18869 68.3131L4.55226 68.6563ZM6.89756 67.0323L7.09097 67.4933L7.45291 67.3415L7.39138 66.9539L6.89756 67.0323ZM6.81153 65.9328L7.31153 65.9334V65.9328H6.81153ZM17.521 65.9328L18.021 65.9337V65.9328H17.521ZM17.4369 67.0072L16.9428 66.9302L16.8817 67.3223L17.2497 67.4708L17.4369 67.0072ZM19.8369 68.6353L19.4752 68.9806L19.4752 68.9806L19.8369 68.6353ZM20.5431 69.5076L20.1302 69.7895L20.6386 70.5343L21.001 69.7085L20.5431 69.5076ZM21.3126 65.8398L20.8126 65.8391V65.8398H21.3126ZM20.6217 62.3432L21.0839 62.1524L20.6217 62.3432ZM18.7566 59.4924L19.1166 59.1454L19.073 59.1002L19.0196 59.0671L18.7566 59.4924ZM18.7349 59.4787L18.4648 59.8995L18.4648 59.8995L18.7349 59.4787ZM51.7285 25.9009L52.1066 25.5738L52.0936 25.5588L52.0795 25.5448L51.7285 25.9009ZM39.0066 20.6738L39.0073 20.1738H39.0066V20.6738ZM51.8884 26.0605L52.2438 25.7089L52.2298 25.6947L52.2148 25.6817L51.8884 26.0605ZM57.1396 38.8068H57.6396V38.806L57.1396 38.8068ZM54.3896 48.4074L53.927 48.5971L54.2972 49.4996L54.8137 48.6721L54.3896 48.4074ZM52.1446 44.9228L51.7806 45.2656L52.1446 44.9228ZM47.2881 41.872L46.8038 41.7476L46.686 42.2059L47.1373 42.3487L47.2881 41.872ZM47.6541 39.006L48.1541 39.0073V39.006H47.6541ZM30.3592 39.006H29.8592L29.8592 39.0073L30.3592 39.006ZM30.7251 41.8718L30.8759 42.3485L31.3272 42.2058L31.2094 41.7474L30.7251 41.8718ZM25.8725 44.9177L26.2363 45.2607H26.2363L25.8725 44.9177ZM23.623 48.4063L23.1988 48.671L23.7152 49.4985L24.0855 48.5961L23.623 48.4063ZM21.222 42.3444L21.7124 42.2468L21.222 42.3444ZM22.2539 31.8676L22.7158 32.0589L22.2539 31.8676ZM25.9029 26.2729L25.6485 25.8424L25.5892 25.8775L25.5416 25.9273L25.9029 26.2729ZM25.9744 26.2279L26.2521 26.6437L25.9744 26.2279ZM26.4475 25.7272L26.1012 25.3665L26.0516 25.4142L26.0166 25.4736L26.4475 25.7272ZM28.9324 23.7297L29.2102 24.1455L28.9324 23.7297ZM59.6956 18.926L59.2312 19.1112L59.2759 19.2233L59.3668 19.3026L59.6956 18.926ZM59.5429 18.6371L59.0653 18.4891L58.9943 18.7181L59.1284 18.9168L59.5429 18.6371ZM72.133 18.7574L72.4719 19.125L72.6945 18.9197L72.6157 18.6273L72.133 18.7574ZM71.3447 17.2593L71.7253 16.9351V16.9351L71.3447 17.2593ZM70.0217 16.2569L70.2308 15.8027L69.8496 15.6272L69.6106 15.9722L70.0217 16.2569ZM69.4648 16.934L69.1061 16.5857L69.1006 16.5914L69.0953 16.5972L69.4648 16.934ZM68.2049 17.9279L67.9633 17.4901L68.2049 17.9279ZM65.9781 18.5381L65.9627 18.0383L65.9548 18.0385L65.947 18.039L65.9781 18.5381ZM65.827 18.5453L65.8114 19.0451L65.8276 19.0456L65.8439 19.045L65.827 18.5453ZM65.6627 18.5376L65.6938 18.0386L65.6866 18.0382L65.6794 18.0379L65.6627 18.5376ZM63.4491 17.9279L63.2075 18.3657L63.2075 18.3657L63.4491 17.9279ZM62.3983 17.1499L62.7466 16.7911L62.7414 16.7861L62.7361 16.7812L62.3983 17.1499ZM61.6223 16.2615L62.033 15.9763L61.7935 15.6313L61.4124 15.8077L61.6223 16.2615ZM60.3039 17.259L59.9243 16.9336L60.3039 17.259ZM18.2392 18.9937L18.5638 19.3739L18.6681 19.2849L18.7124 19.1551L18.2392 18.9937ZM5.88023 18.7574L5.39817 18.6246L5.31727 18.9184L5.5413 19.125L5.88023 18.7574ZM6.6907 17.2495L7.06736 17.5784V17.5784L6.6907 17.2495ZM8.00375 16.2744L8.41364 15.9881L8.17599 15.6479L7.79785 15.8188L8.00375 16.2744ZM9.24614 17.5378L9.5393 17.1327H9.5393L9.24614 17.5378ZM9.50069 17.711L9.77902 17.2955L9.76994 17.2897L9.50069 17.711ZM9.85751 17.9286L10.0994 17.491H10.0994L9.85751 17.9286ZM12.0099 18.5364L12.0433 18.0374L12.0326 18.0369L12.0099 18.5364ZM12.1862 18.5453L12.1693 19.045L12.1856 19.0456L12.2019 19.0451L12.1862 18.5453ZM12.2877 18.5412L12.2821 18.0412L12.2723 18.0413L12.2625 18.0418L12.2877 18.5412ZM14.608 17.9286L14.85 18.3662L14.608 17.9286ZM16.2405 16.4673L15.844 16.1628L15.838 16.1706L15.8323 16.1786L16.2405 16.4673ZM16.4004 16.2477L16.6123 15.7948L16.2291 15.6155L15.9888 15.9638L16.4004 16.2477ZM17.7268 17.2655L18.1094 16.9436L18.1094 16.9436L17.7268 17.2655ZM18.4539 18.5821L18.857 18.878L19.0078 18.6725L18.9301 18.4297L18.4539 18.5821ZM18.2612 18.9333L18.7272 19.1144L18.7272 19.1144L18.2612 18.9333ZM20.545 15.8764L20.1317 16.1578L20.6403 16.9047L21.003 16.0771L20.545 15.8764ZM19.838 15.0013L19.476 15.3462V15.3462L19.838 15.0013ZM17.4586 13.377L16.9631 13.3102L16.9115 13.6933L17.2693 13.8397L17.4586 13.377ZM17.521 12.3192H17.021L17.0211 12.3272L17.521 12.3192ZM6.81152 12.3192H6.31152V12.3193L6.81152 12.3192ZM6.89479 13.3943L7.08901 13.8551L7.44887 13.7034L7.38886 13.3175L6.89479 13.3943ZM4.551 15.0223L4.18707 14.6794L4.18706 14.6794L4.551 15.0223ZM3.84255 15.9106L3.38544 16.1132L3.75278 16.9421L4.2578 16.1892L3.84255 15.9106ZM3.23523 13.9933L3.72562 13.8958L3.23523 13.9933ZM3.75457 8.72034L3.29263 8.529L3.75457 8.72034ZM14.5011 12.3059L14.0011 12.302L14.0011 12.3032L14.5011 12.3059ZM14.2393 13.7065L14.6746 13.9526L14.6931 13.9198L14.7065 13.8846L14.2393 13.7065ZM9.87139 12.3059H9.37139V12.3065L9.87139 12.3059ZM10.1907 13.8491L10.6714 13.7118L10.6626 13.6808L10.6499 13.6512L10.1907 13.8491ZM10.9364 14.9359L11.2375 14.5367H11.2375L10.9364 14.9359ZM12.0513 15.3501L12.0188 15.849L12.022 15.8492L12.0513 15.3501ZM13.4227 14.9351L13.7238 15.3342L13.7238 15.3342L13.4227 14.9351ZM14.1685 13.8483L13.7104 13.6477L13.6969 13.6786L13.6877 13.7109L14.1685 13.8483ZM12.15 72.1709L12.1691 71.6712L12.1584 71.671L12.15 72.1709ZM12.1862 72.1723L12.1672 72.6719L12.1877 72.6727L12.2082 72.6718L12.1862 72.1723ZM9.86035 71.5621L9.61937 72.0002H9.61937L9.86035 71.5621ZM9.22847 71.1484L9.53373 70.7522L9.52374 70.7449L9.22847 71.1484ZM8.01517 69.9108L8.42444 69.6236L8.18816 69.2869L7.81223 69.4538L8.01517 69.9108ZM6.68852 70.8893L7.06518 71.2181H7.06518L6.68852 70.8893ZM5.88026 72.3991L5.39776 72.268L5.31816 72.5609L5.54134 72.7667L5.88026 72.3991ZM18.5055 72.3991L18.8445 72.7667L19.0658 72.5626L18.989 72.2716L18.5055 72.3991ZM17.73 70.9045L17.3474 71.2264L17.3474 71.2264L17.73 70.9045ZM16.3902 69.8847L16.5986 69.4302L16.2017 69.2482L15.9679 69.617L16.3902 69.8847ZM12.2328 72.1716L12.2314 72.6716H12.2328V72.1716ZM12.2038 72.1715L12.2052 71.6715L12.1935 71.6715L12.1818 71.672L12.2038 72.1715ZM14.2449 67.3321L14.6817 67.5755L14.6997 67.5431L14.7128 67.5083L14.2449 67.3321ZM14.1685 67.49L13.7065 67.2987L13.6977 67.3202L13.6908 67.3424L14.1685 67.49ZM14.5011 65.9328L14.0011 65.929L14.0011 65.9319L14.5011 65.9328ZM9.87139 65.9328H9.37139L9.3714 65.9338L9.87139 65.9328ZM10.1907 67.4894L10.6715 67.352L10.6629 67.3221L10.6507 67.2934L10.1907 67.4894ZM10.4189 68.0073L9.99302 68.2695L9.99902 68.2788L10.4189 68.0073ZM10.9331 68.5542L10.6363 68.9566L10.6363 68.9566L10.9331 68.5542ZM13.4128 68.5542L13.7096 68.9566L13.7096 68.9566L13.4128 68.5542ZM61.6334 69.8975L62.0435 69.6115L61.8058 69.2705L61.4271 69.442L61.6334 69.8975ZM62.1785 70.5585L62.5481 70.2217L62.5428 70.216L62.5374 70.2104L62.1785 70.5585ZM60.3007 70.8975L59.9211 70.5721L60.3007 70.8975ZM59.5077 72.3986L59.0249 72.2685L58.9461 72.5609L59.1688 72.7662L59.5077 72.3986ZM72.133 72.3986L72.4719 72.7662L72.6937 72.5617L72.6162 72.2701L72.133 72.3986ZM71.3469 70.8988L70.9662 71.223L70.9662 71.223L71.3469 70.8988ZM69.9911 69.8842L70.1947 69.4276L69.8008 69.2519L69.5692 69.6158L69.9911 69.8842ZM68.2021 71.5611L67.9615 71.1228L68.2021 71.5611ZM65.8631 72.17L65.8595 71.67L65.8454 71.6701L65.8313 71.671L65.8631 72.17ZM65.827 72.1723L65.8109 72.672L65.8349 72.6728L65.8588 72.6713L65.827 72.1723ZM65.7587 72.1696L65.7812 71.6701L65.7734 71.6698L65.7656 71.6697L65.7587 72.1696ZM63.4519 71.5611L63.2113 71.9994L63.4519 71.5611ZM60.526 67.0383L60.7207 67.4988L61.0814 67.3463L61.0197 66.9595L60.526 67.0383ZM60.439 65.9328L60.939 65.9334V65.9328H60.439ZM58.1985 68.6571L58.5625 68.9999L58.1985 68.6571ZM57.4724 69.5727L57.0161 69.7772L57.3875 70.6057L57.8891 69.849L57.4724 69.5727ZM56.8471 67.6088L57.3376 67.5119L56.8471 67.6088ZM57.3751 62.3319L56.9135 62.1397L57.3751 62.3319ZM59.1209 59.6208L58.9023 59.1711L58.8185 59.2119L58.755 59.2801L59.1209 59.6208ZM59.2784 59.5324L59.0083 59.1116H59.0083L59.2784 59.5324ZM59.805 58.9589L59.4766 58.5819L59.4063 58.6431L59.3628 58.7255L59.805 58.9589ZM60.748 58.2395L61.0248 58.6559L61.0248 58.6559L60.748 58.2395ZM65.827 56.7134L65.8255 57.2134L66.327 57.2149V56.7134H65.827ZM65.827 56.7001L65.8292 56.2001L65.327 56.1979V56.7001H65.827ZM72.2592 59.3864L71.9052 59.7395L72.2592 59.3864ZM74.9268 65.8265L74.4268 65.8272L74.9268 65.8265ZM74.1444 69.5369L73.7294 69.8158L74.2346 70.5676L74.6015 69.7395L74.1444 69.5369ZM73.4422 68.6571L73.0782 68.9999L73.4422 68.6571ZM70.9955 66.9892L70.5017 66.9113L70.4395 67.3049L70.8094 67.4533L70.9955 66.9892ZM71.082 65.9328L71.582 65.9362V65.9328H71.082ZM63.8064 67.4615L63.3449 67.654L63.3455 67.6553L63.8064 67.4615ZM63.4988 65.9328H62.9988V65.9338L63.4988 65.9328ZM63.8155 67.4831L63.3545 67.6769L63.3553 67.6788L63.8155 67.4831ZM63.8181 67.4894L64.2988 67.3516L64.2903 67.322L64.2782 67.2936L63.8181 67.4894ZM63.8191 67.4928L63.3384 67.6307L63.3417 67.6413L63.8191 67.4928ZM64.5738 68.5537L64.8706 68.1514L64.8706 68.1513L64.5738 68.5537ZM67.0535 68.5537L66.7567 68.1513H66.7567L67.0535 68.5537ZM67.8085 67.4919L68.2862 67.6401L68.2893 67.6292L67.8085 67.4919ZM67.8092 67.4894L67.3508 67.2898L67.3376 67.3201L67.3285 67.352L67.8092 67.4894ZM67.8125 67.482L68.2709 67.6816L68.2716 67.68L67.8125 67.482ZM67.8175 67.4703L68.2766 67.6683L68.2769 67.6678L67.8175 67.4703ZM68.1418 65.9328L68.6418 65.9377L68.6418 65.9367L68.1418 65.9328ZM60.439 12.3192H59.939V12.3193L60.439 12.3192ZM60.5233 13.4009L60.7188 13.861L61.0775 13.7086L61.0172 13.3236L60.5233 13.4009ZM71.082 12.3192H70.582V12.3288L70.5823 12.3384L71.082 12.3192ZM71.0438 13.3743L70.5469 13.319L70.5053 13.693L70.8531 13.8365L71.0438 13.3743ZM73.4356 15.0223L73.7995 14.6794V14.6794L73.4356 15.0223ZM74.1441 15.9107L73.7288 16.1892L74.2338 16.9421L74.6012 16.1133L74.1441 15.9107ZM74.9268 12.1862L75.4268 12.1848L75.4268 12.1841L74.9268 12.1862ZM72.2499 5.76333L72.6035 5.40978V5.40978L72.2499 5.76333ZM65.827 3.08647L65.8292 2.58647L65.8285 2.58647L65.827 3.08647ZM60.7467 4.61345L61.0235 5.02979L60.7467 4.61345ZM57.3738 8.70802L56.9122 8.51601V8.51601L57.3738 8.70802ZM56.8481 13.9868L56.3576 14.0839V14.0839L56.8481 13.9868ZM57.4706 15.9418L57.0143 16.1461L57.3859 16.9763L57.8877 16.2176L57.4706 15.9418ZM58.1973 15.0235L58.5616 15.3659L58.1973 15.0235ZM63.4988 12.3059H62.9988V12.3065L63.4988 12.3059ZM63.8096 13.8291L63.3492 14.0245L63.3529 14.0328L63.8096 13.8291ZM68.1418 12.3059L68.6418 12.3125L68.6418 12.3097L68.1418 12.3059ZM67.8173 13.8304L68.2728 14.0369L68.2766 14.028L67.8173 13.8304ZM67.8092 13.8483L67.3539 13.6418L67.3386 13.6754L67.3285 13.7109L67.8092 13.8483ZM67.0635 14.9351L67.3646 15.3342V15.3342L67.0635 14.9351ZM64.5638 14.9351L64.2627 15.3342L64.2627 15.3342L64.5638 14.9351ZM63.8181 13.8483L64.2989 13.7109L64.2892 13.6769L64.2748 13.6446L63.8181 13.8483ZM38.9618 46.1733L38.9219 46.6717L38.9243 46.6719L38.9618 46.1733ZM35.9871 45.0164L36.2944 44.622L35.9871 45.0164ZM39.0066 46.1767L38.9692 46.6753L39.0056 46.678L39.0421 46.6754L39.0066 46.1767ZM42.0232 45.0218L42.3299 45.4167L42.0232 45.0218ZM43.7449 42.7705L44.2063 42.963L44.2063 42.963L43.7449 42.7705ZM43.8891 42.3851L44.3635 42.543L44.4213 42.3693L44.3533 42.1994L43.8891 42.3851ZM43.8891 42.3851L43.4302 42.1865L43.3476 42.3775L43.4249 42.5708L43.8891 42.3851ZM43.8936 42.3746L44.3525 42.5732L44.3531 42.5718L43.8936 42.3746ZM44.5942 39.006L45.0942 39.0084V39.006H44.5942ZM33.4191 39.006H32.9191L32.9191 39.0077L33.4191 39.006ZM34.1242 42.3718L34.599 42.2152L34.5919 42.1936L34.5828 42.1727L34.1242 42.3718ZM5.13815 22.7345C7.22439 24.1284 9.67714 24.8725 12.1862 24.8725V23.8725C9.87493 23.8725 7.61551 23.1871 5.69372 21.903L5.13815 22.7345ZM0.465689 17.0411C1.42588 19.3592 3.05191 21.3405 5.13815 22.7345L5.69372 21.903C3.77193 20.6189 2.27407 18.7938 1.38957 16.6584L0.465689 17.0411ZM-0.256232 9.71128C-0.745734 12.1722 -0.494503 14.7229 0.465689 17.0411L1.38957 16.6584C0.505064 14.523 0.273637 12.1733 0.724553 9.90637L-0.256232 9.71128ZM3.21572 3.21572C1.44152 4.98992 0.233269 7.25039 -0.256232 9.71128L0.724553 9.90637C1.17547 7.63946 2.28848 5.55718 3.92283 3.92283L3.21572 3.21572ZM9.71128 -0.256232C7.25039 0.233269 4.98992 1.44152 3.21572 3.21572L3.92283 3.92283C5.55718 2.28848 7.63946 1.17547 9.90637 0.724553L9.71128 -0.256232ZM17.0411 0.465689C14.7229 -0.494503 12.1722 -0.745734 9.71128 -0.256232L9.90637 0.724553C12.1733 0.273637 14.523 0.505064 16.6584 1.38957L17.0411 0.465689ZM22.7345 5.13815C21.3405 3.05191 19.3592 1.42588 17.0411 0.465689L16.6584 1.38957C18.7938 2.27407 20.6189 3.77193 21.903 5.69372L22.7345 5.13815ZM24.8725 12.1862C24.8725 9.67714 24.1284 7.22439 22.7345 5.13815L21.903 5.69372C23.1871 7.61551 23.8725 9.87493 23.8725 12.1862H24.8725ZM22.2985 19.8469C23.9591 17.6548 24.8725 14.9676 24.8725 12.1862H23.8725C23.8725 14.7484 23.0311 17.2238 21.5014 19.243L22.2985 19.8469ZM25.4838 22.4217L22.2535 19.1914L21.5464 19.8985L24.7767 23.1288L25.4838 22.4217ZM34.7829 17.5158C31.0803 18.2507 27.6426 19.9372 24.8028 22.3973L25.4576 23.1531C28.1665 20.8064 31.4457 19.1977 34.9776 18.4966L34.7829 17.5158ZM47.3176 18.7558C43.3539 17.1118 38.9918 16.6803 34.7829 17.5158L34.9776 18.4966C38.9925 17.6996 43.1535 18.1113 46.9344 19.6795L47.3176 18.7558ZM53.1813 22.3722C51.4412 20.8701 49.4639 19.646 47.3176 18.7558L46.9344 19.6795C48.9818 20.5287 50.8679 21.6963 52.5279 23.1292L53.1813 22.3722ZM55.7294 19.1688L52.501 22.3971L53.2082 23.1042L56.4365 19.8759L55.7294 19.1688ZM54.0971 17.0507C54.5092 18.0433 55.0435 18.9741 55.6837 19.8233L56.4822 19.2213C55.8925 18.4391 55.4003 17.5816 55.0207 16.6672L54.0971 17.0507ZM53.3695 9.71978C52.8816 12.1816 53.1348 14.7328 54.0971 17.0507L55.0207 16.6672C54.1342 14.5321 53.901 12.1819 54.3504 9.9142L53.3695 9.71978ZM56.8383 3.22062C55.0646 4.99621 53.8575 7.25798 53.3695 9.71978L54.3504 9.9142C54.7999 7.64645 55.9119 5.56297 57.5458 3.92734L56.8383 3.22062ZM63.3336 -0.255217C60.8724 0.235408 58.6119 1.44503 56.8383 3.22062L57.5458 3.92734C59.1796 2.29171 61.2619 1.17744 63.5291 0.725488L63.3336 -0.255217ZM70.6653 0.464361C68.3464 -0.495422 65.7949 -0.745842 63.3336 -0.255217L63.5291 0.725488C65.7964 0.273537 68.1467 0.504218 70.2829 1.38835L70.6653 0.464361ZM76.3609 5.1367C74.9663 3.05016 72.9842 1.42414 70.6653 0.464361L70.2829 1.38835C72.419 2.27247 74.2449 3.77032 75.5295 5.69239L76.3609 5.1367ZM78.4999 12.1862C78.4999 9.67655 77.7555 7.22324 76.3609 5.1367L75.5295 5.69239C76.8142 7.61445 77.4999 9.87437 77.4999 12.1862H78.4999ZM74.7852 21.148C77.1605 18.7702 78.4963 15.5477 78.4999 12.1868L77.4999 12.1857C77.4966 15.282 76.2659 18.2507 74.0777 20.4413L74.7852 21.148ZM65.8281 24.8725C69.189 24.8651 72.41 23.5258 74.7852 21.148L74.0777 20.4413C71.8895 22.6319 68.9222 23.8657 65.8259 23.8725L65.8281 24.8725ZM58.7757 22.7412C60.8637 24.1335 63.3179 24.8752 65.8275 24.8725L65.8265 23.8725C63.5146 23.875 61.2539 23.1918 59.3304 21.9092L58.7757 22.7412ZM57.9036 22.1045C58.1844 22.3284 58.4753 22.5409 58.7757 22.7412L59.3304 21.9092C59.0537 21.7247 58.7858 21.5289 58.5271 21.3227L57.9036 22.1045ZM55.3724 25.2637L58.569 22.0672L57.8618 21.3601L54.6653 24.5566L55.3724 25.2637ZM57.0502 26.7515C56.5432 25.9917 55.9906 25.2677 55.3966 24.5826L54.6411 25.2377C55.2077 25.8912 55.7348 26.5819 56.2184 27.3066L57.0502 26.7515ZM60.6995 38.8071C60.7022 34.5161 59.4322 30.3206 57.0502 26.7515L56.2184 27.3066C58.4906 30.7112 59.7021 34.7132 59.6995 38.8065L60.6995 38.8071ZM55.4052 52.9862C58.8025 49.0616 60.6929 44.0327 60.6995 38.8074L59.6995 38.8062C59.6932 43.7907 57.8899 48.588 54.6491 52.3317L55.4052 52.9862ZM58.8159 55.7405L55.3807 52.3054L54.6736 53.0125L58.1087 56.4476L58.8159 55.7405ZM63.3421 53.37C61.4541 53.7451 59.6839 54.5431 58.1607 55.6953L58.7639 56.4928C60.1671 55.4315 61.7977 54.6963 63.5369 54.3509L63.3421 53.37ZM70.6749 54.0953C68.3562 53.1334 65.8043 52.881 63.3421 53.37L63.5369 54.3509C65.805 53.9004 68.1558 54.1329 70.2917 55.019L70.6749 54.0953ZM76.3677 58.7737C74.9747 56.6854 72.9936 55.0572 70.6749 54.0953L70.2917 55.019C72.4276 55.905 74.2526 57.4049 75.5358 59.3286L76.3677 58.7737ZM78.4999 65.827C78.5027 63.3168 77.7606 60.8621 76.3677 58.7737L75.5358 59.3286C76.8189 61.2524 77.5024 63.5135 77.4999 65.826L78.4999 65.827ZM74.7842 74.7837C77.16 72.408 78.4962 69.1869 78.4999 65.827L77.4999 65.826C77.4965 68.9209 76.2656 71.8882 74.0771 74.0766L74.7842 74.7837ZM65.878 78.4993C69.2196 78.4824 72.4204 77.1476 74.7842 74.7837L74.0771 74.0766C71.8996 76.2541 68.9511 77.4837 65.8729 77.4993L65.878 78.4993ZM65.8294 78.4995L65.8779 78.4993L65.873 77.4993L65.8245 77.4995L65.8294 78.4995ZM65.7759 78.4994L65.8254 78.4995L65.8286 77.4995L65.7792 77.4994L65.7759 78.4994ZM58.7742 76.3672C60.8483 77.7506 63.2837 78.492 65.7761 78.4994L65.779 77.4994C63.4831 77.4926 61.2397 76.8096 59.3291 75.5353L58.7742 76.3672ZM54.0958 70.6744C55.0577 72.9931 56.6859 74.9743 58.7742 76.3672L59.3291 75.5353C57.4054 74.2521 55.9055 72.4271 55.0195 70.2912L54.0958 70.6744ZM53.3705 63.3416C52.8815 65.8038 53.1339 68.3557 54.0958 70.6744L55.0195 70.2912C54.1334 68.1553 53.9009 65.8045 54.3514 63.5364L53.3705 63.3416ZM55.883 57.9187C54.6299 59.4951 53.7655 61.353 53.3705 63.3416L54.3514 63.5364C54.7152 61.7045 55.5115 59.9931 56.6658 58.541L55.883 57.9187ZM52.5113 55.1739L55.9208 58.5834L56.628 57.8763L53.2184 54.4668L52.5113 55.1739ZM39.0069 60.4864C44.2335 60.4831 49.2648 58.5949 53.1919 55.1985L52.5378 54.4421C48.7916 57.6821 43.9921 59.4832 39.0063 59.4864L39.0069 60.4864ZM26.9533 56.8295C30.5209 59.2138 34.7156 60.4864 39.0066 60.4864V59.4864C34.9134 59.4864 30.9121 58.2724 27.5089 55.9981L26.9533 56.8295ZM24.7881 55.1768C25.472 55.7704 26.1948 56.3226 26.9533 56.8295L27.5089 55.9981C26.7854 55.5146 26.0959 54.9878 25.4435 54.4216L24.7881 55.1768ZM24.7622 54.4457L21.3541 57.8538L22.0612 58.5609L25.4693 55.1528L24.7622 54.4457ZM21.3169 58.5195C21.5253 58.7803 21.723 59.0507 21.9092 59.3299L22.7412 58.7752C22.539 58.472 22.3245 58.1785 22.0983 57.8953L21.3169 58.5195ZM21.9092 59.3299C23.1918 61.2534 23.875 63.5141 23.8725 65.826L24.8725 65.827C24.8752 63.3174 24.1335 60.8632 22.7412 58.7752L21.9092 59.3299ZM23.8725 65.8265C23.8725 67.3605 23.5701 68.8794 22.9827 70.2965L23.9065 70.6794C24.5442 69.141 24.8725 67.4919 24.8725 65.8265H23.8725ZM22.9827 70.2965C22.527 71.3957 21.9068 72.4169 21.1449 73.3257L21.9112 73.9682C22.7384 72.9815 23.4118 71.8728 23.9065 70.6794L22.9827 70.2965ZM21.0904 73.4051C21.0548 73.4696 21.0122 73.5303 20.9633 73.586L21.7151 74.2454C21.8115 74.1356 21.8954 74.016 21.9657 73.8888L21.0904 73.4051ZM20.9666 73.5824C19.862 74.8173 18.5088 75.8048 16.9957 76.48L17.4032 77.3932C19.045 76.6606 20.5134 75.5891 21.7119 74.2491L20.9666 73.5824ZM16.9957 76.48C15.4827 77.1551 13.8439 77.5027 12.1871 77.5L12.1854 78.5C13.9832 78.503 15.7614 78.1258 17.4032 77.3932L16.9957 76.48ZM12.1866 77.5C11.9418 77.4998 11.6974 77.4919 11.4538 77.4765L11.3905 78.4744C11.6549 78.4912 11.9202 78.4998 12.1859 78.5L12.1866 77.5ZM11.4535 77.4764C9.39928 77.3474 7.41081 76.6776 5.69239 75.5291L5.1367 76.3605C7.00217 77.6073 9.1608 78.3344 11.3908 78.4745L11.4535 77.4764ZM5.69239 75.5291C3.77032 74.2444 2.27247 72.4185 1.38835 70.2824L0.464361 70.6648C1.42414 72.9837 3.05016 74.9659 5.1367 76.3605L5.69239 75.5291ZM1.38835 70.2824C0.504218 68.1462 0.273537 65.7959 0.725488 63.5286L-0.255217 63.3331C-0.745842 65.7944 -0.495422 68.3459 0.464361 70.6648L1.38835 70.2824ZM0.725488 63.5286C1.17744 61.2614 2.29171 59.1791 3.92734 57.5453L3.22062 56.8378C1.44503 58.6114 0.235408 60.8719 -0.255217 63.3331L0.725488 63.5286ZM3.92734 57.5453C5.56297 55.9114 7.64645 54.7994 9.9142 54.35L9.71978 53.369C7.25798 53.857 4.99621 55.0641 3.22062 56.8378L3.92734 57.5453ZM9.9142 54.35C12.1819 53.9005 14.5321 54.1337 16.6672 55.0202L17.0507 54.0966C14.7328 53.1343 12.1816 52.8811 9.71978 53.369L9.9142 54.35ZM16.6672 55.0202C17.5788 55.3986 18.4337 55.8889 19.2139 56.4762L19.8153 55.6772C18.9683 55.0397 18.0402 54.5075 17.0507 54.0966L16.6672 55.0202ZM19.8682 56.4302L23.3109 52.9875L22.6038 52.2804L19.161 55.7231L19.8682 56.4302ZM18.9637 47.0918C19.853 49.2398 21.0767 51.2188 22.5787 52.9605L23.336 52.3074C21.9032 50.646 20.736 48.7583 19.8876 46.7093L18.9637 47.0918ZM17.7316 34.5564C16.8934 38.7648 17.3222 43.1272 18.9637 47.0918L19.8876 46.7093C18.3218 42.9274 17.9128 38.7661 18.7123 34.7517L17.7316 34.5564ZM22.5978 24.6044C20.1476 27.4378 18.4667 30.8651 17.7316 34.5564L18.7123 34.7517C19.4135 31.2306 21.017 27.9613 23.3542 25.2585L22.5978 24.6044ZM19.435 22.0975L22.6224 25.285L23.3295 24.5779L20.1421 21.3904L19.435 22.0975ZM17.4032 23.7647C18.3678 23.3343 19.2726 22.7869 20.0979 22.1367L19.4791 21.3512C18.7185 21.9503 17.8847 22.4548 16.9957 22.8515L17.4032 23.7647ZM12.7416 24.8603C14.349 24.7928 15.9309 24.4217 17.4032 23.7647L16.9957 22.8515C15.6389 23.457 14.181 23.799 12.6996 23.8612L12.7416 24.8603ZM12.1862 24.8725C12.3721 24.8725 12.5576 24.8684 12.7425 24.8603L12.6987 23.8613C12.5284 23.8687 12.3575 23.8725 12.1862 23.8725V24.8725ZM25.8291 51.919C25.871 51.9607 25.9091 52.0059 25.9432 52.054L26.7595 51.4764C26.6924 51.3816 26.6172 51.2926 26.5346 51.2103L25.8291 51.919ZM25.6967 51.8057C25.7429 51.8389 25.7864 51.8759 25.8266 51.9165L26.5371 51.2128C26.4573 51.1323 26.3711 51.0588 26.2795 50.9931L25.6967 51.8057ZM26.3479 51.0522C26.333 51.0368 26.3182 51.0213 26.3034 51.0059L25.5813 51.6977C25.597 51.7141 25.6126 51.7304 25.6283 51.7466L26.3479 51.0522ZM26.4355 51.4341C26.6792 49.9729 27.331 48.6104 28.3158 47.5038L27.5688 46.839C26.4586 48.0864 25.7238 49.6224 25.4491 51.2696L26.4355 51.4341ZM28.3158 47.5038C29.2897 46.4096 30.5499 45.6097 31.9539 45.1942L31.6701 44.2353C30.0874 44.7038 28.6667 45.6055 27.5688 46.839L28.3158 47.5038ZM31.371 44.9504C31.5823 45.3457 31.8223 45.7242 32.0888 46.0831L32.8916 45.4868C32.6545 45.1676 32.4409 44.8308 32.253 44.4791L31.371 44.9504ZM32.0786 46.0688C32.722 47.0018 33.5501 47.7992 34.5164 48.4088L35.0499 47.5631C34.1984 47.0259 33.4688 46.3233 32.9018 45.5011L32.0786 46.0688ZM34.5164 48.4088C35.6298 49.1112 36.889 49.5405 38.1918 49.6673L38.2886 48.672C37.1407 48.5603 36.031 48.182 35.0499 47.5631L34.5164 48.4088ZM38.1744 49.6653C38.4428 49.7009 38.7135 49.7246 38.9855 49.7361L39.0277 48.737C38.7856 48.7268 38.5449 48.7057 38.3061 48.674L38.1744 49.6653ZM39.0272 49.7361C39.3072 49.7246 39.5857 49.7001 39.8618 49.663L39.7284 48.6719C39.4828 48.7049 39.2351 48.7267 38.9861 48.737L39.0272 49.7361ZM39.8449 49.6649C41.1393 49.5354 42.3902 49.107 43.4968 48.4088L42.9633 47.5631C41.9881 48.1782 40.8859 48.5557 39.7453 48.6699L39.8449 49.6649ZM43.4968 48.4088C44.445 47.8106 45.2601 47.0317 45.8983 46.1212L45.0794 45.5472C44.517 46.3496 43.7988 47.036 42.9633 47.5631L43.4968 48.4088ZM45.8883 46.1349C46.1699 45.7607 46.4226 45.3647 46.6436 44.9504L45.7612 44.4798C45.5646 44.8484 45.3399 45.2006 45.0893 45.5335L45.8883 46.1349ZM46.0604 45.1945C47.4639 45.6101 48.7238 46.4099 49.6974 47.5038L50.4444 46.839C49.3468 45.6058 47.9266 44.7042 46.3444 44.2356L46.0604 45.1945ZM49.6974 47.5038C50.6822 48.6104 51.3341 49.9729 51.5777 51.4341L52.5641 51.2696C52.2894 49.6224 51.5546 48.0864 50.4444 46.839L49.6974 47.5038ZM51.7099 51.0059C50.0677 52.7198 48.0957 54.0837 45.9125 55.0155L46.3051 55.9352C48.6123 54.9505 50.6964 53.5091 52.4319 51.6977L51.7099 51.0059ZM45.9125 55.0155C43.7294 55.9472 41.3803 56.4275 39.0066 56.4275V57.4275C41.5152 57.4275 43.9978 56.9199 46.3051 55.9352L45.9125 55.0155ZM39.0066 56.4275C36.633 56.4275 34.2838 55.9472 32.1007 55.0155L31.7082 55.9352C34.0154 56.9199 36.498 57.4275 39.0066 57.4275V56.4275ZM32.1007 55.0155C30.091 54.1578 28.2603 52.9339 26.701 51.4078L26.0016 52.1225C27.6495 53.7353 29.5843 55.0287 31.7082 55.9352L32.1007 55.0155ZM15.4903 57.858C16.3949 58.233 17.228 58.759 17.9544 59.4123L18.6231 58.6687C17.8124 57.9397 16.8828 57.3528 15.8733 56.9342L15.4903 57.858ZM12.1862 57.2001C13.3201 57.2001 14.4429 57.4237 15.4903 57.858L15.8733 56.9342C14.7045 56.4496 13.4516 56.2001 12.1862 56.2001V57.2001ZM12.6862 56.7134V56.7001H11.6862V56.7134H12.6862ZM7.39368 58.6672C8.81228 57.7194 10.4801 57.2134 12.1862 57.2134V56.2134C10.2823 56.2134 8.42116 56.778 6.83811 57.8358L7.39368 58.6672ZM4.21651 62.5386C4.86942 60.9624 5.97508 59.6151 7.39368 58.6672L6.83811 57.8358C5.25506 58.8935 4.02122 60.397 3.29263 62.1559L4.21651 62.5386ZM3.72562 67.5227C3.39276 65.8494 3.5636 64.1149 4.21651 62.5386L3.29263 62.1559C2.56403 63.9149 2.37339 65.8505 2.74483 67.7178L3.72562 67.5227ZM4.30147 69.3391C4.04433 68.7597 3.85055 68.1508 3.72562 67.5227L2.74483 67.7178C2.88424 68.4187 3.10049 69.0982 3.38744 69.7447L4.30147 69.3391ZM4.18869 68.3131C3.90853 68.6099 3.65491 68.9277 3.42953 69.2629L4.25939 69.8209C4.45426 69.5311 4.67356 69.2562 4.91584 68.9996L4.18869 68.3131ZM6.70414 66.5712C5.75946 66.9675 4.90113 67.5585 4.18869 68.3131L4.91584 68.9996C5.53188 68.3471 6.27407 67.836 7.09097 67.4933L6.70414 66.5712ZM6.31153 65.9322C6.31104 66.3278 6.34202 66.7218 6.40374 67.1106L7.39138 66.9539C7.33793 66.6172 7.3111 66.276 7.31153 65.9334L6.31153 65.9322ZM12.133 59.1934C8.8731 59.1934 6.31153 62.2869 6.31153 65.9328H7.31153C7.31153 62.6873 9.56592 60.1934 12.133 60.1934V59.1934ZM18.021 65.9328C18.021 62.2784 15.3856 59.1934 12.133 59.1934V60.1934C14.7075 60.1934 17.021 62.6959 17.021 65.9328H18.021ZM17.9309 67.0841C17.9901 66.7044 18.0203 66.3198 18.021 65.9337L17.0211 65.9319C17.0204 66.267 16.9942 66.6007 16.9428 66.9302L17.9309 67.0841ZM20.1985 68.29C19.4694 67.5265 18.5902 66.9336 17.624 66.5435L17.2497 67.4708C18.085 67.808 18.845 68.3206 19.4752 68.9806L20.1985 68.29ZM20.9561 69.2257C20.7307 68.8954 20.4776 68.5823 20.1985 68.29L19.4752 68.9806C19.7165 69.2333 19.9353 69.504 20.1302 69.7895L20.9561 69.2257ZM20.8126 65.8398C20.8126 67.0387 20.5628 68.2188 20.0853 69.3067L21.001 69.7085C21.5338 68.4945 21.8126 67.1777 21.8126 65.8398H20.8126ZM20.1596 62.534C20.5924 63.5821 20.8143 64.7052 20.8126 65.8391L21.8126 65.8405C21.8145 64.5752 21.5668 63.3219 21.0839 62.1524L20.1596 62.534ZM18.3966 59.8394C19.1479 60.6187 19.7461 61.5327 20.1596 62.534L21.0839 62.1524C20.6225 61.035 19.9549 60.015 19.1166 59.1454L18.3966 59.8394ZM19.0196 59.0671C19.0146 59.064 19.0097 59.0609 19.0049 59.0579L18.4648 59.8995C18.4745 59.9057 18.4841 59.9117 18.4936 59.9176L19.0196 59.0671ZM19.005 59.0579C18.885 58.9809 18.783 58.8803 18.7047 58.7629L17.8729 59.3181C18.0273 59.5493 18.2283 59.7477 18.4648 59.8995L19.005 59.0579ZM52.0795 25.5448C48.5962 22.111 43.9021 20.1809 39.0073 20.1738L39.0059 21.1738C43.6383 21.1805 48.0808 23.0072 51.3774 26.2569L52.0795 25.5448ZM52.2148 25.6817C52.1761 25.6484 52.1399 25.6123 52.1066 25.5738L51.3503 26.2279C51.4155 26.3034 51.4863 26.374 51.5621 26.4393L52.2148 25.6817ZM57.6396 38.806C57.6324 33.8995 55.6931 29.1947 52.2438 25.7089L51.533 26.4122C54.7974 29.7112 56.6328 34.1639 56.6396 38.8075L57.6396 38.806ZM54.8137 48.6721C56.6585 45.7163 57.6396 42.2987 57.6396 38.8068H56.6396C56.6396 42.1113 55.7111 45.3455 53.9654 48.1426L54.8137 48.6721ZM51.7806 45.2656C52.7002 46.2422 53.4248 47.373 53.927 48.5971L54.8521 48.2176C54.3038 46.8811 53.5127 45.6464 52.5086 44.5801L51.7806 45.2656ZM47.1373 42.3487C48.8996 42.9061 50.5006 43.9063 51.7806 45.2656L52.5086 44.5801C51.111 43.0959 49.363 42.0038 47.4389 41.3952L47.1373 42.3487ZM47.1541 39.0047C47.1517 39.9322 47.0335 40.8535 46.8038 41.7476L47.7723 41.9964C48.0226 41.022 48.1514 40.0181 48.1541 39.0073L47.1541 39.0047ZM39.0066 29.2754C43.4179 29.2754 47.1541 33.5594 47.1541 39.006H48.1541C48.1541 33.1709 44.1208 28.2754 39.0066 28.2754V29.2754ZM30.8592 39.006C30.8592 33.5594 34.5953 29.2754 39.0066 29.2754V28.2754C33.8924 28.2754 29.8592 33.1709 29.8592 39.006H30.8592ZM31.2094 41.7474C30.9798 40.8534 30.8616 39.9321 30.8592 39.0047L29.8592 39.0073C29.8618 40.018 29.9906 41.0219 30.2409 41.9962L31.2094 41.7474ZM26.2363 45.2607C27.5158 43.9036 29.1154 42.9051 30.8759 42.3485L30.5744 41.395C28.6523 42.0028 26.9057 43.0929 25.5087 44.5746L26.2363 45.2607ZM24.0855 48.5961C24.5886 47.3703 25.3147 46.2381 26.2363 45.2607L25.5087 44.5746C24.5025 45.6418 23.7097 46.878 23.1604 48.2164L24.0855 48.5961ZM20.7316 42.4419C21.1732 44.6617 22.0129 46.7705 23.1988 48.671L24.0472 48.1416C22.9249 46.3431 22.1303 44.3475 21.7124 42.2468L20.7316 42.4419ZM21.7919 31.6762C20.3817 35.081 20.0127 38.8275 20.7316 42.4419L21.7124 42.2468C21.032 38.8263 21.3812 35.2809 22.7158 32.0589L21.7919 31.6762ZM25.5416 25.9273C23.9545 27.5865 22.6795 29.5334 21.7919 31.6762L22.7158 32.0589C23.5558 30.0311 24.7623 28.1887 26.2642 26.6185L25.5416 25.9273ZM25.6968 25.812C25.681 25.8226 25.6648 25.8328 25.6485 25.8424L26.1573 26.7033C26.1894 26.6843 26.221 26.6645 26.2521 26.6437L25.6968 25.812ZM26.0166 25.4736C25.9372 25.6085 25.8281 25.7244 25.6968 25.812L26.2521 26.6437C26.5092 26.472 26.7229 26.245 26.8784 25.9808L26.0166 25.4736ZM28.6547 23.314C27.7407 23.9247 26.8869 24.6121 26.1012 25.3665L26.7938 26.0878C27.5373 25.3739 28.3453 24.7234 29.2102 24.1455L28.6547 23.314ZM39.0066 20.1738C35.3213 20.1738 31.7188 21.2666 28.6547 23.314L29.2102 24.1455C32.11 22.2079 35.5191 21.1738 39.0066 21.1738V20.1738ZM60.1601 18.7407C60.1062 18.6058 60.0382 18.4773 59.9573 18.3575L59.1284 18.9168C59.1694 18.9776 59.2039 19.0428 59.2312 19.1112L60.1601 18.7407ZM65.8203 20.7234C63.6864 20.7234 61.6279 19.9493 60.0245 18.5493L59.3668 19.3026C61.1521 20.8614 63.4443 21.7234 65.8203 21.7234V20.7234ZM71.794 18.3898C70.1666 19.8903 68.034 20.7234 65.8203 20.7234V21.7234C68.2852 21.7234 70.6598 20.7958 72.4719 19.125L71.794 18.3898ZM70.9641 17.5836C71.2865 17.9621 71.5208 18.4074 71.6502 18.8875L72.6157 18.6273C72.4479 18.0042 72.1437 17.4263 71.7253 16.9351L70.9641 17.5836ZM69.8125 16.711C70.255 16.9148 70.648 17.2125 70.9641 17.5836L71.7253 16.9351C71.3151 16.4536 70.8051 16.0672 70.2308 15.8027L69.8125 16.711ZM69.8235 17.2824C70.0468 17.0524 70.2505 16.8046 70.4327 16.5416L69.6106 15.9722C69.4598 16.1901 69.291 16.3953 69.1061 16.5857L69.8235 17.2824ZM68.4464 18.3657C68.9677 18.0781 69.4361 17.7077 69.8343 17.2709L69.0953 16.5972C68.7705 16.9535 68.3885 17.2556 67.9633 17.4901L68.4464 18.3657ZM65.9934 19.0378C66.852 19.0115 67.6929 18.7815 68.4464 18.3657L67.9633 17.4901C67.3488 17.8292 66.663 18.0168 65.9627 18.0383L65.9934 19.0378ZM65.8439 19.045C65.8991 19.0432 65.9542 19.0405 66.0091 19.0371L65.947 18.039C65.9014 18.0419 65.8558 18.0441 65.8101 18.0456L65.8439 19.045ZM65.6316 19.0367C65.6914 19.0404 65.7513 19.0432 65.8114 19.0451L65.8426 18.0456C65.7929 18.044 65.7433 18.0417 65.6938 18.0386L65.6316 19.0367ZM63.2075 18.3657C63.9568 18.7791 64.7925 19.0089 65.646 19.0374L65.6794 18.0379C64.9832 18.0147 64.3017 17.8273 63.6906 17.4901L63.2075 18.3657ZM62.05 17.5086C62.3947 17.8432 62.7836 18.1318 63.2075 18.3657L63.6906 17.4901C63.3449 17.2994 63.0277 17.064 62.7466 16.7911L62.05 17.5086ZM61.2116 16.5466C61.4572 16.9004 61.7418 17.2265 62.0605 17.5185L62.7361 16.7812C62.4721 16.5394 62.2364 16.2693 62.033 15.9763L61.2116 16.5466ZM60.6836 17.5844C60.9998 17.2155 61.3916 16.9191 61.8322 16.7152L61.4124 15.8077C60.8415 16.0718 60.3339 16.4557 59.9243 16.9336L60.6836 17.5844ZM60.0204 18.7852C60.1571 18.3442 60.3826 17.9355 60.6836 17.5844L59.9243 16.9336C59.5345 17.3884 59.2423 17.9179 59.0653 18.4891L60.0204 18.7852ZM12.1929 21.7234C14.5324 21.7234 16.7906 20.8877 18.5638 19.3739L17.9145 18.6134C16.3221 19.9728 14.294 20.7234 12.1929 20.7234V21.7234ZM5.5413 19.125C7.35344 20.7958 9.72801 21.7234 12.1929 21.7234V20.7234C9.9792 20.7234 7.84662 19.8903 6.21915 18.3898L5.5413 19.125ZM6.31404 16.9207C5.88458 17.4126 5.57153 17.995 5.39817 18.6246L6.36228 18.8901C6.49575 18.4054 6.73674 17.9571 7.06736 17.5784L6.31404 16.9207ZM7.79785 15.8188C7.23026 16.0753 6.72412 16.451 6.31404 16.9207L7.06736 17.5784C7.38305 17.2167 7.7727 16.9275 8.20965 16.7301L7.79785 15.8188ZM9.5393 17.1327C9.10037 16.815 8.72061 16.4275 8.41364 15.9881L7.59387 16.5608C7.9645 17.0913 8.42303 17.5592 8.95299 17.9428L9.5393 17.1327ZM9.76994 17.2897C9.69171 17.2397 9.61479 17.1874 9.5393 17.1327L8.95299 17.9428C9.04414 18.0088 9.13701 18.072 9.23145 18.1323L9.76994 17.2897ZM10.0994 17.491C9.98963 17.4303 9.88273 17.3651 9.77896 17.2956L9.22242 18.1264C9.34973 18.2117 9.48088 18.2917 9.61558 18.3662L10.0994 17.491ZM12.0326 18.0369C11.3557 18.0062 10.694 17.8197 10.0994 17.491L9.61558 18.3662C10.345 18.7694 11.1567 18.9982 11.9872 19.0359L12.0326 18.0369ZM12.2031 18.0456C12.1498 18.0438 12.0965 18.0411 12.0433 18.0375L11.9764 19.0353C12.0406 19.0396 12.1049 19.0429 12.1693 19.045L12.2031 18.0456ZM12.2625 18.0418C12.2319 18.0434 12.2013 18.0446 12.1706 18.0456L12.2019 19.0451C12.2389 19.0439 12.2759 19.0424 12.3128 19.0406L12.2625 18.0418ZM14.3661 17.491C13.7274 17.8441 13.0113 18.0331 12.2821 18.0412L12.2933 19.0412C13.1879 19.0311 14.0664 18.7994 14.85 18.3662L14.3661 17.491ZM15.8323 16.1786C15.4493 16.7201 14.9484 17.1691 14.3661 17.491L14.85 18.3662C15.5643 17.9712 16.1788 17.4204 16.6488 16.7561L15.8323 16.1786ZM15.9888 15.9638C15.9422 16.0314 15.8939 16.0978 15.844 16.1628L16.6371 16.7718C16.6975 16.6933 16.7558 16.6132 16.812 16.5316L15.9888 15.9638ZM18.1094 16.9436C17.6996 16.4565 17.1888 16.0646 16.6123 15.7948L16.1885 16.7006C16.6335 16.9088 17.0278 17.2114 17.3442 17.5874L18.1094 16.9436ZM18.9301 18.4297C18.7562 17.8862 18.4776 17.3813 18.1094 16.9436L17.3442 17.5874C17.6284 17.9252 17.8434 18.315 17.9777 18.7345L18.9301 18.4297ZM18.7272 19.1144C18.76 19.0301 18.8037 18.9506 18.857 18.878L18.0508 18.2863C17.9458 18.4293 17.8597 18.5859 17.7951 18.7522L18.7272 19.1144ZM18.7124 19.1551C18.7171 19.1414 18.722 19.1279 18.7272 19.1144L17.7951 18.7522C17.7848 18.7787 17.7751 18.8054 17.7659 18.8323L18.7124 19.1551ZM21.003 16.0771C21.5345 14.8644 21.8126 13.5491 21.8126 12.2129H20.8126C20.8126 13.4103 20.5634 14.5889 20.0871 15.6757L21.003 16.0771ZM19.476 15.3462C19.7176 15.5998 19.9367 15.8714 20.1317 16.1578L20.9583 15.595C20.7327 15.2637 20.4794 14.9496 20.2 14.6564L19.476 15.3462ZM17.2693 13.8397C18.0974 14.1786 18.8507 14.6899 19.476 15.3462L20.2 14.6564C19.4768 13.8974 18.6056 13.3061 17.648 12.9142L17.2693 13.8397ZM17.0211 12.3272C17.0264 12.6566 17.0069 12.9852 16.9631 13.3102L17.9541 13.4438C18.0046 13.0693 18.0271 12.6907 18.021 12.3111L17.0211 12.3272ZM12.133 6.56641C14.7062 6.56641 17.021 9.08075 17.021 12.3192H18.021C18.021 8.66625 15.3869 5.56641 12.133 5.56641V6.56641ZM7.31152 12.3192C7.31152 9.07222 9.56717 6.56641 12.133 6.56641V5.56641C8.87183 5.56641 6.31152 8.67478 6.31152 12.3192H7.31152ZM7.38886 13.3175C7.3376 12.9879 7.31163 12.6541 7.31152 12.319L6.31152 12.3193C6.31164 12.7059 6.34161 13.091 6.40073 13.4712L7.38886 13.3175ZM4.91494 15.3651C5.53056 14.7117 6.27233 14.1993 7.08901 13.8551L6.70057 12.9336C5.75642 13.3316 4.89881 13.9239 4.18707 14.6794L4.91494 15.3651ZM4.2578 16.1892C4.45282 15.8984 4.67235 15.6226 4.91494 15.3651L4.18706 14.6794C3.90661 14.9771 3.6528 15.2959 3.42731 15.6321L4.2578 16.1892ZM2.74484 14.0909C2.88392 14.7901 3.09949 15.468 3.38544 16.1132L4.29967 15.708C4.04343 15.1299 3.85026 14.5224 3.72562 13.8958L2.74484 14.0909ZM3.29263 8.529C2.56403 10.288 2.3734 12.2235 2.74484 14.0909L3.72562 13.8958C3.39277 12.2224 3.5636 10.4879 4.21651 8.91168L3.29263 8.529ZM6.83812 4.20881C5.25507 5.26657 4.02123 6.77001 3.29263 8.529L4.21651 8.91168C4.86942 7.33542 5.97509 5.98816 7.39369 5.04028L6.83812 4.20881ZM12.1862 2.58648C10.2823 2.58648 8.42117 3.15105 6.83812 4.20881L7.39369 5.04028C8.81229 4.0924 10.4801 3.58648 12.1862 3.58648V2.58648ZM18.9931 5.40598C17.1878 3.60068 14.7393 2.58648 12.1862 2.58648V3.58648C14.4741 3.58648 16.6683 4.49532 18.286 6.11308L18.9931 5.40598ZM21.8126 12.2129C21.8126 9.65978 20.7984 7.21127 18.9931 5.40598L18.286 6.11308C19.9038 7.73084 20.8126 9.925 20.8126 12.2129H21.8126ZM14.0011 12.3032C13.9989 12.7224 13.9212 13.1374 13.7721 13.5284L14.7065 13.8846C14.8983 13.3816 14.9982 12.8478 15.0011 12.3085L14.0011 12.3032ZM12.1862 9.61297C12.6137 9.61297 13.0601 9.86151 13.4179 10.3545C13.7735 10.8445 14.007 11.5369 14.0011 12.302L15.0011 12.3097C15.0085 11.3453 14.7165 10.4413 14.2273 9.76719C13.7403 9.09613 13.0226 8.61297 12.1862 8.61297V9.61297ZM10.3714 12.3059C10.3714 11.5395 10.6081 10.8456 10.9645 10.3545C11.3236 9.85971 11.7671 9.61297 12.1862 9.61297V8.61297C11.3548 8.61297 10.6409 9.09793 10.1552 9.76719C9.6668 10.4402 9.37139 11.3427 9.37139 12.3059H10.3714ZM10.6499 13.6512C10.4667 13.2261 10.3719 12.7682 10.3714 12.3053L9.37139 12.3065C9.37209 12.905 9.49461 13.4972 9.73149 14.047L10.6499 13.6512ZM11.2375 14.5367C10.9642 14.3306 10.7655 14.041 10.6714 13.7118L9.70991 13.9864C9.86364 14.5246 10.1885 14.998 10.6353 15.3351L11.2375 14.5367ZM12.0838 14.8511C11.7778 14.8312 11.4835 14.7223 11.2375 14.5367L10.6353 15.3351C11.0374 15.6384 11.5186 15.8164 12.0188 15.849L12.0838 14.8511ZM12.1729 14.8536C12.142 14.8536 12.1113 14.8527 12.0806 14.8509L12.022 15.8492C12.0722 15.8521 12.1225 15.8536 12.1729 15.8536V14.8536ZM13.1216 14.5359C12.8483 14.7421 12.5153 14.8536 12.1729 14.8536V15.8536C12.7326 15.8536 13.277 15.6713 13.7238 15.3342L13.1216 14.5359ZM13.6877 13.7109C13.5937 14.0401 13.3949 14.3297 13.1216 14.5359L13.7238 15.3342C14.1707 14.9972 14.4955 14.5238 14.6492 13.9856L13.6877 13.7109ZM13.8041 13.4605C13.7698 13.5211 13.7385 13.5835 13.7104 13.6477L14.6265 14.0488C14.6409 14.0158 14.657 13.9837 14.6746 13.9526L13.8041 13.4605ZM12.131 72.6705L12.1672 72.6719L12.2053 71.6726L12.1691 71.6713L12.131 72.6705ZM9.61937 72.0002C10.3934 72.426 11.2593 72.656 12.1416 72.6708L12.1584 71.671C11.4388 71.6589 10.7326 71.4713 10.1013 71.124L9.61937 72.0002ZM8.9233 71.5445C9.14257 71.7134 9.37519 71.8659 9.61937 72.0002L10.1013 71.124C9.90219 71.0145 9.71247 70.8901 9.53364 70.7523L8.9233 71.5445ZM7.60589 70.198C7.96945 70.7161 8.417 71.1742 8.93319 71.5519L9.52374 70.7449C9.09622 70.4321 8.72555 70.0527 8.42444 69.6236L7.60589 70.198ZM7.06518 71.2181C7.38312 70.854 7.77666 70.5638 8.2181 70.3678L7.81223 69.4538C7.23778 69.709 6.72564 70.0865 6.31186 70.5605L7.06518 71.2181ZM6.36277 72.5302C6.49454 72.0453 6.73471 71.5967 7.06518 71.2181L6.31186 70.5605C5.88181 71.0531 5.56925 71.6369 5.39776 72.268L6.36277 72.5302ZM12.1929 74.3651C9.97924 74.3651 7.84666 73.532 6.21919 72.0315L5.54134 72.7667C7.35348 74.4375 9.72805 75.3651 12.1929 75.3651V74.3651ZM18.1666 72.0315C16.5391 73.532 14.4066 74.3651 12.1929 74.3651V75.3651C14.6577 75.3651 17.0323 74.4375 18.8445 72.7667L18.1666 72.0315ZM17.3474 71.2264C17.6656 71.6047 17.896 72.0487 18.0221 72.5266L18.989 72.2716C18.8252 71.6508 18.5259 71.074 18.1126 70.5827L17.3474 71.2264ZM16.1819 70.3392C16.6311 70.5452 17.0292 70.8482 17.3474 71.2264L18.1126 70.5827C17.6993 70.0914 17.1822 69.6978 16.5986 69.4302L16.1819 70.3392ZM14.8462 72.0002C15.6469 71.5598 16.3233 70.9242 16.8125 70.1524L15.9679 69.617C15.5689 70.2464 15.0173 70.7648 14.3643 71.124L14.8462 72.0002ZM12.2328 72.6716C13.1466 72.6716 14.0456 72.4407 14.8462 72.0002L14.3643 71.124C13.7113 71.4832 12.9781 71.6716 12.2328 71.6716V72.6716ZM12.2023 72.6715L12.2314 72.6716L12.2343 71.6716L12.2052 71.6715L12.2023 72.6715ZM12.2082 72.6718L12.2257 72.671L12.1818 71.672L12.1643 71.6728L12.2082 72.6718ZM13.8081 67.0887C13.7704 67.1564 13.7365 67.2265 13.7065 67.2987L14.6305 67.6813C14.6455 67.6449 14.6626 67.6096 14.6817 67.5755L13.8081 67.0887ZM14.0011 65.9319C14.0003 66.3504 13.9242 66.7649 13.777 67.1558L14.7128 67.5083C14.9022 67.0055 15.0001 66.4722 15.0011 65.9338L14.0011 65.9319ZM12.1862 63.2532C12.6155 63.2532 13.0619 63.5003 13.4187 63.9892C13.7736 64.4754 14.007 65.164 14.0011 65.929L15.0011 65.9367C15.0085 64.9721 14.7164 64.0709 14.2265 63.3997C13.7385 62.7312 13.0208 62.2532 12.1862 62.2532V63.2532ZM10.3714 65.9328C10.3714 65.1666 10.608 64.4766 10.9637 63.9892C11.3219 63.4985 11.7653 63.2532 12.1862 63.2532V62.2532C11.3566 62.2532 10.6426 62.7329 10.156 63.3997C9.66691 64.0698 9.37139 64.9695 9.37139 65.9328H10.3714ZM10.6507 67.2934C10.4673 66.8629 10.3723 66.3998 10.3714 65.9319L9.3714 65.9338C9.37255 66.5358 9.49474 67.1315 9.73069 67.6853L10.6507 67.2934ZM10.8447 67.7452C10.7697 67.6234 10.7112 67.4913 10.6715 67.352L9.70991 67.6267C9.77494 67.8543 9.87059 68.0704 9.99313 68.2694L10.8447 67.7452ZM11.2299 68.1518C11.0745 68.0372 10.9423 67.896 10.8388 67.7358L9.99902 68.2788C10.1677 68.5397 10.3831 68.7698 10.6363 68.9566L11.2299 68.1518ZM12.1729 68.462C11.8335 68.462 11.503 68.3533 11.2299 68.1518L10.6363 68.9566C11.0814 69.2849 11.6199 69.462 12.1729 69.462V68.462ZM13.116 68.1518C12.8429 68.3533 12.5124 68.462 12.1729 68.462V69.462C12.726 69.462 13.2645 69.2849 13.7096 68.9566L13.116 68.1518ZM13.6908 67.3424C13.5906 67.6667 13.3891 67.9503 13.116 68.1518L13.7096 68.9566C14.1547 68.6283 14.4829 68.1661 14.6462 67.6377L13.6908 67.3424ZM61.2233 70.1835C61.4021 70.4399 61.6015 70.6818 61.8196 70.9066L62.5374 70.2104C62.3568 70.0242 62.1917 69.8239 62.0435 69.6115L61.2233 70.1835ZM60.6803 71.2229C60.9986 70.8516 61.3944 70.5546 61.8397 70.3529L61.4271 69.442C60.8487 69.704 60.3345 70.0897 59.9211 70.5721L60.6803 71.2229ZM59.9905 72.5288C60.1202 72.0475 60.3559 71.6014 60.6803 71.2229L59.9211 70.5721C59.4997 71.0637 59.1935 71.6433 59.0249 72.2685L59.9905 72.5288ZM65.8203 74.3647C63.6067 74.3647 61.4741 73.5316 59.8466 72.031L59.1688 72.7662C60.9809 74.437 63.3555 75.3647 65.8203 75.3647V74.3647ZM71.794 72.031C70.1666 73.5316 68.034 74.3647 65.8203 74.3647V75.3647C68.2852 75.3647 70.6597 74.437 72.4719 72.7662L71.794 72.031ZM70.9662 71.223C71.2885 71.6013 71.522 72.0469 71.6497 72.5271L72.6162 72.2701C72.4501 71.6457 72.1465 71.0664 71.7275 70.5745L70.9662 71.223ZM69.7874 70.3409C70.2412 70.5433 70.644 70.8447 70.9662 71.223L71.7275 70.5746C71.3085 70.0827 70.7848 69.6908 70.1947 69.4276L69.7874 70.3409ZM68.4427 71.9994C69.2443 71.5593 69.922 70.9242 70.4129 70.1527L69.5692 69.6158C69.1686 70.2454 68.6156 70.7637 67.9615 71.1228L68.4427 71.9994ZM65.8668 72.67C66.7675 72.6634 67.6527 72.433 68.4427 71.9994L67.9615 71.1228C67.3168 71.4767 66.5945 71.6646 65.8595 71.67L65.8668 72.67ZM65.8588 72.6713L65.895 72.669L65.8313 71.671L65.7952 71.6733L65.8588 72.6713ZM65.7363 72.6691C65.761 72.6702 65.7859 72.6712 65.8109 72.672L65.8431 71.6725C65.8225 71.6719 65.8019 71.6711 65.7812 71.6701L65.7363 72.6691ZM63.2113 71.9994C63.9909 72.4274 64.8633 72.6573 65.7518 72.6696L65.7656 71.6697C65.0406 71.6597 64.3287 71.472 63.6925 71.1228L63.2113 71.9994ZM61.8089 70.8952C62.2109 71.3365 62.6843 71.7101 63.2113 71.9994L63.6925 71.1228C63.2624 70.8867 62.8761 70.5818 62.5481 70.2217L61.8089 70.8952ZM61.0197 66.9595C60.9657 66.621 60.9385 66.2779 60.939 65.9334L59.939 65.9322C59.9385 66.33 59.9698 66.7262 60.0322 67.1171L61.0197 66.9595ZM58.5625 68.9999C59.1738 68.3509 59.9101 67.8417 60.7207 67.4988L60.3312 66.5778C59.3935 66.9744 58.5418 67.5634 57.8345 68.3143L58.5625 68.9999ZM57.8891 69.849C58.088 69.549 58.313 69.2648 58.5625 68.9999L57.8345 68.3143C57.546 68.6206 57.2857 68.9494 57.0556 69.2965L57.8891 69.849ZM56.3566 67.7057C56.4982 68.4226 56.7203 69.1172 57.0161 69.7772L57.9286 69.3682C57.6635 68.7768 57.4646 68.1543 57.3376 67.5119L56.3566 67.7057ZM56.9135 62.1397C56.181 63.899 55.9872 65.8362 56.3566 67.7057L57.3376 67.5119C57.0066 65.8365 57.1803 64.1006 57.8367 62.5241L56.9135 62.1397ZM58.755 59.2801C57.9803 60.1121 57.355 61.0792 56.9135 62.1397L57.8367 62.5241C58.2323 61.5738 58.7927 60.7071 59.4869 59.9615L58.755 59.2801ZM59.0083 59.1116C58.974 59.1336 58.9386 59.1535 58.9023 59.1711L59.3396 60.0705C59.4112 60.0356 59.4809 59.9965 59.5485 59.9532L59.0083 59.1116ZM59.3628 58.7255C59.2802 58.8822 59.1582 59.0154 59.0083 59.1116L59.5485 59.9532C59.8441 59.7634 60.0844 59.5009 60.2473 59.1922L59.3628 58.7255ZM60.4712 57.8231C60.1223 58.0551 59.7902 58.3087 59.4766 58.5819L60.1335 59.3358C60.4145 59.091 60.7121 58.8637 61.0248 58.6559L60.4712 57.8231ZM65.8284 56.2134C63.9227 56.2079 62.0583 56.7681 60.4712 57.8231L61.0248 58.6559C62.447 57.7105 64.1178 57.2084 65.8255 57.2134L65.8284 56.2134ZM65.327 56.7001V56.7134H66.327V56.7001H65.327ZM72.6133 59.0334C70.815 57.2298 68.376 56.2112 65.8292 56.2001L65.8248 57.2001C68.1075 57.2101 70.2934 58.123 71.9052 59.7395L72.6133 59.0334ZM75.4268 65.8258C75.4231 63.2789 74.4116 60.8369 72.6133 59.0334L71.9052 59.7395C73.5169 61.3559 74.4235 63.5445 74.4268 65.8272L75.4268 65.8258ZM74.6015 69.7395C75.1451 68.5126 75.4287 67.1798 75.4268 65.8258L74.4268 65.8272C74.4285 67.0406 74.1744 68.2349 73.6872 69.3344L74.6015 69.7395ZM73.0782 68.9999C73.3185 69.255 73.536 69.528 73.7294 69.8158L74.5594 69.258C74.3356 68.9251 74.084 68.6093 73.8061 68.3143L73.0782 68.9999ZM70.8094 67.4533C71.6636 67.7959 72.4392 68.3215 73.0782 68.9999L73.8061 68.3143C73.0669 67.5295 72.1698 66.9214 71.1816 66.5252L70.8094 67.4533ZM70.582 65.9295C70.5798 66.259 70.5528 66.5872 70.5017 66.9113L71.4894 67.0672C71.5484 66.6939 71.5794 66.3158 71.582 65.9362L70.582 65.9295ZM65.7605 60.1934C68.315 60.1934 70.582 62.6882 70.582 65.9328H71.582C71.582 62.2861 69.0064 59.1934 65.7605 59.1934V60.1934ZM60.939 65.9328C60.939 62.6882 63.2059 60.1934 65.7605 60.1934V59.1934C62.5146 59.1934 59.939 62.2861 59.939 65.9328H60.939ZM64.2679 67.2691C64.0912 66.8454 63.9997 66.391 63.9988 65.9319L62.9988 65.9338C63 66.5245 63.1176 67.109 63.3449 67.654L64.2679 67.2691ZM64.2764 67.2893L64.2673 67.2677L63.3455 67.6553L63.3545 67.6769L64.2764 67.2893ZM64.2782 67.2936L64.2756 67.2874L63.3553 67.6788L63.358 67.6851L64.2782 67.2936ZM64.2998 67.3551L64.2988 67.3516L63.3375 67.6271L63.3385 67.6306L64.2998 67.3551ZM64.8706 68.1513C64.5982 67.9504 64.3971 67.6677 64.2966 67.3444L63.3417 67.6413C63.5054 68.168 63.8331 68.6286 64.277 68.9561L64.8706 68.1513ZM65.8137 68.4615C65.4743 68.4615 65.1438 68.3528 64.8706 68.1514L64.277 68.9561C64.7221 69.2844 65.2606 69.4615 65.8137 69.4615V68.4615ZM66.7567 68.1513C66.4836 68.3528 66.1531 68.4615 65.8137 68.4615V69.4615C66.3667 69.4615 66.9053 69.2844 67.3503 68.9561L66.7567 68.1513ZM67.331 67.3437C67.2306 67.6672 67.0294 67.9502 66.7567 68.1513L67.3503 68.9561C67.7946 68.6284 68.1225 68.1673 68.2861 67.64L67.331 67.3437ZM67.3285 67.352L67.3278 67.3545L68.2893 67.6292L68.29 67.6267L67.3285 67.352ZM67.354 67.2824L67.3508 67.2898L68.2677 67.6889L68.2709 67.6816L67.354 67.2824ZM67.3584 67.2723L67.3533 67.284L68.2716 67.68L68.2766 67.6683L67.3584 67.2723ZM67.6419 65.9279C67.6374 66.3906 67.5409 66.8478 67.3582 67.2728L68.2769 67.6678C68.5119 67.121 68.636 66.5329 68.6418 65.9377L67.6419 65.9279ZM65.827 63.2532C66.2487 63.2532 66.6956 63.4994 67.0551 63.99C67.4118 64.4769 67.6477 65.1654 67.6419 65.929L68.6418 65.9367C68.6493 64.9707 68.353 64.0694 67.8617 63.3989C67.373 62.7321 66.6558 62.2532 65.827 62.2532V63.2532ZM63.9988 65.9328C63.9988 65.1593 64.2228 64.4696 64.5701 63.9862C64.9159 63.5048 65.3599 63.2532 65.827 63.2532V62.2532C64.9637 62.2532 64.2436 62.7266 63.7579 63.4027C63.2737 64.0767 62.9988 64.9768 62.9988 65.9328H63.9988ZM59.939 12.3193C59.9391 12.7083 59.9694 13.0957 60.0293 13.4782L61.0172 13.3236C60.9654 12.992 60.9391 12.6562 60.939 12.319L59.939 12.3193ZM65.7605 5.56641C62.5133 5.56641 59.939 8.67392 59.939 12.3192H60.939C60.939 9.07308 63.2072 6.56641 65.7605 6.56641V5.56641ZM71.582 12.3192C71.582 8.67392 69.0076 5.56641 65.7605 5.56641V6.56641C68.3138 6.56641 70.582 9.07308 70.582 12.3192H71.582ZM71.5407 13.4296C71.5824 13.0554 71.5962 12.6778 71.5816 12.2999L70.5823 12.3384C70.595 12.6665 70.583 12.9943 70.5469 13.319L71.5407 13.4296ZM73.7995 14.6794C73.0749 13.9102 72.199 13.3102 71.2346 12.9121L70.8531 13.8365C71.6873 14.1808 72.4449 14.6998 73.0716 15.3651L73.7995 14.6794ZM74.5593 15.6322C74.3338 15.296 74.08 14.9771 73.7995 14.6794L73.0716 15.3651C73.3142 15.6227 73.5338 15.8984 73.7288 16.1892L74.5593 15.6322ZM74.4268 12.1877C74.4303 13.4055 74.176 14.6046 73.687 15.7081L74.6012 16.1133C75.1469 14.8819 75.4307 13.5438 75.4268 12.1848L74.4268 12.1877ZM71.8963 6.11689C73.5074 7.72792 74.4168 9.91009 74.4268 12.1884L75.4268 12.1841C75.4157 9.64203 74.401 7.20728 72.6035 5.40978L71.8963 6.11689ZM65.8248 3.58647C68.1031 3.59639 70.2853 4.50586 71.8963 6.11689L72.6035 5.40978C70.806 3.61228 68.3712 2.59755 65.8292 2.58647L65.8248 3.58647ZM61.0235 5.02979C62.446 4.08383 64.1173 3.58149 65.8255 3.58647L65.8285 2.58647C63.9222 2.58092 62.0571 3.14149 60.4698 4.19711L61.0235 5.02979ZM57.8355 8.90004C58.4915 7.32275 59.6011 5.97575 61.0235 5.02979L60.4698 4.19711C58.8824 5.25273 57.6443 6.75588 56.9122 8.51601L57.8355 8.90004ZM57.3386 13.8896C57.0065 12.2139 57.1795 10.4773 57.8355 8.90004L56.9122 8.51601C56.1801 10.2761 55.9871 12.214 56.3576 14.0839L57.3386 13.8896ZM57.927 15.7375C57.6634 15.1486 57.4653 14.529 57.3386 13.8896L56.3576 14.0839C56.499 14.7975 56.7201 15.4889 57.0143 16.1461L57.927 15.7375ZM57.8329 14.681C57.5441 14.9883 57.2837 15.318 57.0536 15.666L57.8877 16.2176C58.0867 15.9167 58.3119 15.6316 58.5616 15.3659L57.8329 14.681ZM60.3277 12.9407C59.3905 13.339 58.5395 13.9293 57.8329 14.681L58.5616 15.3659C59.1725 14.7159 59.9084 14.2055 60.7188 13.861L60.3277 12.9407ZM62.9988 12.3065C62.9995 12.8969 63.1187 13.4811 63.3493 14.0244L64.2698 13.6338C64.0915 13.2136 63.9994 12.7619 63.9988 12.3053L62.9988 12.3065ZM65.827 8.61297C64.9619 8.61297 64.2419 9.09158 63.7572 9.77024C63.2737 10.4471 62.9988 11.35 62.9988 12.3059H63.9988C63.9988 11.5323 64.2229 10.8387 64.5709 10.3515C64.9176 9.86606 65.3617 9.61297 65.827 9.61297V8.61297ZM68.6418 12.3097C68.6493 11.3439 68.3531 10.4398 67.8625 9.76643C67.3748 9.09705 66.6576 8.61297 65.827 8.61297V9.61297C66.2469 9.61297 66.6938 9.86059 67.0542 10.3553C67.4117 10.846 67.6477 11.5383 67.6419 12.302L68.6418 12.3097ZM68.2766 14.028C68.5099 13.4858 68.634 12.9028 68.6418 12.3125L67.6419 12.2993C67.6358 12.7582 67.5394 13.2113 67.358 13.6328L68.2766 14.028ZM68.2646 14.0548L68.2727 14.0369L67.362 13.6239L67.3539 13.6418L68.2646 14.0548ZM67.3646 15.3342C67.8114 14.9972 68.1363 14.5238 68.29 13.9856L67.3285 13.7109C67.2344 14.0401 67.0357 14.3297 66.7624 14.5359L67.3646 15.3342ZM65.8137 15.8536C66.3734 15.8536 66.9178 15.6713 67.3646 15.3342L66.7624 14.5359C66.4891 14.7421 66.156 14.8536 65.8137 14.8536V15.8536ZM64.2627 15.3342C64.7095 15.6713 65.254 15.8536 65.8137 15.8536V14.8536C65.4713 14.8536 65.1383 14.7421 64.865 14.5359L64.2627 15.3342ZM63.3373 13.9856C63.4911 14.5238 63.8159 14.9972 64.2627 15.3342L64.865 14.5359C64.5916 14.3297 64.3929 14.0401 64.2989 13.7109L63.3373 13.9856ZM63.3529 14.0328L63.3615 14.0519L64.2748 13.6446L64.2662 13.6255L63.3529 14.0328ZM39.0016 45.6749C38.016 45.596 37.0748 45.2301 36.2944 44.622L35.6797 45.4108C36.6143 46.1391 37.7415 46.5773 38.9219 46.6717L39.0016 45.6749ZM39.0441 45.6781L38.9992 45.6747L38.9243 46.6719L38.9692 46.6753L39.0441 45.6781ZM41.7166 44.6269C40.9256 45.2412 39.9701 45.6069 38.9712 45.6779L39.0421 46.6754C40.2384 46.5904 41.3826 46.1524 42.3299 45.4167L41.7166 44.6269ZM43.2834 42.578C42.9477 43.3829 42.4087 44.0894 41.7166 44.6269L42.3299 45.4167C43.1588 44.7731 43.8043 43.9269 44.2063 42.963L43.2834 42.578ZM43.4147 42.2273C43.3752 42.3461 43.3313 42.4631 43.2834 42.5781L44.2063 42.963C44.2638 42.8253 44.3162 42.6852 44.3635 42.543L43.4147 42.2273ZM43.4249 42.5708L43.4249 42.5708L44.3533 42.1994L44.3533 42.1994L43.4249 42.5708ZM43.4347 42.1761L43.4302 42.1865L44.348 42.5837L44.3525 42.5732L43.4347 42.1761ZM44.0942 39.0036C44.089 40.0951 43.8645 41.1744 43.4341 42.1775L44.3531 42.5718C44.8363 41.4457 45.0884 40.2339 45.0942 39.0084L44.0942 39.0036ZM39.0066 32.3353C41.7092 32.3353 44.0942 35.1692 44.0942 39.006H45.0942C45.0942 34.8605 42.477 31.3353 39.0066 31.3353V32.3353ZM33.9191 39.006C33.9191 35.208 36.3183 32.3353 39.0066 32.3353V31.3353C35.5487 31.3353 32.9191 34.9015 32.9191 39.006H33.9191ZM34.5828 42.1727C34.1487 41.1726 33.9228 40.0945 33.9191 39.0042L32.9191 39.0077C32.9233 40.2338 33.1773 41.4462 33.6655 42.5709L34.5828 42.1727ZM36.2944 44.622C35.5033 44.0055 34.9132 43.1678 34.599 42.2152L33.6493 42.5284C34.0256 43.6692 34.7323 44.6724 35.6797 45.4108L36.2944 44.622Z" fill="#131415" mask="url(#path-1-inside-1_711_905)"/>
</svg>
