<svg width="88" height="33" viewBox="0 0 88 33" fill="none" xmlns="http://www.w3.org/2000/svg">
<path fill-rule="evenodd" clip-rule="evenodd" d="M19.7391 14.4098V32.9993H16.2388V5.97053C16.2388 2.89961 17.7467 0.582275 20.9953 0.0992516C21.8218 -0.0227909 22.5122 -0.0264668 23.3379 0.0838126C26.6459 0.52493 28.2101 2.83933 28.2101 5.97053V33H24.709V14.4098H19.7391ZM82.0857 32.9765L76.0279 32.9993V0.000735493L81.7664 0.00735213C82.2606 -0.00764113 82.7552 0.023129 83.2435 0.0992516C86.4914 0.58301 88 2.89961 88 5.97053V8.44519C88 9.98249 87.6168 11.5477 86.5455 12.699C87.6168 13.8481 88 15.4134 88 16.9514V27.0309C88 30.1019 86.4914 32.4192 83.2435 32.9015C82.8798 32.9559 82.4704 32.9552 82.0857 32.9765ZM81.7266 3.42748H79.5282V10.9838H81.9024C83.6311 10.9838 84.4981 10.1038 84.4981 8.44519V5.97053C84.4981 4.95596 84.1781 4.04211 83.1571 3.64437C82.5485 3.40543 82.2502 3.51718 81.7266 3.42748ZM79.5282 29.5725C80.3577 29.5688 81.1841 29.5512 82.0128 29.5696C83.689 29.5321 84.4989 28.6307 84.4989 27.0317V16.9521C84.4989 15.2928 83.6319 14.4106 81.9031 14.4106H79.529L79.5282 29.5725ZM49.0108 12.699C47.9425 11.5477 47.5578 9.98249 47.5578 8.44519V5.97053C47.5578 2.89888 49.068 0.58301 52.3151 0.0992516C52.808 0.025732 53.2918 -0.011763 53.7914 0.00735213L56.3414 0.000735493H59.5307V33H56.0296V14.4098H53.6554C51.9425 14.4098 51.0604 15.2759 51.0604 16.9514V32.9993H47.5586V16.9521C47.5578 15.4141 47.9425 13.8489 49.0108 12.699ZM56.0296 10.9838V3.42748H53.8327C53.3061 3.51791 53.0086 3.40543 52.4008 3.64437C51.379 4.04211 51.0604 4.95596 51.0604 5.97053V8.44519C51.0604 10.1038 51.9259 10.9838 53.6539 10.9838H56.0296ZM32.5061 27.0309L32.4881 5.97053C32.4851 2.89814 33.9982 0.582275 37.2461 0.0992516C38.0214 -0.0220271 38.811 -0.0272329 39.5879 0.0838126C42.8944 0.52493 44.4602 2.83933 44.4602 5.97053V33H40.9591V5.97053C40.9591 4.37147 40.1514 3.46939 38.4737 3.43116C36.7983 3.46939 35.9884 4.37147 35.9899 5.97053L36.0065 27.0295C36.0102 30.1026 34.4978 32.4199 31.2499 32.9022L30.3994 29.5688C31.5339 29.4159 32.5234 28.8248 32.5061 27.0309ZM66.1294 29.5732H72.9295V32.9993H62.6291V5.96611C62.6291 2.21367 64.8266 0 68.7252 0H72.9295V3.42675H68.7252C67.0122 3.42675 66.1294 4.29354 66.1294 5.96611V10.9831H72.079V14.4091H66.1294V29.5732ZM3.50035 14.4113V32.986H0V0.000735493H3.50035V10.9853H5.87523C7.60399 10.9853 8.4695 10.106 8.4695 8.4474L8.46499 5.87421C8.46349 2.80036 9.97512 0.484494 13.2238 0.000735493L14.0743 3.33705C12.939 3.48924 11.9503 4.08107 11.9676 5.87421C11.9698 6.73072 11.9698 7.58796 11.9698 8.4474C11.9698 9.98396 11.5874 11.5485 10.5183 12.699C11.5874 13.8504 11.9698 15.4156 11.9698 16.9514L11.9676 27.0309C11.9503 28.8241 12.939 29.4152 14.0743 29.5681L13.2238 32.9015C9.97512 32.4192 8.46349 30.1011 8.46499 27.0287L8.4695 16.9514C8.4695 15.2774 7.58596 14.4113 5.87523 14.4113H3.50035ZM24.709 10.9838V5.97053C24.709 4.37147 23.9021 3.46939 22.2245 3.43116C20.5475 3.46939 19.7384 4.37147 19.7384 5.97053V10.9838H24.709Z" fill="#E8F6F4"/>
</svg>
