<svg width="580" height="241" viewBox="0 0 580 241" fill="none" xmlns="http://www.w3.org/2000/svg">
<path d="M492.723 119.437L492.317 119.144L491.744 119.937L492.723 119.937L492.723 119.437ZM578 1.43681L578.405 1.72968L578.698 1.32444L578.293 1.03157L578 1.43681ZM578 119.437H578.5V118.937L578 118.937L578 119.437ZM578 120.437L578 120.937L578.5 120.937V120.437H578ZM493.234 120.437L493.234 119.937L492.256 119.937L492.829 120.73L493.234 120.437ZM578.81 238.851L579.103 239.256L579.509 238.963L579.216 238.558L578.81 238.851ZM578 239.437L577.595 239.73L577.888 240.135L578.293 239.842L578 239.437ZM492 120.437L492.405 120.144L492.358 120.079L492.293 120.032L492 120.437ZM491.19 119.851L490.784 119.558L490.491 119.963L490.897 120.256L491.19 119.851ZM577.19 0.851074L577.482 0.445827L577.077 0.152951L576.784 0.558205L577.19 0.851074ZM88 120.437L87.7071 120.032L87.6419 120.079L87.5948 120.144L88 120.437ZM88.8105 119.851L89.1034 120.256L89.5086 119.963L89.2158 119.558L88.8105 119.851ZM2.00001 239.437L1.70714 239.842L2.11239 240.135L2.40526 239.73L2.00001 239.437ZM1.18951 238.851L0.784264 238.558L0.491395 238.963L0.896645 239.256L1.18951 238.851ZM86.7662 120.437L87.1715 120.73L87.7445 119.937L86.7662 119.937L86.7662 120.437ZM2.00001 120.437L1.50001 120.437L1.50001 120.937L2.00001 120.937L2.00001 120.437ZM2.00001 119.437L2.00001 118.937L1.50001 118.937L1.50001 119.437L2.00001 119.437ZM87.2773 119.437L87.2773 119.937L88.2556 119.937L87.6826 119.144L87.2773 119.437ZM2.00001 1.43682L1.70714 1.03157L1.30189 1.32444L1.59476 1.72969L2.00001 1.43682ZM2.81051 0.851082L3.21576 0.558212L2.92289 0.152962L2.51764 0.445832L2.81051 0.851082ZM493.128 119.73L578.405 1.72968L577.595 1.14394L492.317 119.144L493.128 119.73ZM578 118.937L492.723 118.937L492.723 119.937L578 119.937L578 118.937ZM578.5 120.437V119.437H577.5V120.437H578.5ZM493.234 120.937L578 120.937L578 119.937L493.234 119.937L493.234 120.937ZM492.829 120.73L578.405 239.144L579.216 238.558L493.639 120.144L492.829 120.73ZM578.518 238.446L577.707 239.032L578.293 239.842L579.103 239.256L578.518 238.446ZM578.405 239.144L492.405 120.144L491.595 120.73L577.595 239.73L578.405 239.144ZM490.897 120.256L491.707 120.842L492.293 120.032L491.482 119.446L490.897 120.256ZM576.784 0.558205L490.784 119.558L491.595 120.144L577.595 1.14394L576.784 0.558205ZM578.293 1.03157L577.482 0.445827L576.897 1.25632L577.707 1.84206L578.293 1.03157ZM88.2929 120.842L89.1034 120.256L88.5176 119.446L87.7071 120.032L88.2929 120.842ZM2.40526 239.73L88.4053 120.73L87.5948 120.144L1.59476 239.144L2.40526 239.73ZM0.896645 239.256L1.70714 239.842L2.29288 239.032L1.48238 238.446L0.896645 239.256ZM86.361 120.144L0.784264 238.558L1.59476 239.144L87.1715 120.73L86.361 120.144ZM2.00001 120.937L86.7662 120.937L86.7662 119.937L2.00001 119.937L2.00001 120.937ZM1.50001 119.437L1.50001 120.437L2.50001 120.437L2.50001 119.437L1.50001 119.437ZM87.2773 118.937L2.00001 118.937L2.00001 119.937L87.2773 119.937L87.2773 118.937ZM1.59476 1.72969L86.8721 119.73L87.6826 119.144L2.40526 1.14395L1.59476 1.72969ZM2.51764 0.445832L1.70714 1.03157L2.29288 1.84207L3.10338 1.25633L2.51764 0.445832ZM89.2158 119.558L3.21576 0.558212L2.40526 1.14395L88.4053 120.144L89.2158 119.558Z" fill="url(#paint0_linear_25_49)"/>
<defs>
<linearGradient id="paint0_linear_25_49" x1="1.18951" y1="120.144" x2="578.81" y2="120.144" gradientUnits="userSpaceOnUse">
<stop stop-color="#18A7C5"/>
<stop offset="1" stop-color="#18D6C5"/>
</linearGradient>
</defs>
</svg>
