<svg width="90" height="241" viewBox="0 0 90 241" fill="none" xmlns="http://www.w3.org/2000/svg">
<path d="M1.99995 1.43681L1.70708 1.03156L1.30183 1.32443L1.5947 1.72968L1.99995 1.43681ZM2.81045 0.851074L3.2157 0.558205L2.92283 0.152955L2.51758 0.445824L2.81045 0.851074ZM88.8105 119.851L89.1033 120.256L89.5086 119.963L89.2157 119.558L88.8105 119.851ZM87.1895 119.851L87.4823 119.446L87.0771 119.153L86.7842 119.558L87.1895 119.851ZM1.18945 238.851L0.784203 238.558L0.491334 238.963L0.896584 239.256L1.18945 238.851ZM1.99995 239.437L1.70708 239.842L2.11233 240.135L2.4052 239.73L1.99995 239.437ZM1.5947 1.72968L87.5947 120.73L88.4052 120.144L2.4052 1.14394L1.5947 1.72968ZM2.51758 0.445824L1.70708 1.03156L2.29282 1.84206L3.10332 1.25632L2.51758 0.445824ZM89.2157 119.558L3.2157 0.558205L2.4052 1.14394L88.4052 120.144L89.2157 119.558ZM88.2928 120.842L89.1033 120.256L88.5176 119.446L87.7071 120.032L88.2928 120.842ZM88.2928 120.032L87.4823 119.446L86.8966 120.256L87.7071 120.842L88.2928 120.032ZM86.7842 119.558L0.784203 238.558L1.5947 239.144L87.5947 120.144L86.7842 119.558ZM0.896584 239.256L1.70708 239.842L2.29282 239.032L1.48232 238.446L0.896584 239.256ZM2.4052 239.73L88.4052 120.73L87.5947 120.144L1.5947 239.144L2.4052 239.73Z" fill="url(#paint0_linear_25_43)"/>
<defs>
<linearGradient id="paint0_linear_25_43" x1="1.18945" y1="120.144" x2="88.8105" y2="120.144" gradientUnits="userSpaceOnUse">
<stop stop-color="#18D6C5"/>
<stop offset="1" stop-color="#18A7C5"/>
</linearGradient>
</defs>
</svg>
