<svg width="102" height="102" viewBox="0 0 102 102" fill="none" xmlns="http://www.w3.org/2000/svg">
<path d="M43.1538 70.6152C42.1494 70.6152 41.145 70.2308 40.3761 69.4698L24.6837 53.7775C23.1539 52.2477 23.1539 49.7598 24.6837 48.23C26.2136 46.7002 28.7014 46.7002 30.2312 48.23L43.1538 61.1446L75.684 28.6144C77.2138 27.0846 79.7016 27.0846 81.2314 28.6144C82.7612 30.1442 82.7612 32.6321 81.2314 34.1619L45.9237 69.4696C45.1628 70.2305 44.1581 70.6152 43.1538 70.6152Z" fill="#18D6C5"/>
<path d="M51 102C22.8794 102 0 79.1206 0 51C0 22.8794 22.8794 0 51 0C79.1206 0 102 22.8794 102 51C102 79.1206 79.1206 102 51 102ZM51 7.84615C27.2015 7.84615 7.84615 27.2024 7.84615 51C7.84615 74.7895 27.2024 94.1538 51 94.1538C74.7895 94.1538 94.1538 74.7898 94.1538 51C94.1538 27.2015 74.7898 7.84615 51 7.84615Z" fill="#18D6C5"/>
</svg>
