<svg width="87" height="102" viewBox="0 0 87 102" fill="none" xmlns="http://www.w3.org/2000/svg">
<path d="M74.2114 15.0892C74.0968 15.0416 73.9778 15.0031 73.8508 14.9815C73.463 14.9135 73.0821 14.8704 72.7068 14.8398C70.0672 6.16586 61.7005 0 52.3054 0C40.569 0 31.022 9.28735 31.022 20.7029C31.022 21.0669 31.0333 21.432 31.0549 21.7971C30.5219 21.7143 29.9664 21.6792 29.387 21.7109C29.3802 21.7109 29.3734 21.7098 29.3666 21.7098C29.3439 21.7098 29.3223 21.7132 29.3008 21.7132C29.2826 21.7143 29.2645 21.7132 29.2464 21.7143C29.2418 21.7143 29.2384 21.7155 29.2339 21.7166C22.6859 21.7869 17.3795 26.9969 17.3795 33.3975C17.3795 39.8355 22.7574 45.0727 29.3666 45.0727H36.7819C37.7264 45.0727 38.4895 44.3085 38.4895 43.3651C38.4895 42.4206 37.7253 41.6576 36.7819 41.6576H29.3666C24.6407 41.6576 20.7947 37.9522 20.7947 33.3975C20.7947 28.8372 24.6395 25.1261 29.3666 25.1261C30.0378 25.1261 30.7351 25.2224 31.4449 25.3993C33.1581 25.9742 34.3918 27.2203 34.428 27.2588C34.7637 27.6149 35.2161 27.794 35.6707 27.794C36.0891 27.794 36.5075 27.6409 36.8375 27.3325C37.5257 26.6885 37.5609 25.6068 36.9157 24.9186C36.8488 24.8471 36.0086 23.9639 34.6446 23.1407C34.5188 22.3255 34.4371 21.508 34.4371 20.7029C34.4371 11.1707 42.4534 3.41515 52.3043 3.41515C59.909 3.41515 66.6917 8.20112 69.1567 15.0314C66.4649 15.5314 64.6133 16.6562 64.5 16.7265C63.7017 17.2232 63.4568 18.2697 63.9512 19.0713C64.2732 19.594 64.8333 19.882 65.407 19.882C65.712 19.882 66.0193 19.8015 66.2982 19.6314C66.3221 19.6156 68.3641 18.3967 71.0751 18.2311L71.379 18.2334C78.0098 18.281 83.4023 23.533 83.4023 29.9404C83.4023 36.4011 77.9644 41.6576 71.2815 41.6576H63.2743C63.1541 41.6576 63.035 41.6712 62.9205 41.695C62.7822 41.6587 62.6393 41.6326 62.4885 41.6326H62.1971C58.0631 41.6202 53.0198 41.6258 50.0151 47.7305C47.6646 52.5176 48.0002 61.3945 48.2247 64.7461L44.7449 62.3004C43.9728 61.7584 42.9081 61.9444 42.365 62.7165C41.8219 63.4887 42.0101 64.5534 42.7811 65.0965L48.7735 69.3064C48.7984 69.3235 48.8279 69.3291 48.8517 69.345C48.9504 69.4062 49.0536 69.4561 49.1601 69.4958C49.2055 69.5151 49.2497 69.5344 49.2973 69.548C49.4425 69.5888 49.5933 69.6149 49.7452 69.616C49.7486 69.616 49.752 69.6171 49.7543 69.6171H49.7565C49.7599 69.6171 49.7622 69.616 49.7656 69.616C49.9164 69.6149 50.0638 69.591 50.2089 69.5502C50.2532 69.5378 50.2962 69.5185 50.3405 69.5015C50.4493 69.4618 50.5514 69.4119 50.6511 69.3507C50.6738 69.3359 50.6999 69.3314 50.7214 69.3167L56.7184 65.1997C57.4985 64.6656 57.6935 63.6032 57.1606 62.8254C56.6277 62.0464 55.563 61.8514 54.7863 62.3843L51.6331 64.5477C51.3655 60.6915 51.2578 52.9496 53.0798 49.2373C55.1446 45.041 58.4237 45.0342 62.1926 45.0478H62.4874C62.6087 45.0478 62.7266 45.0342 62.8411 45.0104C62.9783 45.0466 63.1223 45.0716 63.272 45.0716H71.2792C79.8466 45.0716 86.8164 38.2832 86.8164 29.9393C86.8198 22.5976 81.375 16.4295 74.2114 15.0892Z" fill="#18D6C5"/>
<path d="M59.1016 51.5686H57.9927C57.0505 51.5686 56.2851 52.3339 56.2851 53.2762C56.2851 54.2195 57.0505 54.9849 57.9927 54.9849H59.0993C59.8125 54.986 60.4781 55.2593 60.9725 55.757C61.4271 56.214 61.6777 56.8104 61.6766 57.4351L61.6539 83.3492L4.3481 83.3322L4.36964 57.4192C4.3719 56.0722 5.52843 54.9769 6.94914 54.9769L32.2385 54.9803C32.2544 54.9803 32.268 54.9849 32.2838 54.9849H32.9211C33.1342 54.986 33.344 54.986 33.5537 54.986C36.8011 54.986 39.6153 54.935 41.8569 54.0506C44.789 52.8941 46.2755 50.42 46.2755 46.6987C46.2755 42.0522 46.3141 36.7027 46.3333 34.4826L49.9197 37.0009C50.219 37.2107 50.5603 37.3104 50.9005 37.3104C51.4379 37.3104 51.9663 37.0576 52.2985 36.5836C52.8416 35.8126 52.6534 34.7468 51.8824 34.2048L45.89 29.9971C45.8798 29.9892 45.8685 29.9858 45.8594 29.979C45.8072 29.945 45.7528 29.9189 45.6995 29.8905C45.6519 29.8656 45.6065 29.8384 45.5567 29.818C45.5113 29.7987 45.4637 29.7874 45.4172 29.7726C45.3571 29.7533 45.2981 29.7329 45.2369 29.7216C45.1972 29.7137 45.1564 29.7125 45.1156 29.7069C45.0464 29.6989 44.9795 29.6887 44.9115 29.6887C44.8695 29.6887 44.8276 29.6955 44.7845 29.6978C44.7187 29.7023 44.653 29.7057 44.5872 29.7182C44.543 29.7273 44.4999 29.742 44.4568 29.7545C44.3933 29.7715 44.3321 29.7874 44.2697 29.8123C44.2289 29.8293 44.1904 29.852 44.1496 29.8724C44.0895 29.903 44.0294 29.9325 43.9715 29.9699C43.9625 29.9756 43.9511 29.9801 43.9432 29.9858L37.9474 34.1005C37.1696 34.6346 36.9723 35.697 37.5052 36.4748C37.8363 36.9567 38.3703 37.2163 38.9157 37.2163C39.2479 37.2163 39.5847 37.1188 39.8806 36.917L42.9159 34.833C42.8967 37.247 42.8615 42.288 42.8615 46.6976C42.8615 49.5832 41.7775 50.4098 40.6051 50.8713C38.8261 51.5731 36.0992 51.5663 32.9267 51.5674H32.8723C32.8553 51.5674 32.8394 51.5629 32.8235 51.5629L6.95141 51.5606C3.64964 51.5606 0.960157 54.1866 0.955622 57.4158L0.930678 87.8063C0.927276 89.3813 1.55656 90.8609 2.70288 91.9755C3.83219 93.0765 5.32887 93.682 6.91739 93.6854L27.6963 93.691C27.1294 95.8952 25.6089 99.3761 21.6347 99.3761V101.654H44.3888V99.3761C40.4373 99.3761 38.9089 95.8998 38.3352 93.6933L59.0653 93.699C59.0687 93.699 59.071 93.699 59.0744 93.699C62.3739 93.699 65.0622 91.0707 65.069 87.8336L65.094 57.4408C65.0974 55.9055 64.4942 54.4508 63.3932 53.3453C62.2526 52.2013 60.7309 51.5708 59.1016 51.5686ZM38.8658 99.375H27.1577C28.753 97.7525 29.6363 95.5449 30.04 93.6899L35.9836 93.6922C36.3884 95.546 37.2705 97.7525 38.8658 99.375ZM59.071 90.2815H59.0665L6.92079 90.2679C6.22688 90.2668 5.57378 90.0037 5.08283 89.5264C4.60661 89.0626 4.34356 88.4538 4.34583 87.8097L4.34696 85.609L61.6539 85.626L61.6516 87.8279C61.6494 89.1817 60.494 90.2815 59.071 90.2815Z" fill="#18D6C5"/>
</svg>
