<svg width="103" height="103" viewBox="0 0 103 103" fill="none" xmlns="http://www.w3.org/2000/svg">
<path d="M55.1058 56.1101C54.9395 54.7988 55.8681 53.6035 57.1763 53.4373C58.4876 53.271 59.6828 54.1996 59.8491 55.5109C59.8961 55.8748 59.9306 56.201 59.9463 56.4802C59.9714 56.8504 59.9839 57.1767 59.9839 57.4559C59.9839 61.6062 58.2993 65.3675 55.5795 68.0874C52.8597 70.8072 49.0983 72.4918 44.948 72.4918C40.7976 72.4918 37.0363 70.8104 34.3164 68.0874C31.5966 65.3675 29.912 61.6062 29.912 57.4559C29.912 53.3055 31.5934 49.5442 34.3164 46.8243C37.0363 44.1045 40.7976 42.4199 44.948 42.4199C45.2272 42.4199 45.5534 42.4324 45.9236 42.4575C46.2059 42.4763 46.5322 42.5077 46.8929 42.5548C48.2042 42.721 49.1297 43.9163 48.9666 45.2276C48.8003 46.5357 47.6051 47.4643 46.2938 47.298C46.115 47.2761 45.8922 47.2541 45.6224 47.2353C45.4468 47.2227 45.2209 47.2165 44.948 47.2165C42.1215 47.2165 39.5616 48.3615 37.7107 50.2155C35.8599 52.0664 34.7117 54.6262 34.7117 57.4527C34.7117 60.2792 35.8567 62.8391 37.7107 64.6899C39.5616 66.5439 42.1215 67.689 44.948 67.689C47.7745 67.689 50.3343 66.5439 52.1852 64.6899C54.0392 62.8391 55.1842 60.2792 55.1842 57.4527C55.1842 57.1798 55.178 56.9539 55.1654 56.7782C55.1466 56.5085 55.1278 56.2857 55.1027 56.1069L55.1058 56.1101ZM78.9601 20.0526L87.3612 11.6483L86.1252 7.03057L77.6488 15.5069L78.957 20.0526H78.9601ZM90.7555 15.0427L82.3513 23.4469L86.8969 24.755L95.3733 16.2787L90.7555 15.0427ZM75.0827 23.9268L72.6765 15.5697C72.3973 14.7321 72.5887 13.7753 73.2538 13.1102L85.664 0.699961L85.6672 0.703098C85.9558 0.414487 86.3197 0.194893 86.7432 0.081958C88.0231 -0.259983 89.3344 0.499189 89.6763 1.77911L91.9883 10.4123L100.622 12.7244C101.898 13.0663 102.661 14.3807 102.319 15.6575C102.206 16.081 101.986 16.4449 101.698 16.7335H101.701L89.2905 29.1438C88.6254 29.8088 87.6686 30.0033 86.831 29.7241L78.4738 27.318L76.7202 29.0685L46.642 59.1499C45.704 60.0847 44.1856 60.0847 43.2477 59.1499C42.3128 58.2119 42.3128 56.6935 43.2477 55.7556L71.5786 27.4247C68.2564 24.4727 64.4511 22.0666 60.3008 20.3474C55.5826 18.393 50.3939 17.3139 44.9417 17.3139C33.8584 17.3139 23.8229 21.8062 16.5606 29.0685C9.29828 36.3308 4.80286 46.3663 4.80286 57.4527C4.80286 68.536 9.29514 78.5715 16.5606 85.8338C23.8229 93.0961 33.8584 97.5915 44.9417 97.5915C56.025 97.5915 66.0605 93.0993 73.3259 85.8338C80.5882 78.5715 85.0805 68.536 85.0805 57.4527C85.0805 54.1745 84.6978 51.0123 83.97 48.007C83.2202 44.8919 82.1003 41.9148 80.6635 39.1228C80.0581 37.9464 80.5192 36.5034 81.6956 35.8979C82.872 35.2924 84.3151 35.7536 84.9205 36.93C86.5236 40.0482 87.7753 43.3829 88.6191 46.8808C89.441 50.2939 89.8771 53.8357 89.8771 57.4527C89.8771 69.863 84.8452 81.0968 76.714 89.2281C68.5827 97.3594 57.3457 102.391 44.9385 102.391C32.5283 102.391 21.2944 97.3594 13.1632 89.2281C5.03186 81.0937 0 69.8598 0 57.4527C0 45.0425 5.03186 33.8086 13.1632 25.6773C21.2976 17.546 32.5314 12.5142 44.9385 12.5142C51.0088 12.5142 56.8124 13.7251 62.114 15.9242C66.873 17.8942 71.2147 20.6517 74.9729 24.0272L75.0733 23.9268H75.0827ZM66.3867 46.3443C65.7813 45.1711 66.2424 43.7249 67.4188 43.1194C68.5921 42.514 70.0383 42.9751 70.6437 44.1515C71.6884 46.1655 72.5071 48.327 73.0593 50.6014C73.5988 52.8193 73.8843 55.1156 73.8843 57.4559C73.8843 65.4428 70.6469 72.6769 65.4079 77.9158C60.1722 83.1516 52.9381 86.3922 44.948 86.3922C36.9578 86.3922 29.7269 83.1516 24.488 77.9158C19.2522 72.6801 16.0116 65.446 16.0116 57.4559C16.0116 49.4657 19.2522 42.2316 24.488 36.9959C29.7238 31.7601 36.9578 28.5195 44.948 28.5195C47.2882 28.5195 49.5846 28.805 51.8025 29.3446C54.0768 29.8967 56.2414 30.7155 58.2523 31.7601C59.4255 32.3656 59.8898 33.8086 59.2844 34.985C58.6789 36.1614 57.2327 36.6226 56.0595 36.0171C54.3623 35.1387 52.5585 34.4548 50.6763 33.9968C48.863 33.5545 46.9431 33.3224 44.948 33.3224C38.2848 33.3224 32.2491 36.0234 27.8823 40.3902C23.5155 44.757 20.8145 50.7927 20.8145 57.4559C20.8145 64.119 23.5155 70.1547 27.8823 74.5215C32.2491 78.8883 38.2817 81.5893 44.948 81.5893C51.6111 81.5893 57.6468 78.8883 62.0136 74.5215C66.3804 70.1547 69.0815 64.1221 69.0815 57.4559C69.0815 55.4607 68.8462 53.5408 68.407 51.7244C67.949 49.8422 67.2651 48.0384 66.3867 46.3443Z" fill="#18D6C5"/>
</svg>
