<svg width="184" height="33" viewBox="0 0 184 33" fill="none" xmlns="http://www.w3.org/2000/svg">
<g clip-path="url(#clip0_683_646)">
<path d="M7.66284 13.0153H3.80389V21.592H0V1.23926H3.80389V9.75756H7.78444L13.7564 1.23926H17.8563L10.7555 11.0979L18.1224 21.592H13.7564L7.66284 13.0153Z" fill="#E8F6F4"/>
<path d="M33.237 6.87922C34.444 7.52639 35.4391 8.49475 36.1071 9.67226C36.8176 10.9452 37.1751 12.378 37.1441 13.8281C37.1742 15.2832 36.8168 16.7208 36.1071 17.9997C35.4427 19.1828 34.447 20.1557 33.237 20.804C31.9653 21.4783 30.5374 21.8201 29.0913 21.7964C26.95 21.7964 25.2576 21.0981 24.0141 19.7016V27.232H20.2997V6.05972H23.8351V8.10286C24.4386 7.37176 25.2205 6.80115 26.1087 6.44365C27.055 6.06582 28.0693 5.878 29.0913 5.89133C30.5369 5.86723 31.9645 6.20743 33.237 6.87922ZM32.0486 17.3464C32.9296 16.4573 33.3708 15.2845 33.3724 13.8281C33.3739 12.3717 32.9326 11.199 32.0486 10.3099C31.6126 9.87045 31.0876 9.52501 30.5072 9.29574C29.9268 9.06646 29.3039 8.9584 28.6783 8.97849C27.8359 8.96577 27.0053 9.17267 26.2716 9.57796C25.5555 9.97606 24.9692 10.5646 24.5807 11.2753C24.1504 12.0615 23.9354 12.9433 23.9567 13.8349C23.9366 14.7242 24.1515 15.6035 24.5807 16.3877C24.9694 17.0989 25.5555 17.6881 26.2716 18.0873C27.0061 18.4901 27.8365 18.6954 28.6783 18.6823C29.3043 18.7023 29.9276 18.5938 30.5081 18.3637C31.0885 18.1336 31.6133 17.7871 32.0486 17.3464Z" fill="#E8F6F4"/>
<path d="M51.5361 7.53484C52.7734 8.6305 53.3921 10.2822 53.3921 12.49V21.5898H49.8865V19.7016C49.4125 20.3962 48.7386 20.9377 47.9501 21.2575C46.9838 21.6397 45.9475 21.8232 44.9056 21.7964C43.8344 21.8202 42.7707 21.6164 41.7877 21.1991C40.9534 20.8476 40.2376 20.2724 39.7229 19.5399C39.2342 18.8327 38.9788 17.9958 38.991 17.1421C38.9678 16.4978 39.0999 15.8573 39.3765 15.2722C39.6531 14.6872 40.0665 14.174 40.5832 13.7743C41.6417 12.9301 43.3104 12.5087 45.5893 12.5102H49.6892V12.2857C49.6892 11.199 49.3565 10.3653 48.6912 9.78453C48.0258 9.20377 47.0416 8.91265 45.7385 8.91115C44.8454 8.91142 43.958 9.0501 43.1092 9.32202C42.3125 9.55677 41.5705 9.94196 40.9251 10.4558L39.4613 7.811C40.3631 7.15845 41.3805 6.67506 42.4622 6.38529C43.6704 6.05025 44.9209 5.88395 46.1767 5.89135C48.5122 5.89135 50.2994 6.43918 51.5384 7.53484H51.5361ZM48.1497 18.5251C48.8607 18.1222 49.4029 17.4858 49.68 16.7289V14.9328H45.8463C43.708 14.9328 42.6343 15.6063 42.6343 16.9961C42.6249 17.3026 42.6934 17.6066 42.8335 17.8809C42.9737 18.1552 43.1811 18.3912 43.4373 18.5678C43.9742 18.9569 44.7167 19.1508 45.665 19.1493C46.5357 19.1648 47.3943 18.9491 48.1497 18.5251Z" fill="#E8F6F4"/>
<path d="M60.1763 20.7748C58.9092 20.1289 57.8528 19.148 57.1272 17.9436C56.3845 16.6954 56.0045 15.2723 56.0282 13.8281C56.0039 12.3888 56.3841 10.9707 57.1272 9.72839C57.8557 8.53132 58.9097 7.55581 60.1717 6.91066C61.5427 6.21503 63.0693 5.8647 64.6134 5.89134C66.043 5.86136 67.4577 6.18084 68.7293 6.82085C69.8777 7.41684 70.8044 8.35274 71.3768 9.49489L68.5274 11.1249C68.1141 10.4471 67.5232 9.8898 66.8159 9.5106C65.9011 9.05178 64.8638 8.88101 63.846 9.02169C62.8282 9.16237 61.8798 9.60762 61.1307 10.2964C60.213 11.1795 59.7541 12.3568 59.7541 13.8281C59.7541 15.2995 60.2053 16.4775 61.1077 17.3621C62.0071 18.2444 63.1726 18.6823 64.5675 18.6823C65.3487 18.6913 66.1196 18.5075 66.809 18.1479C67.5165 17.7679 68.1074 17.2098 68.5205 16.5314L71.37 18.1614C70.7767 19.3069 69.8391 20.2472 68.6834 20.8556C67.4249 21.5038 66.0191 21.829 64.5973 21.8008C63.0575 21.8255 61.5357 21.4744 60.1694 20.7793L60.1763 20.7748Z" fill="#E8F6F4"/>
<path d="M74.0176 6.06653H77.732V12.3755H85.7206V6.06653H89.4373V21.5921H85.7206V15.456H77.732V21.5921H74.0176V6.06653Z" fill="#E8F6F4"/>
<path d="M105.949 12.5214C107.02 13.4195 107.555 14.6783 107.555 16.2978C107.555 18.0042 106.965 19.3236 105.786 20.2561C104.607 21.1886 102.938 21.6429 100.778 21.619L93.5899 21.5898V6.05969H97.302V11.1541L101.312 11.1832C103.333 11.1832 104.878 11.6293 105.949 12.5214ZM102.948 18.2781C103.522 17.8111 103.811 17.1353 103.811 16.2417C103.811 15.3481 103.533 14.7307 102.978 14.3243C102.423 13.9179 101.581 13.7024 100.454 13.6822L97.3066 13.653V18.9157L100.454 18.9449C101.54 18.9674 102.372 18.7428 102.948 18.2781ZM109.602 21.5898V6.05969H113.314V21.5898H109.602Z" fill="#E8F6F4"/>
<path d="M117.45 6.06653H121.165V16.3002L129.929 6.06653H133.317V21.5921H129.601V11.3585L120.866 21.5921H117.45V6.06653Z" fill="#E8F6F4"/>
<path d="M162.817 1.23706V21.5898H159.018V15.9229H153.459L149.586 21.5898H145.527L149.985 15.3033C148.629 14.8447 147.458 13.9738 146.642 12.8178C145.858 11.6847 145.466 10.3137 145.468 8.70461C145.429 7.29441 145.799 5.90232 146.537 4.69019C147.262 3.55588 148.316 2.65918 149.565 2.11494C151.016 1.49323 152.587 1.18683 154.17 1.21686L162.817 1.23706ZM150.657 5.51417C149.813 6.23264 149.396 7.27666 149.396 8.65746C149.396 9.99261 149.802 11.0239 150.614 11.7513C151.424 12.4766 152.601 12.8448 154.145 12.8448H159.022V4.43648H154.296C152.709 4.43648 151.494 4.79571 150.653 5.51417H150.657Z" fill="#E8F6F4"/>
<path d="M180.1 6.8792C181.306 7.52651 182.3 8.49488 182.968 9.67223C183.677 10.9453 184.033 12.3783 184 13.8281C184.03 15.2834 183.672 16.7214 182.961 17.9997C182.299 19.1818 181.307 20.1546 180.1 20.8039C178.83 21.4777 177.403 21.8195 175.959 21.7963C173.817 21.7963 172.123 21.0981 170.877 19.7016V27.232H167.16V6.0597H170.693V8.10283C171.297 7.37173 172.079 6.80112 172.967 6.44363C173.913 6.06597 174.927 5.87815 175.949 5.89131C177.397 5.86623 178.826 6.20646 180.1 6.8792ZM178.911 17.3463C179.792 16.4572 180.234 15.2845 180.235 13.8281C180.237 12.3717 179.795 11.199 178.911 10.3099C178.476 9.86741 177.952 9.51896 177.371 9.28695C176.79 9.05494 176.166 8.9445 175.539 8.96275C174.696 8.95067 173.866 9.15753 173.132 9.56221C172.417 9.9612 171.831 10.5495 171.441 11.2596C171.011 12.046 170.796 12.9275 170.815 13.8191C170.792 14.7132 171.005 15.5979 171.434 16.3876C171.824 17.0983 172.41 17.6874 173.125 18.0873C173.86 18.4896 174.69 18.6948 175.532 18.6822C176.158 18.7025 176.782 18.5941 177.363 18.364C177.944 18.1339 178.469 17.7872 178.904 17.3463H178.911Z" fill="#E8F6F4"/>
<path d="M125.4 4.06374C126.249 4.06264 127.089 3.89699 127.871 3.57636C128.654 3.25574 129.364 2.78649 129.961 2.19573L127.701 -0.00231934C127.398 0.297018 127.037 0.534813 126.64 0.697409C126.243 0.860005 125.817 0.944199 125.386 0.945156C124.956 0.948058 124.53 0.867615 124.132 0.708466C123.734 0.549317 123.372 0.314612 123.067 0.0178875L120.823 2.22941C121.421 2.81301 122.131 3.27543 122.912 3.59019C123.693 3.90495 124.53 4.06587 125.375 4.06374H125.4Z" fill="#E8F6F4"/>
<path d="M37.1487 27.9146H34.7604V31.4575H33.9781V27.2455H37.1487V27.9146Z" fill="#E8F6F4"/>
<path d="M40.8379 27.6339C41.0057 27.8019 41.135 28.0028 41.2173 28.2235C41.2996 28.4442 41.3329 28.6794 41.3151 28.9137V31.4575H40.5741V30.9007C40.4399 31.1021 40.2462 31.2587 40.0188 31.3497C39.747 31.4595 39.4548 31.5131 39.1608 31.5069C38.749 31.5258 38.3433 31.4035 38.0137 31.1611C37.8734 31.056 37.7607 30.9198 37.6849 30.7636C37.6091 30.6074 37.5723 30.4359 37.5778 30.263C37.5714 30.0921 37.6055 29.9221 37.6776 29.7663C37.7496 29.6104 37.8576 29.4731 37.993 29.365C38.2683 29.1404 38.7088 29.0259 39.3099 29.0259H40.5419V28.8755C40.552 28.7364 40.5309 28.5969 40.4802 28.4666C40.4295 28.3363 40.3503 28.2184 40.2483 28.1211C40.0063 27.9311 39.6996 27.838 39.3902 27.8607C39.1357 27.8595 38.8828 27.9004 38.6423 27.9819C38.4178 28.0542 38.2086 28.1661 38.0251 28.312L37.6994 27.7372C37.936 27.5557 38.2064 27.4207 38.4955 27.3398C38.8135 27.2441 39.1447 27.1964 39.4774 27.1983C39.9709 27.1695 40.4572 27.3252 40.8379 27.6339ZM40.0624 30.7211C40.2777 30.5944 40.4433 30.4007 40.5328 30.171V29.5827H39.3329C38.6706 29.5827 38.3394 29.799 38.3394 30.2316C38.3359 30.3293 38.357 30.4263 38.4011 30.5141C38.4451 30.6018 38.5106 30.6776 38.5918 30.7345C38.7993 30.8687 39.0456 30.9334 39.2939 30.9186C39.5641 30.9258 39.8307 30.8573 40.0624 30.7211Z" fill="#E8F6F4"/>
<path d="M43.4281 31.2263C43.0923 31.0482 42.8135 30.7823 42.6228 30.4584C42.4302 30.1196 42.3291 29.7382 42.3291 29.3504C42.3291 28.9626 42.4302 28.5813 42.6228 28.2424C42.8142 27.9201 43.0929 27.6559 43.4281 27.479C43.7898 27.2922 44.1939 27.1979 44.6028 27.2051C44.9649 27.1965 45.3238 27.2735 45.649 27.4296C45.9495 27.5788 46.1967 27.8137 46.3579 28.1032L45.766 28.4759C45.6403 28.2868 45.4674 28.1322 45.2635 28.0269C45.0566 27.925 44.8276 27.8734 44.5959 27.8764C44.331 27.8723 44.0695 27.9349 43.8365 28.0583C43.6135 28.1792 43.4304 28.3599 43.3088 28.5792C43.1771 28.8174 43.1114 29.0852 43.1184 29.356C43.1122 29.6282 43.1778 29.8973 43.3088 30.1374C43.4311 30.3561 43.614 30.5367 43.8365 30.6582C44.0693 30.7823 44.3308 30.8457 44.5959 30.8424C44.8278 30.8446 45.0567 30.7922 45.2635 30.6897C45.4685 30.5858 45.6418 30.4309 45.766 30.2406L46.3579 30.6066C46.1968 30.8962 45.9496 31.1311 45.649 31.2802C45.3257 31.4429 44.9663 31.5246 44.6028 31.5182C44.1932 31.5243 43.7888 31.4276 43.4281 31.2375V31.2263Z" fill="#E8F6F4"/>
<path d="M50.5174 27.9146H48.9435V31.4575H48.1612V27.9146H46.5873V27.2455H50.5174V27.9146Z" fill="#E8F6F4"/>
<path d="M54.7182 27.4744C55.0435 27.6494 55.3116 27.911 55.4914 28.2288C55.6748 28.5758 55.7706 28.9608 55.7706 29.3514C55.7706 29.7421 55.6748 30.1271 55.4914 30.474C55.3136 30.7939 55.0451 31.0567 54.7182 31.2307C54.3739 31.4153 53.9866 31.5097 53.594 31.5046C53.3022 31.5067 53.0134 31.447 52.7474 31.3295C52.4913 31.2127 52.2672 31.038 52.0936 30.8198V33.0021H51.3135V27.2454H52.0615V27.919C52.2292 27.6899 52.4555 27.508 52.7176 27.3914C52.9925 27.2687 53.2919 27.2074 53.594 27.2118C53.9862 27.2052 54.3735 27.298 54.7182 27.4812V27.4744ZM54.2731 30.6514C54.4933 30.5261 54.6735 30.3434 54.7939 30.1238C54.9192 29.8844 54.9845 29.6193 54.9845 29.3503C54.9845 29.0814 54.9192 28.8162 54.7939 28.5768C54.6736 28.3589 54.4931 28.1784 54.2731 28.056C54.0459 27.9327 53.7896 27.87 53.5298 27.8741C53.2724 27.8705 53.0188 27.9349 52.7956 28.0604C52.5771 28.1849 52.3972 28.3649 52.2748 28.5813C52.144 28.8183 52.0784 29.0844 52.0844 29.3537C52.0789 29.6216 52.1428 29.8865 52.2702 30.1238C52.3896 30.3441 52.5701 30.527 52.791 30.6514C53.0185 30.7723 53.2732 30.8356 53.5321 30.8356C53.7909 30.8356 54.0456 30.7723 54.2731 30.6514Z" fill="#E8F6F4"/>
<path d="M57.586 31.2262C57.2512 31.0484 56.9738 30.7824 56.7853 30.4583C56.5972 30.118 56.4987 29.7372 56.4987 29.3503C56.4987 28.9634 56.5972 28.5826 56.7853 28.2423C56.9746 27.92 57.2518 27.6557 57.586 27.4789C57.9409 27.3005 58.3342 27.2074 58.7332 27.2074C59.1322 27.2074 59.5254 27.3005 59.8803 27.4789C60.2132 27.6558 60.4889 27.9202 60.6764 28.2423C60.8662 28.5821 60.9656 28.9631 60.9656 29.3503C60.9656 29.7375 60.8662 30.1185 60.6764 30.4583C60.4897 30.7821 60.2139 31.0482 59.8803 31.2262C59.5267 31.4088 59.133 31.5043 58.7332 31.5043C58.3334 31.5043 57.9396 31.4088 57.586 31.2262ZM59.4811 30.6514C59.7013 30.5269 59.881 30.344 59.9996 30.1238C60.1218 29.8835 60.1855 29.6187 60.1855 29.3503C60.1855 29.0819 60.1218 28.8171 59.9996 28.5768C59.8814 28.3581 59.7014 28.1773 59.4811 28.056C59.2527 27.9367 58.9978 27.8742 58.7389 27.8742C58.48 27.8742 58.2251 27.9367 57.9967 28.056C57.7767 28.1784 57.5962 28.3589 57.4759 28.5768C57.3523 28.8167 57.2879 29.0817 57.2879 29.3503C57.2879 29.619 57.3523 29.8839 57.4759 30.1238C57.5963 30.3434 57.7766 30.5261 57.9967 30.6514C58.2237 30.7751 58.4791 30.84 58.7389 30.84C58.9987 30.84 59.2541 30.7751 59.4811 30.6514Z" fill="#E8F6F4"/>
<path d="M62.1057 27.2455H62.8881V29.0327H65.3429V27.2455H66.1207V31.4575H65.3429V29.695H62.8881V31.4575H62.1057V27.2455Z" fill="#E8F6F4"/>
<path d="M68.3278 31.2262C67.9926 31.0496 67.7156 30.7833 67.5294 30.4584C67.3412 30.1181 67.2427 29.7373 67.2427 29.3504C67.2427 28.9635 67.3412 28.5826 67.5294 28.2424C67.7165 27.9192 67.9933 27.6546 68.3278 27.479C68.6802 27.2939 69.075 27.1996 69.4749 27.2051C69.875 27.1981 70.2702 27.2925 70.622 27.479C70.9544 27.6566 71.23 27.9208 71.4181 28.2424C71.6094 28.5817 71.7096 28.9629 71.7096 29.3504C71.7096 29.7379 71.6094 30.119 71.4181 30.4584C71.2308 30.7817 70.9552 31.0476 70.622 31.2262C70.2713 31.4163 69.8758 31.513 69.4749 31.5069C69.0743 31.5112 68.6792 31.4145 68.3278 31.2262ZM70.2251 30.6515C70.4446 30.5268 70.6236 30.3439 70.7413 30.1238C70.865 29.884 70.9294 29.619 70.9294 29.3504C70.9294 29.0817 70.865 28.8168 70.7413 28.5769C70.624 28.3583 70.4448 28.1775 70.2251 28.056C69.9964 27.9365 69.7411 27.874 69.4818 27.874C69.2225 27.874 68.9672 27.9365 68.7384 28.056C68.5184 28.1785 68.338 28.359 68.2176 28.5769C68.0924 28.8163 68.0271 29.0814 68.0271 29.3504C68.0271 29.6193 68.0924 29.8844 68.2176 30.1238C68.338 30.3435 68.5183 30.5261 68.7384 30.6515C68.9658 30.7751 69.2217 30.84 69.4818 30.84C69.7419 30.84 69.9978 30.7751 70.2251 30.6515Z" fill="#E8F6F4"/>
<path d="M77.8077 27.2455V31.4575H77.101V28.3838L75.4928 30.9837H75.1509L73.5587 28.3726V31.4575H72.8452V27.2455H73.6482L75.3391 30.0924L77.0781 27.2455H77.8077Z" fill="#E8F6F4"/>
<path d="M82.5109 29.0394C82.6556 29.1653 82.7693 29.3216 82.8436 29.4965C82.9179 29.6715 82.9509 29.8606 82.94 30.0497C82.9526 30.2484 82.9177 30.4473 82.8381 30.6305C82.7584 30.8137 82.6362 30.9761 82.4811 31.105C82.0923 31.3731 81.6201 31.5001 81.1458 31.4642H79.3334V27.2455H80.1157V28.6667H81.2743C81.7195 28.645 82.1587 28.7743 82.5178 29.0327L82.5109 29.0394ZM81.88 30.6784C81.9734 30.6009 82.0469 30.503 82.0947 30.3927C82.1425 30.2823 82.1633 30.1626 82.1553 30.043C82.1644 29.9285 82.1447 29.8136 82.0979 29.7083C82.0511 29.6031 81.9786 29.5106 81.8869 29.439C81.644 29.2955 81.3627 29.2266 81.0793 29.2415L80.1088 29.2235V30.8782H81.0793C81.3627 30.903 81.6459 30.8299 81.88 30.6717V30.6784ZM83.5823 31.4575V27.2455H84.3647V31.4575H83.5823Z" fill="#E8F6F4"/>
<path d="M88.0653 27.2455H88.8477V29.0327H91.298V27.2455H92.078V31.4575H91.298V29.695H88.8477V31.4575H88.0653V27.2455Z" fill="#E8F6F4"/>
<path d="M96.499 27.6339C96.6669 27.8019 96.7962 28.0029 96.8785 28.2235C96.9608 28.4442 96.9941 28.6795 96.9763 28.9137V31.4575H96.2398V30.9007C96.1042 31.1017 95.9099 31.2582 95.6823 31.3497C95.4096 31.4594 95.1167 31.5129 94.8219 31.5069C94.4101 31.526 94.0043 31.4037 93.6748 31.1612C93.5338 31.0566 93.4205 30.9205 93.3442 30.7642C93.268 30.608 93.2311 30.4361 93.2366 30.2631C93.2302 30.0922 93.2644 29.9221 93.3364 29.7663C93.4085 29.6105 93.5165 29.4731 93.6519 29.365C93.9272 29.1405 94.3677 29.026 94.9688 29.026H96.2031V28.8755C96.213 28.7367 96.192 28.5974 96.1418 28.4671C96.0915 28.3369 96.013 28.2189 95.9117 28.1211C95.668 27.931 95.3599 27.838 95.0491 27.8607C94.7946 27.8599 94.5418 27.9008 94.3011 27.9819C94.0773 28.0543 93.8689 28.1661 93.6863 28.312L93.3628 27.7372C93.599 27.555 93.8695 27.4199 94.1589 27.3398C94.4762 27.244 94.8065 27.1963 95.1386 27.1984C95.6322 27.1689 96.1187 27.3246 96.499 27.6339ZM95.7259 30.7211C95.9406 30.5938 96.106 30.4003 96.1962 30.171V29.5828H94.9963C94.3356 29.5828 94.0052 29.7991 94.0052 30.2316C94.0018 30.3291 94.0228 30.4259 94.0663 30.5135C94.1099 30.6012 94.1748 30.6771 94.2553 30.7346C94.4621 30.8683 94.7076 30.9329 94.955 30.9187C95.2259 30.9259 95.4934 30.8574 95.7259 30.7211Z" fill="#E8F6F4"/>
<path d="M104.515 27.2455V31.4575H98.3803V27.2455H99.1581V30.7884H101.062V27.2455H101.84V30.7884H103.733V27.2455H104.515Z" fill="#E8F6F4"/>
<path d="M109.895 29.6052H106.406C106.424 29.7801 106.478 29.9496 106.564 30.1038C106.651 30.258 106.768 30.3938 106.908 30.5033C107.209 30.7337 107.582 30.8536 107.963 30.8423C108.196 30.8504 108.428 30.8088 108.643 30.7204C108.858 30.632 109.05 30.4989 109.207 30.3304L109.641 30.8221C109.441 31.0452 109.191 31.2196 108.911 31.3318C108.56 31.4628 108.186 31.5214 107.81 31.504C107.435 31.4866 107.068 31.3936 106.731 31.2308C106.39 31.0581 106.107 30.7922 105.917 30.4651C105.721 30.1266 105.621 29.7428 105.628 29.3538C105.622 28.9676 105.717 28.5863 105.906 28.2469C106.086 27.9243 106.355 27.6582 106.683 27.479C107.02 27.2929 107.402 27.1983 107.789 27.2051C108.175 27.1978 108.555 27.2924 108.89 27.479C109.212 27.6599 109.474 27.9261 109.647 28.2469C109.831 28.5933 109.925 28.9791 109.918 29.3695C109.916 29.4446 109.91 29.5195 109.9 29.594L109.895 29.6052ZM106.846 28.1818C106.592 28.4091 106.434 28.7216 106.403 29.0574H109.157C109.124 28.7229 108.966 28.4122 108.711 28.1863C108.456 27.9599 108.12 27.8392 107.775 27.8495C107.431 27.8388 107.095 27.9577 106.837 28.1818H106.846Z" fill="#E8F6F4"/>
<path d="M114.293 27.9146H111.905V31.4575H111.127V27.2455H114.293V27.9146Z" fill="#E8F6F4"/>
<path d="M115.592 31.2262C115.257 31.0484 114.98 30.7824 114.791 30.4583C114.603 30.118 114.505 29.7372 114.505 29.3503C114.505 28.9634 114.603 28.5826 114.791 28.2423C114.98 27.92 115.258 27.6557 115.592 27.4789C115.947 27.3005 116.34 27.2074 116.739 27.2074C117.138 27.2074 117.531 27.3005 117.886 27.4789C118.219 27.6558 118.495 27.9202 118.682 28.2423C118.872 28.5821 118.972 28.9631 118.972 29.3503C118.972 29.7375 118.872 30.1185 118.682 30.4583C118.496 30.7821 118.22 31.0482 117.886 31.2262C117.533 31.4088 117.139 31.5043 116.739 31.5043C116.339 31.5043 115.945 31.4088 115.592 31.2262ZM117.487 30.6514C117.706 30.5257 117.886 30.3431 118.005 30.1238C118.128 29.8835 118.191 29.6187 118.191 29.3503C118.191 29.0819 118.128 28.8171 118.005 28.5768C117.887 28.3586 117.707 28.1779 117.487 28.056C117.261 27.9324 117.005 27.8697 116.746 27.8741C116.486 27.8702 116.23 27.9329 116.003 28.056C115.783 28.1779 115.603 28.3586 115.484 28.5768C115.359 28.8163 115.294 29.0814 115.294 29.3503C115.294 29.6193 115.359 29.8844 115.484 30.1238C115.604 30.3431 115.783 30.5257 116.003 30.6514C116.229 30.7776 116.485 30.8427 116.746 30.84C117.006 30.8433 117.262 30.7781 117.487 30.6514Z" fill="#E8F6F4"/>
<path d="M125.464 27.9146H123.076V31.4575H122.293V27.2455H125.464V27.9146Z" fill="#E8F6F4"/>
<path d="M126.763 31.2262C126.427 31.0496 126.149 30.7833 125.962 30.4583C125.772 30.1185 125.673 29.7375 125.673 29.3503C125.673 28.9631 125.772 28.5821 125.962 28.2423C126.15 27.919 126.428 27.6544 126.763 27.4789C127.115 27.2929 127.51 27.1986 127.91 27.205C128.31 27.1974 128.705 27.2918 129.057 27.4789C129.391 27.6545 129.667 27.9193 129.853 28.2423C130.044 28.5816 130.145 28.9628 130.145 29.3503C130.145 29.7378 130.044 30.119 129.853 30.4583C129.668 30.7831 129.391 31.0494 129.057 31.2262C128.706 31.4162 128.311 31.513 127.91 31.5068C127.509 31.5121 127.114 31.4154 126.763 31.2262ZM128.658 30.6514C128.877 30.5267 129.055 30.3437 129.172 30.1238C129.295 29.8839 129.36 29.619 129.36 29.3503C129.36 29.0816 129.295 28.8167 129.172 28.5768C129.055 28.3583 128.877 28.1774 128.658 28.0559C128.43 27.9329 128.174 27.8702 127.914 27.8741C127.655 27.8697 127.4 27.9324 127.173 28.0559C126.952 28.1771 126.772 28.3579 126.653 28.5768C126.527 28.8162 126.462 29.0813 126.462 29.3503C126.462 29.6193 126.527 29.8844 126.653 30.1238C126.772 30.3441 126.952 30.527 127.173 30.6514C127.399 30.7781 127.655 30.8432 127.914 30.84C128.175 30.8427 128.431 30.7776 128.658 30.6514Z" fill="#E8F6F4"/>
<path d="M134.673 27.4745C135 27.6493 135.27 27.9108 135.451 28.2289C135.635 28.5759 135.73 28.9609 135.73 29.3515C135.73 29.7422 135.635 30.1272 135.451 30.4741C135.272 30.7943 135.001 31.057 134.673 31.2308C134.331 31.4149 133.946 31.5092 133.556 31.5047C133.263 31.507 132.972 31.4473 132.705 31.3295C132.449 31.2116 132.226 31.0371 132.051 30.8199V33.0022H131.278V27.2455H132.023V27.9191C132.193 27.6904 132.421 27.5086 132.684 27.3915C132.959 27.2688 133.258 27.2074 133.561 27.2118C133.948 27.2045 134.332 27.295 134.673 27.4745ZM134.235 30.6515C134.454 30.5255 134.632 30.3429 134.751 30.1239C134.879 29.8853 134.946 29.6199 134.946 29.3504C134.946 29.0809 134.879 28.8155 134.751 28.5769C134.633 28.3593 134.454 28.1788 134.235 28.056C134.007 27.933 133.75 27.8703 133.489 27.8742C133.232 27.8699 132.978 27.9343 132.755 28.0605C132.537 28.1849 132.357 28.3649 132.235 28.5814C132.103 28.818 132.037 29.0844 132.044 29.3538C132.039 29.622 132.103 29.8871 132.232 30.1239C132.35 30.3452 132.531 30.5284 132.753 30.6515C132.977 30.7757 133.232 30.8392 133.489 30.8356C133.75 30.8398 134.008 30.7763 134.235 30.6515Z" fill="#E8F6F4"/>
<path d="M137.555 31.2262C137.22 31.0496 136.943 30.7833 136.757 30.4584C136.565 30.119 136.465 29.7378 136.465 29.3503C136.465 28.9628 136.565 28.5817 136.757 28.2423C136.944 27.9192 137.22 27.6545 137.555 27.479C137.907 27.2937 138.302 27.1994 138.702 27.2051C139.102 27.1983 139.497 27.2926 139.849 27.479C140.182 27.6565 140.457 27.9208 140.645 28.2423C140.833 28.5826 140.932 28.9634 140.932 29.3503C140.932 29.7373 140.833 30.1181 140.645 30.4584C140.458 30.7817 140.182 31.0476 139.849 31.2262C139.498 31.4158 139.103 31.5125 138.702 31.5069C138.301 31.5114 137.906 31.4147 137.555 31.2262ZM139.452 30.6514C139.672 30.5268 139.851 30.3438 139.968 30.1238C140.092 29.8839 140.157 29.619 140.157 29.3503C140.157 29.0817 140.092 28.8168 139.968 28.5769C139.851 28.3583 139.672 28.1774 139.452 28.056C139.224 27.9365 138.968 27.874 138.709 27.874C138.45 27.874 138.194 27.9365 137.966 28.056C137.746 28.1785 137.565 28.3589 137.445 28.5769C137.32 28.8163 137.254 29.0814 137.254 29.3503C137.254 29.6193 137.32 29.8844 137.445 30.1238C137.565 30.3434 137.745 30.5261 137.966 30.6514C138.193 30.7751 138.449 30.84 138.709 30.84C138.969 30.84 139.225 30.7751 139.452 30.6514Z" fill="#E8F6F4"/>
<path d="M146.418 30.7884V32.4364H145.686V31.4575H142.091V32.4364H141.35V30.7884H141.579C141.854 30.7749 142.038 30.5841 142.148 30.2181C142.27 29.709 142.341 29.1893 142.359 28.6667L142.421 27.2455H145.762V30.7884H146.418ZM142.933 30.0385C142.899 30.3223 142.768 30.5865 142.561 30.7884H144.977V27.9123H143.109L143.063 28.7251C143.052 29.1654 143.008 29.6043 142.933 30.0385Z" fill="#E8F6F4"/>
<path d="M150.336 27.6339C150.503 27.8025 150.631 28.0037 150.713 28.2243C150.794 28.4448 150.827 28.6798 150.809 28.9137V31.4575H150.072V30.9007C149.937 31.1021 149.743 31.2587 149.515 31.3497C149.244 31.4598 148.952 31.5133 148.659 31.5069C148.243 31.5283 147.833 31.4059 147.501 31.1611C147.361 31.0559 147.248 30.9196 147.173 30.7634C147.097 30.6072 147.061 30.4357 147.067 30.263C147.06 30.0921 147.094 29.9219 147.166 29.766C147.238 29.6102 147.347 29.4728 147.482 29.365C147.758 29.1404 148.193 29.0259 148.797 29.0259H150.031V28.8755C150.04 28.7367 150.019 28.5975 149.969 28.4674C149.919 28.3373 149.841 28.2192 149.74 28.1211C149.496 27.9308 149.188 27.8378 148.877 27.8607C148.623 27.8594 148.371 27.9004 148.131 27.9819C147.906 28.0532 147.696 28.1651 147.512 28.312L147.189 27.7372C147.425 27.5557 147.696 27.4207 147.985 27.3398C148.303 27.244 148.635 27.1963 148.969 27.1983C149.467 27.164 149.959 27.3174 150.345 27.6272L150.336 27.6339ZM149.559 30.7211C149.773 30.5933 149.939 30.4001 150.031 30.171V29.5827H148.829C148.168 29.5827 147.838 29.799 147.838 30.2316C147.834 30.3296 147.855 30.4269 147.9 30.5147C147.944 30.6025 148.011 30.6781 148.092 30.7345C148.296 30.8671 148.537 30.9317 148.781 30.9186C149.054 30.9274 149.324 30.8588 149.559 30.7211Z" fill="#E8F6F4"/>
</g>
<defs>
<clipPath id="clip0_683_646">
<rect width="184" height="33" fill="white"/>
</clipPath>
</defs>
</svg>
