<svg width="205" height="32" viewBox="0 0 205 32" fill="none" xmlns="http://www.w3.org/2000/svg">
<path d="M164.821 6.74585V25.6833H168.906V17.9472H177.618V25.6833H181.703V6.74585H177.618V14.51H168.906V6.74585H164.821Z" fill="#E8F6F4"/>
<path d="M190.905 18.0456H193.447L199.719 25.6849H205L196.64 15.8899L203.945 6.74585H199.248L193.16 14.8628H190.905V6.74585H186.816V25.6849H190.905V18.0456Z" fill="#E8F6F4"/>
<path d="M157.797 25.6833H162.099L154.121 6.74585H149.953L141.783 25.6833H145.923L147.565 21.8699H156.25L157.797 25.6833ZM148.787 18.7106L151.953 11.1072L154.928 18.7106H148.787Z" fill="#E8F6F4"/>
<path d="M133.237 14.1276H128.264V9.89897H138.951L138.961 6.74585H124.177V25.6833H132.709C137.495 25.6833 140.241 23.5152 140.241 19.7345C140.241 16.1194 137.753 14.1276 133.237 14.1276ZM132.525 22.5302H128.264V17.2807H132.525C135.119 17.2807 136.327 18.1595 136.327 19.9062C136.327 21.6904 135.047 22.5302 132.525 22.5302Z" fill="#E8F6F4"/>
<path d="M91.6592 9.89897L95.9378 6.74585H81.6191V25.6849H95.9378V22.5302H85.7057V17.6819H94.433V14.5288H85.7057V9.89897H91.6592Z" fill="#E8F6F4"/>
<path d="M70.8111 14.1276H65.8379V9.89897H73.7754L78.0539 6.74585H61.7513V25.6849H70.2835C75.0694 25.6849 77.8136 23.5152 77.8136 19.7345C77.8136 16.1194 75.3269 14.1276 70.8111 14.1276ZM70.0993 22.5302H65.8379V17.2807H70.0993C72.6921 17.2807 73.9002 18.1595 73.9002 19.9062C73.9002 21.6904 72.6218 22.5302 70.0993 22.5302Z" fill="#E8F6F4"/>
<path d="M107.539 6.74585H99.7434V25.6833H103.828V20.3199H107.539C112.514 20.3199 115.604 17.7037 115.604 13.5235C115.604 9.34328 112.514 6.74585 107.539 6.74585ZM107.448 17.1668H103.828V9.89897H107.448C110.068 9.89897 111.507 11.1899 111.507 13.5329C111.507 15.8759 110.066 17.1668 107.448 17.1668Z" fill="#E8F6F4"/>
<path d="M54.7365 21.5841C53.6536 22.1707 52.4402 22.4745 51.2087 22.4676C47.5249 22.4676 44.8509 19.8374 44.8509 16.2144C44.8509 12.5914 47.5249 9.969 51.2087 9.969C52.5402 9.94964 53.8429 10.3578 54.9253 11.1335L57.8568 8.97312L57.6632 8.80297C55.9462 7.29977 53.6656 6.50525 51.051 6.50525C48.2148 6.50525 45.6408 7.46055 43.8035 9.19789C41.9663 10.9352 40.9376 13.4015 40.9376 16.1176C40.9376 18.8337 41.9522 21.3406 43.7942 23.1419C45.6361 24.9432 48.2086 25.9422 51.0245 25.9422C53.97 25.9422 56.5425 24.9151 58.2876 23.0467L55.6418 21.097L54.7365 21.5841Z" fill="#E8F6F4"/>
<path d="M31.216 16.1225C31.2163 15.185 31.1327 14.2494 30.9662 13.3268L27.6055 15.8025C27.6055 15.9087 27.6055 16.0164 27.6055 16.1147C27.6091 18.8008 26.713 21.4107 25.06 23.5279C23.4069 25.6451 21.0924 27.1476 18.4856 27.7955C15.8789 28.4435 13.1302 28.1996 10.6783 27.1028C8.22632 26.006 6.21244 24.1195 4.95802 21.7443C3.70359 19.3692 3.28092 16.6422 3.75747 13.9988C4.23402 11.3553 5.58231 8.94766 7.58717 7.16005C9.59203 5.37244 12.1379 4.30792 14.8185 4.13636C17.4991 3.96481 20.1599 4.69612 22.3763 6.21358L25.4123 3.97517C22.6574 1.75199 19.2285 0.531288 15.6885 0.513383C12.1484 0.495479 8.70743 1.68143 5.93013 3.87664C3.15283 6.07184 1.20421 9.1459 0.404013 12.5944C-0.396183 16.0429 -0.000418308 19.6609 1.52637 22.8549C3.05315 26.0488 5.62027 28.6289 8.80646 30.1718C11.9927 31.7146 15.6087 32.1287 19.0611 31.3459C22.5136 30.5631 25.5975 28.63 27.8066 25.8638C30.0158 23.0976 31.2191 19.6626 31.2191 16.1225H31.216Z" fill="#E8F6F4"/>
<path d="M27.9583 6.57898C28.7004 7.53758 29.329 8.57891 29.8315 9.68216L15.6065 20.1655L9.66394 16.4395V11.958L15.6065 15.6825L27.9583 6.57898Z" fill="#E8F6F4"/>
</svg>
