<svg width="91" height="33" viewBox="0 0 91 33" fill="none" xmlns="http://www.w3.org/2000/svg">
<path fill-rule="evenodd" clip-rule="evenodd" d="M6.19451 0.275879L4.64491 4.52051H26.1188L27.6684 0.275879H6.19451ZM3.86963 6.64187L2.32004 10.8855H23.7939L25.3435 6.64187H3.86963ZM1.54959 13.0079L0 17.2515H21.4739L23.0225 13.0079H1.54959Z" fill="#E8F6F4"/>
<mask id="mask0_683_711" style="mask-type:luminance" maskUnits="userSpaceOnUse" x="32" y="6" width="59" height="27">
<path d="M32.2177 32.7244H91V6.72339H32.2177V32.7244Z" fill="#E8F6F4"/>
</mask>
<g mask="url(#mask0_683_711)">
<path fill-rule="evenodd" clip-rule="evenodd" d="M45.6521 18.869V18.9585C46.6335 19.3187 47.5709 19.9486 48.0621 20.3531C49.5795 21.6128 50.2494 23.277 50.2494 25.4363C50.2494 28.9911 48.3746 31.5549 45.2947 32.3648C44.3573 32.6345 43.3759 32.725 41.545 32.725H32.2177V6.72339H40.4748C42.171 6.72339 43.331 6.81295 44.3573 7.08261C47.3483 7.89258 49.312 9.96228 49.312 13.2455C49.312 15.0002 48.687 16.4853 47.6607 17.4744C47.2145 17.9242 46.5895 18.4645 45.6521 18.869ZM37.395 21.6128V28.4508H40.966C42.0362 28.4508 43.0185 28.3612 43.7333 27.6861C44.4471 27.011 44.7596 26.1567 44.7596 25.0318C44.7596 24.1776 44.536 23.3676 44.0897 22.783C43.331 21.8382 42.3936 21.6128 40.7873 21.6128H37.395ZM37.3501 17.1142H40.2512C41.1437 17.1142 41.59 17.1142 42.0362 16.9794C43.2422 16.6192 44.0009 15.5405 44.0009 14.0554C44.0009 12.3016 43.1972 11.536 42.0362 11.1767C41.545 11.0419 41.0548 10.9966 40.0725 10.9966H37.3501V17.1142ZM58.0154 32.725V11.0862H50.5619V6.72339H71.2721L69.7996 11.0862H63.1927V32.725H58.0154ZM72.8784 32.725V6.72339H89.6612L88.1887 11.0862H78.0118V16.8445H82.1628C85.5102 16.8445 87.2513 17.6545 88.4562 18.6889C89.3937 19.4988 91 21.2979 91 24.8527C91 28.3612 89.3488 30.2951 87.9651 31.2852C86.3588 32.4091 84.6626 32.725 81.2254 32.725H72.8784ZM78.0118 28.3612H81.8953C83.3678 28.3612 84.2603 28.001 84.8853 27.1911C85.1977 26.7866 85.644 26.0662 85.644 24.7169C85.644 23.3676 85.1977 22.4228 84.3052 21.7477C83.7701 21.3432 83.0553 21.1188 81.8503 21.1188H78.0118V28.3612Z" fill="#E8F6F4"/>
</g>
</svg>
